<svg version="1.2" xmlns="http://www.w3.org/2000/svg" viewBox="0 0 1000 1000">
		<path fill="#ffffff" d="m684.5 304c-6 1.5-15.7 4.5-21.5 6.5-5.8 2-20.2 7.5-32 12-11.8 4.6-36.4 14.4-54.5 21.8-18.1 7.4-44 18.1-57.5 23.7-13.5 5.6-41.4 17.4-62 26.3-20.6 8.8-60.9 26.1-89.5 38.5-28.6 12.3-63.7 27.5-78 33.7-14.3 6.2-37.5 16.3-51.5 22.5-14 6.1-28 12.6-31 14.3-3 1.8-7.6 4.9-10.3 6.9-2.6 2.1-5.4 5.2-6.2 6.8-0.8 1.6-1.5 5.2-1.5 8 0 4.4 0.5 5.5 3.8 9.1 2 2.3 6.6 5.6 10.2 7.4 3.6 1.7 9.9 4.4 14 5.8 4.1 1.5 16.1 5.3 26.5 8.6 10.4 3.2 24.9 7.5 32 9.5 7.1 1.9 17.3 4.5 22.5 5.6 5.2 1.1 13.3 2.2 18 2.6 5.2 0.4 11.2 0.2 15.5-0.5 3.9-0.7 9.7-2.1 13-3.3 3.3-1.1 9.6-3.8 14-6 4.4-2.2 30.3-19 57.5-37.3 27.2-18.2 63-42.2 79.5-53.2 16.5-11 40.4-26.8 53-35 12.6-8.3 26.1-17 30-19.3 3.9-2.4 8.8-4.5 11-4.8 3.2-0.4 4.5-0.1 6.3 1.6q2.2 2.2 2.2 5.7c0 2.7-1.1 4.8-4.9 9.2-2.6 3.2-14.9 15.7-27.2 27.8-12.3 12.1-38.8 37.3-58.9 55.9-20.1 18.7-45.5 43-56.6 54-16.7 16.8-20.6 21.2-23.3 26.6-2.1 4.4-3.1 7.9-3.1 11 0 2.7 1 6.6 2.5 9.7 1.4 2.9 4.9 7.7 7.8 10.6 3 3.1 20.2 15.4 41.5 29.7 19.9 13.5 50.3 34 67.5 45.6 17.1 11.6 36.8 24.9 43.7 29.6 6.9 4.7 15.6 10.2 19.5 12.2 3.9 2 9.9 4.5 13.5 5.6 4.4 1.3 9.4 2 15.5 2 7.9 0 9.7-0.3 14.4-2.7 3-1.6 7-4.6 8.8-6.8 1.9-2.2 4.9-6.9 6.7-10.5 1.9-3.6 4.6-10.3 6-15 1.5-4.7 4-16.1 5.7-25.5 1.6-9.4 5-28 7.4-41.5 2.4-13.5 7.1-40.3 10.4-59.5 3.3-19.3 8.5-50.5 11.6-69.5 3.1-19 7.4-46 9.5-60 2.2-14 5.3-35.2 7-47 1.7-11.8 4.4-32.3 6-45.5 1.7-13.2 3-28.7 3-34.5 0-6.4-0.6-12.6-1.5-15.8-0.8-2.9-2.9-6.8-4.8-8.8-1.9-2.1-5.4-4.3-8.5-5.5-3.6-1.3-7.7-1.9-13.5-1.9-5.7 0.1-11.6 1-19.2 3z"/>
</svg>