<svg xmlns="http://www.w3.org/2000/svg" viewBox="0 0 1200 1200">
	<style>
		.s0 { fill: #fe2c55 } 
		.s1 { fill: #25f4ee } 
		.s2 { fill: #ffffff } 
	</style>
	<g id="Background">
		<path id="Path 1" class="s0" d="m521.2 565.8c-0.1 29.3-0.4 53.2-0.7 53.2-0.3 0-4.2-0.9-8.8-2-4.5-1.1-13.4-2.3-19.7-2.7-8.5-0.4-14.1-0.2-21.5 1.1-5.5 0.9-13.8 2.9-18.5 4.5-4.7 1.5-11.7 4.4-15.5 6.4-3.9 1.9-10.3 5.8-14.3 8.6-3.9 2.8-10.5 8.4-14.5 12.4-3.9 4-9.7 10.9-12.7 15.2-3 4.4-7.3 12-9.7 17-2.3 5-5.4 13.5-6.9 19-1.8 7-2.7 13.8-3.1 22.5-0.4 7.7-0.1 15.7 0.7 21 0.6 4.7 2.3 12.1 3.7 16.5 1.4 4.4 4 11.2 5.7 15 1.8 3.9 5.6 10.6 8.6 15 2.9 4.4 9.4 12.1 14.4 17 5 5 12.7 11.4 17.1 14.3 4.4 2.8 8.1 5.1 8.3 4.9 0.1-0.1-1.6-3.2-3.8-6.9-2.2-3.8-5.5-10.5-7.4-15-1.9-4.6-4.4-12.1-5.6-16.8-1.2-4.9-2.4-13.6-2.7-20.5-0.4-9-0.2-14.6 1.2-22.5 0.9-5.8 3.1-14.3 4.7-19 1.7-4.7 4.2-10.7 5.5-13.5 1.4-2.7 4.5-8 6.9-11.7 2.4-3.8 7.9-10.5 12.1-15 4.3-4.4 11.4-10.8 15.8-14.1 4.4-3.2 12-7.9 17-10.3 4.9-2.4 12.8-5.4 17.5-6.8 4.7-1.3 12.5-3 17.5-3.6 5.4-0.8 13-1 19-0.7 5.5 0.4 12.9 1.3 16.5 2.1 3.6 0.8 7.7 1.7 9.2 2l2.8 0.6v-137.5c-6.6-1.2-15.3-1.8-23.6-2.2l-15.1-0.6z"/>
		<path id="Path 2" class="s1" d="m457 480.4c-5.8 0.8-14.3 2.1-19 3.1-4.7 0.9-13.7 3.2-20 5-6.3 1.8-16.1 5.2-21.8 7.4-5.6 2.3-14.8 6.4-20.4 9.2-5.7 2.9-14.4 7.7-19.3 10.8-4.9 3-13.5 8.9-19 13.1-5.5 4.1-15.6 12.9-22.4 19.5-6.8 6.6-16 16.5-20.4 22-4.4 5.5-11.2 14.7-15 20.5-3.8 5.8-10.4 17.5-14.6 26-4.2 8.5-9.8 21.8-12.4 29.5-2.5 7.7-5.8 19-7.1 25-1.4 6-3.2 16.4-4.1 23-1 7.4-1.6 19.5-1.6 31.5 0 12 0.6 24.1 1.6 31.5 0.9 6.6 2.5 16.3 3.6 21.5 1.2 5.2 3.6 14.5 5.4 20.5 1.9 6 5.4 16 8 22 2.5 6 6.9 15.3 9.7 20.5 2.7 5.2 7.8 13.8 11.2 19 3.3 5.2 9.7 14 14 19.5 4.4 5.5 12.9 15 19 21 6.1 6.1 14.9 14.1 19.6 17.8 4.7 3.8 9.3 7.3 10.2 7.8 1 0.5-1.2-2.6-5-6.9-3.7-4.3-9.7-12.1-13.4-17.3-3.7-5.2-9.5-14.4-13-20.4-3.4-6-8.4-16-11.1-22-2.6-6-6.5-16.2-8.6-22.5-2.1-6.3-5-16.7-6.4-23-1.5-6.3-3.4-17.6-4.3-25-1.3-10.4-1.5-18.6-1.1-36 0.4-17 1-25.5 2.7-35 1.2-6.9 3.8-18.1 5.7-25 1.9-6.9 5.3-17.5 7.7-23.5 2.4-6 6.5-15.3 9.1-20.5 2.6-5.2 7.2-13.5 10.2-18.5 3-5 9.4-14.2 14.1-20.4 4.8-6.3 13.2-16.2 18.7-21.9 5.5-5.8 14.3-14.1 19.5-18.4 5.2-4.4 14.7-11.5 21-15.7 6.3-4.2 15.3-9.8 20-12.4 4.7-2.5 12.8-6.5 18-8.7 5.2-2.3 14.4-5.9 20.5-7.9 6.1-2.1 15.9-5 22-6.4 6.1-1.5 15.5-3.3 21-4.1 5.5-0.8 14.8-1.9 20.8-2.3l10.7-0.8v-31.5c-5-0.8-17.1-1.2-30-1.5-16.1-0.3-26.8 0-34 0.9z"/>
		<path id="Path 3" class="s0" d="m921 461.8v52.7c-22.1-1.1-33.9-2.1-40.5-3-6.6-0.8-15.6-2.2-20-3.1-4.4-0.8-13.2-2.8-19.5-4.4-6.3-1.6-16.7-4.7-23-6.8-6.3-2.2-15.5-5.6-20.5-7.6-5-2.1-15.7-7.2-24-11.4-8.2-4.3-20.3-11.2-26.7-15.5l-11.8-7.7c-0.6 279-0.8 293.6-2.4 304-0.9 6.3-2.6 15.8-3.7 21-1.2 5.2-4.2 16-6.8 24-2.6 8-7.7 20.6-11.2 28-3.6 7.4-8.9 17.5-11.9 22.5-3 5-9.3 14.2-14.1 20.5-4.7 6.3-13.1 16.2-18.5 21.9-5.5 5.7-14.2 14-19.4 18.3-5.2 4.4-13.5 10.8-18.5 14.3-5 3.4-13.5 8.8-19 12-5.5 3.1-15 8-21 10.7-6 2.7-15.5 6.4-21 8.3-5.5 1.9-13.6 4.3-18 5.5-4.4 1.1-13 2.9-19 4-6 1.1-17.1 2.5-24.5 3.1-7.5 0.7-19.7 0.9-27.5 0.6-7.7-0.4-17.8-1.1-22.5-1.7-4.7-0.6-12.8-2-18-3-5.2-1.1-14.2-3.3-20-4.9-5.8-1.7-15.2-4.9-21-7.1-5.8-2.3-16.4-7.2-23.5-10.9-7.1-3.7-16.6-9-21-11.9l-8-5.2c13.9 13.5 22.3 20.8 27.5 25 5.2 4.1 13.6 10.2 18.5 13.5 4.9 3.2 14.9 8.9 22 12.6 7.1 3.8 18.4 8.9 25 11.4 6.6 2.6 18.7 6.4 27 8.5 8.2 2.1 20.4 4.6 27 5.6 8.7 1.3 18 1.8 34 1.8 12.9 0.1 25.9-0.5 31.5-1.3 5.2-0.7 14.7-2.4 21-3.7 6.3-1.3 16.7-4 23-6 6.3-2 16.7-5.9 23-8.6 6.3-2.7 15.1-6.9 19.5-9.3 4.4-2.4 12.7-7.4 18.5-11.2 5.8-3.8 15-10.6 20.5-15 5.5-4.5 14.8-13 20.6-19 5.8-5.9 13.4-14.4 16.9-18.8 3.5-4.4 9.9-13.4 14.2-20 4.3-6.6 10.5-17.4 13.7-24 3.2-6.6 7.6-16.3 9.6-21.5 2-5.2 5.2-15.1 7.1-22 1.9-6.9 4.3-17.5 5.4-23.5 1-6 2.4-16.9 3-24 0.6-8.3 1-63 1-151.8v-138.7c19 12.5 33 20.4 43.5 25.5 10.5 5.2 24 11.2 30 13.4 6 2.3 16.4 5.7 23 7.6 6.6 1.9 17.4 4.6 24 6 6.6 1.3 17.4 3.1 24 4 6.6 0.9 18.6 1.9 26.8 2.3l14.7 0.7v-135c-15.1-1.2-23.4-2.2-28.1-3-4.8-0.8-9.1-1.5-9.8-1.5-0.8 0-1.1 14.1-1.1 52.7z"/>
		<path id="Path 4" class="s1" d="m824.5 354c2.8 2.9 8.8 8.6 13.5 12.7 4.7 4.1 13.2 10.7 19 14.5 5.8 3.9 14.5 9.1 19.5 11.6 5 2.4 12.8 5.9 17.5 7.7 4.7 1.8 12.7 4.5 17.8 5.9l9.2 2.6v-29.5c-21.3-2-32-3.5-37.5-4.6-5.5-1.1-14.7-3.6-20.5-5.5-5.8-1.9-15.9-6.1-22.5-9.3-6.6-3.3-14-7.2-16.5-8.7l-4.5-2.7z"/>
		<path id="Path 5" class="s0" d="m738 227.3c0 0.6 1.3 6.1 2.9 12.2 1.6 6.1 5 16.2 7.5 22.5 2.5 6.3 7.3 16.2 10.6 22 3.3 5.8 9.1 14.5 12.8 19.5 3.7 4.9 10.3 12.8 14.8 17.5 4.5 4.7 11.2 11 15 14.1 3.8 3.1 9.4 7.4 12.4 9.5l5.5 3.9c-6.3-7.8-10.2-12.9-12.7-16.5-2.5-3.6-6.6-10.1-9.1-14.5-2.4-4.4-6.5-12.7-9-18.5-2.5-5.8-5.7-14.6-7.1-19.5-1.4-4.9-3.5-13.7-4.7-19.5-1.1-5.8-2.3-15.8-2.7-22.3l-0.7-11.7c-31.3 0-35.5 0.3-35.5 1.2z"/>
		<path id="Path 6" class="s2" d="m638.9 226.3c-0.1 0.1-0.5 124.4-0.8 276.2l-0.7 276c-4.2 15.5-7.4 24-9.7 29-2.4 5-6.6 12.4-9.4 16.5-2.8 4.1-9.4 11.6-14.5 16.5-5.1 5-12.2 11-15.8 13.3-3.6 2.4-9.6 5.8-13.5 7.6-3.8 1.9-9.7 4.3-13 5.4-3.3 1.1-9.6 2.8-14 3.7-5.1 1.1-12.7 1.8-21 1.8-8.8 0-15.7-0.5-21.5-1.7-4.7-1-11.6-3-15.5-4.3-3.8-1.4-10.6-4.4-15-6.6-4.4-2.3-11.4-6.7-15.5-9.8-4.1-3.1-10-8.3-13-11.6-3-3.2-7.1-7.7-9-9.9-2-2.1-6.9-5.9-11-8.4-4.2-2.5-11.6-8.7-17.1-14-5.3-5.2-12-13.1-14.9-17.5-3-4.4-6.8-11.1-8.6-15-1.7-3.9-4.3-10.6-5.7-15-1.4-4.4-3.1-11.8-3.7-16.5-0.8-5.3-1.1-13.3-0.7-21 0.4-8.7 1.3-15.5 3.1-22.5 1.5-5.5 4.6-14 6.9-19 2.4-5 6.7-12.6 9.7-17 3-4.3 8.8-11.2 12.8-15.2 3.9-4 10.5-9.6 14.5-12.4 3.9-2.8 10.4-6.7 14.2-8.6 3.9-2 10.8-4.9 15.5-6.4 4.7-1.6 13-3.6 18.5-4.5 7.4-1.3 13-1.5 21.5-1.1 6.3 0.4 15.2 1.6 19.8 2.7 4.5 1.1 8.4 2 8.7 2 0.3 0 0.5-24 0.5-53.3v-53.2c-16.7 1.2-26 2.3-31.5 3.1-5.5 0.8-14.9 2.6-21 4.1-6 1.4-15.9 4.3-22 6.4-6 2-15.3 5.6-20.5 7.9-5.2 2.2-13.3 6.2-18 8.7-4.7 2.6-13.7 8.2-20 12.4-6.3 4.2-15.8 11.3-21 15.7-5.2 4.3-14 12.6-19.5 18.4-5.5 5.7-13.9 15.6-18.7 21.9-4.7 6.2-11.1 15.4-14.1 20.4-3 5-7.6 13.3-10.2 18.5-2.6 5.2-6.7 14.5-9.1 20.5-2.4 6-5.8 16.6-7.7 23.5-1.9 6.9-4.5 18.1-5.7 25-1.7 9.5-2.3 18-2.7 35-0.4 17.4-0.2 25.6 1.1 36 0.9 7.4 2.8 18.7 4.3 25 1.4 6.3 4.3 16.7 6.4 23 2.1 6.3 6 16.5 8.6 22.5 2.7 6 7.7 16 11.1 22 3.5 6 9.2 15 12.7 20 3.5 5 9.7 12.9 13.7 17.7 5.1 6.1 9.7 10.2 15.3 13.9 4.4 2.9 13.9 8.3 21 12 7.2 3.7 17.7 8.6 23.5 10.9 5.8 2.2 15.2 5.4 21 7.1 5.8 1.6 14.8 3.8 20 4.9 5.2 1 13.3 2.4 18 3 4.7 0.6 14.8 1.3 22.5 1.7 7.8 0.3 20 0.1 27.5-0.6 7.4-0.6 18.5-2 24.5-3.1 6-1.1 14.6-2.9 19-4 4.4-1.2 12.5-3.6 18-5.5 5.5-1.9 15-5.6 21-8.3 6-2.7 15.5-7.6 21-10.7 5.5-3.2 14-8.6 19-12 5-3.5 13.3-9.9 18.5-14.3 5.2-4.3 13.9-12.6 19.4-18.3 5.4-5.7 13.8-15.6 18.5-21.9 4.8-6.3 11.1-15.5 14.1-20.5 3-5 8.3-15.1 11.9-22.5 3.5-7.4 8.6-20 11.2-28 2.6-8 5.6-18.8 6.8-24 1.1-5.2 2.8-14.7 3.7-21 1.6-10.4 1.8-25 2.1-157.8l0.3-146.2c18.2 12 30.3 18.9 38.5 23.2 8.3 4.2 19 9.3 24 11.4 5 2 14.2 5.4 20.5 7.6 6.3 2.1 16.7 5.2 23 6.8 6.3 1.6 15.1 3.6 19.5 4.4 4.4 0.9 13.4 2.3 20 3.1 6.6 0.9 18.4 1.9 26.3 2.3l14.2 0.7-0.5-105.8c-15.5-4.3-23.5-6.9-27.7-8.6-4.3-1.7-11.7-5.1-16.5-7.5-4.9-2.4-13.5-7.5-19.3-11.4-5.8-3.8-14.3-10.3-19-14.4-4.7-4.1-10.8-9.9-13.6-12.9-2.7-3-8.8-8.1-13.4-11.4-4.7-3.3-13.9-11.4-20.6-18-6.6-6.6-15-16.1-18.7-21-3.7-4.9-9.4-13.7-12.7-19.5-3.3-5.8-8.1-15.7-10.6-22-2.6-6.3-6.1-17-7.8-23.8l-3.1-12.2c-76.3 0-98.6 0.1-98.6 0.3z"/>
		<path id="Path 7" class="s1" d="m599 464.3c0 234.2-0.2 273.4-1.4 280.7-0.8 4.7-2.9 12.5-4.6 17.5-1.8 5-5 12.4-7.2 16.5-2.2 4.1-6.1 10.4-8.8 14-2.6 3.6-8.3 9.9-12.6 14-4.4 4.2-10.6 9.4-13.9 11.6-3.3 2.3-9.4 5.8-13.5 7.9-4.1 2.1-10.4 4.8-14 6-3.6 1.2-10.1 2.9-14.5 3.8-4.4 0.9-11.1 1.8-15 2.2-3.9 0.3-11.5 0.1-17-0.6-5.5-0.6-13.4-2-17.5-3-4.1-1.1-10.9-3.4-15.1-5.2-5.3-2.2-7.4-2.7-6.9-1.7 0.4 0.8 3.9 4.8 7.6 8.9 3.8 4 10.3 9.9 14.4 13 4.1 3.1 11.1 7.5 15.5 9.8 4.4 2.2 11.1 5.2 15 6.6 3.9 1.3 10.8 3.3 15.5 4.3 5.8 1.2 12.7 1.7 21.5 1.7 8.3 0 15.9-0.7 21-1.8 4.4-0.9 10.7-2.6 14-3.7 3.3-1.1 9.1-3.5 13-5.4 3.9-1.8 9.9-5.2 13.5-7.6 3.6-2.3 10.7-8.3 15.8-13.3 5.1-4.9 11.7-12.4 14.5-16.5 2.8-4.1 7-11.5 9.4-16.5 2.3-5 5.5-13.5 7-19l2.7-10c1-427.8 1.4-552.1 1.5-552.3 0-0.1 22.3-0.2 49.4-0.2h49.2c-1.8-13.6-2.4-21.2-2.4-25.8l-0.1-8.2h-136z"/>
	</g>
</svg>