<?xml version="1.0" encoding="utf-8"?>
<!-- Generator: Adobe Illustrator 27.5.0, SVG Export Plug-In . SVG Version: 6.00 Build 0)  -->
<svg version="1.1" id="Layer_1" xmlns="http://www.w3.org/2000/svg" xmlns:xlink="http://www.w3.org/1999/xlink" x="0px" y="0px"
	 viewBox="0 0 800 800" style="enable-background:new 0 0 800 800;" xml:space="preserve">
<g>
	<rect x="1.793" y="1.793" style="fill:#FFFFFF;" width="796.039" height="796.039"/>
	<polygon style="fill:#053033;" points="22.151,124.963 12.811,105.377 1.793,104.372 1.793,118.537 4.073,123.315 	"/>
	<polygon style="fill:#053033;" points="45.853,127.124 45.833,127.341 48.777,127.609 50.492,108.813 30.81,107.02 40.149,126.604 
			"/>
	<polygon style="fill:#FFEC8D;" points="1.793,118.537 1.793,123.107 4.073,123.315 	"/>
	<polygon style="fill:#FFEC8D;" points="40.149,126.604 30.81,107.02 12.811,105.377 22.151,124.963 	"/>
	<polygon style="fill:#053033;" points="19.397,40.519 1.903,45.357 1.793,45.762 1.793,64.97 13.623,61.698 	"/>
	<polygon style="fill:#053033;" points="50.093,51.62 45.063,33.423 36.825,35.703 31.044,56.885 	"/>
	<polygon style="fill:#FFEC8D;" points="1.793,45.387 1.793,45.762 1.903,45.357 	"/>
	<polygon style="fill:#FFEC8D;" points="31.044,56.885 36.825,35.703 19.397,40.519 13.623,61.698 	"/>
	<polygon style="fill:#037982;" points="45.833,127.341 45.853,127.124 40.149,126.604 22.151,124.963 4.073,123.315 1.793,123.107 
		1.793,141.782 32.97,144.626 32.545,149.287 1.793,146.483 1.793,164.887 30.88,167.539 30.454,172.203 1.793,169.589 
		1.793,187.99 28.791,190.448 28.364,195.12 1.793,192.696 1.793,211.373 37.869,214.663 	"/>
	<polygon style="fill:#E8CD58;" points="32.97,144.626 1.793,141.782 1.793,146.483 32.545,149.287 	"/>
	<polygon style="fill:#E8CD58;" points="30.88,167.539 1.793,164.887 1.793,169.589 30.454,172.203 	"/>
	<polygon style="fill:#E8CD58;" points="28.791,190.448 1.793,187.99 1.793,192.696 28.364,195.12 	"/>
	<path style="fill:#FFEC8D;" d="M325.919,645.879l9.549-2.358c-13.891-32.329-27.775-64.656-41.658-96.979l-15.999,3.952
		C293.848,582.282,309.886,614.081,325.919,645.879z"/>
	<path style="fill:#EA4747;" d="M307.814,543.083l-13.964,3.448c13.878,32.328,27.764,64.652,41.642,96.983l8.648-2.136
		c-11.797-32.444-23.596-64.89-35.393-97.33C308.412,543.743,308.1,543.421,307.814,543.083z"/>
	<path style="fill:#FFEC8D;" d="M309.129,544.403c-0.135-0.112-0.256-0.237-0.383-0.354c11.797,32.44,23.596,64.886,35.393,97.33
		l8.122-2.006c-9.652-31.796-19.311-63.594-28.969-95.392C319.411,547.629,313.332,547.903,309.129,544.403z"/>
	<path style="fill:#EA4747;" d="M326.411,538.491c-0.355,1.617-1.077,3.178-2.209,4.538c-0.276,0.33-0.571,0.634-0.876,0.924
		c9.649,31.803,19.304,63.609,28.96,95.415l7.877-1.945c-8.328-33.7-16.642-67.401-24.97-101.1L326.411,538.491z"/>
	<path style="fill:#EFD567;" d="M360.162,637.423l7.871-1.943c-6.544-34.141-13.09-68.282-19.64-102.417l-13.201,3.261
		C343.52,570.021,351.835,603.723,360.162,637.423z"/>
	<path style="fill:#B7041E;" d="M368.056,635.474l8.122-2.005c-4.717-34.592-9.423-69.188-14.133-103.776l-0.987,0.245
		l-12.625,3.118C354.971,567.19,361.517,601.331,368.056,635.474z"/>
	<path style="fill:#EFD567;" d="M384.827,631.334c-2.765-35.074-5.523-70.151-8.285-105.22l-14.497,3.578
		c4.71,34.589,9.416,69.185,14.133,103.776L384.827,631.334z"/>
	<path style="fill:#B7041E;" d="M384.854,631.326l9.545-2.356c-0.605-35.606-1.215-71.215-1.813-106.817l-16,3.951
		C379.339,561.177,382.096,596.253,384.854,631.326z"/>
	<path style="fill:#FFEC8D;" d="M326.597,534.915c0.14,1.19,0.072,2.398-0.187,3.576l8.782-2.168l-0.194-0.788
		C332.237,536.22,329.286,536.033,326.597,534.915z"/>
	<path style="fill:#FFEC8D;" d="M306.79,541.648c-0.92,0.799-2.004,1.439-3.23,1.854c-4.114,1.398-8.512-0.136-10.935-3.479
		c-0.852,1.857-2.434,3.375-4.52,4.083c-2.944,1.003-6.067,0.1-8.07-2.027l-8.122,2.006l1.83,7.411l4.068-1.003l15.999-3.952
		c0.039-0.01,14.004-3.458,14.004-3.458C307.429,542.629,307.088,542.149,306.79,541.648z"/>
	<path style="fill:#EFD567;" d="M394.813,513.741l-11.896,2.938c-1.992,2.411-5.181,3.422-8.147,2.673
		c0.454,1.644,0.258,3.449-0.7,5.019c-1.834,3.026-5.774,3.981-8.802,2.148c-0.98-0.598-1.719-1.433-2.241-2.37
		c-2.114,0.775-4.507,0.599-6.536-0.594c-0.385,1.032-0.931,2.025-1.647,2.939c-2.923,3.711-7.768,5.009-12.012,3.609
		c-0.235,0.342-0.482,0.677-0.752,1.001c-1.904,2.283-4.403,3.767-7.081,4.43l0.194,0.788l13.201-3.261
		c0.039-0.007,12.664-3.125,12.664-3.125l15.529-3.834l16-3.951l4.055-1.002L394.813,513.741z"/>
	<path style="fill:#E8CD58;" d="M288.105,544.106c2.086-0.708,3.668-2.227,4.52-4.083c2.423,3.343,6.821,4.877,10.935,3.479
		c1.226-0.415,2.309-1.056,3.23-1.854c-2.016-3.388-2.031-7.696,0.12-11.13c-1.407-0.574-2.751-1.369-3.981-2.393
		c-0.546-0.454-1.037-0.951-1.502-1.46c-0.998,3.233-3.47,5.961-6.92,7.134c-4.614,1.565-9.548-0.128-12.299-3.848
		c-3.396,1.693-5.121,5.65-3.866,9.336c0.366,1.081,0.96,2.014,1.694,2.792C282.039,544.206,285.161,545.109,288.105,544.106z"/>
	<path style="fill:#FFEC8D;" d="M294.506,533.799c3.45-1.173,5.923-3.9,6.92-7.134c-3.014-3.308-4.34-7.683-3.855-11.936
		c-2.789-2.098-6.533-2.829-10.09-1.621c-5.715,1.936-8.771,8.143-6.838,13.854c0.372,1.103,0.909,2.101,1.564,2.989
		C284.958,533.671,289.892,535.364,294.506,533.799z"/>
	<path style="fill:#E8CD58;" d="M311.306,501.343c0.043-0.293,0.144-0.578,0.215-0.867c-1.058-0.494-2.041-1.138-2.919-1.917
		c-0.484,0.75-0.875,1.556-1.138,2.411c-2.006-2.114-5.128-2.999-8.064-2.002c-4.026,1.362-6.187,5.74-4.822,9.772
		c0.611,1.797,1.835,3.189,3.342,4.093c0.532-2.167,1.534-4.254,3.057-6.085C303.67,503.516,307.422,501.686,311.306,501.343z"/>
	<path style="fill:#FFEC8D;" d="M313.744,496.232c0.682-0.742,1.459-1.34,2.288-1.818c-0.622-2.887,0.05-6.014,2.144-8.406
		c2.201-2.521,5.422-3.605,8.515-3.21c-2.968-4.444-8.642-6.536-13.938-4.74c-6.329,2.151-9.717,9.02-7.571,15.351
		c0.697,2.061,1.903,3.803,3.422,5.15c0.878,0.779,1.861,1.423,2.919,1.917C311.895,498.945,312.603,497.475,313.744,496.232z"/>
	<path style="fill:#E8CD58;" d="M373.526,511.96c-1.428,1.902-3.466,3.059-5.638,3.455c0.433,2.14-0.008,4.44-1.464,6.292
		c-0.913,1.162-2.103,1.967-3.398,2.442c0.522,0.938,1.261,1.772,2.241,2.37c3.028,1.833,6.968,0.878,8.802-2.148
		c0.958-1.57,1.154-3.375,0.7-5.019c2.967,0.749,6.155-0.262,8.147-2.673c0.247-0.3,0.482-0.61,0.689-0.952
		c2.306-3.792,1.091-8.734-2.7-11.037c-1.875-1.143-4.031-1.418-6.013-0.954C375.759,506.444,375.364,509.511,373.526,511.96z"/>
	<path style="fill:#FFEC8D;" d="M359.252,509.328c2.017-0.298,4.151,0.196,5.881,1.56c1.497,1.175,2.405,2.8,2.755,4.527
		c2.171-0.396,4.21-1.553,5.638-3.455c1.838-2.449,2.233-5.516,1.368-8.225c-0.554-1.733-1.613-3.32-3.176-4.496
		c-4.017-3.015-9.713-2.206-12.729,1.809c-0.086,0.116-0.139,0.245-0.219,0.364C360.036,503.848,360.244,506.732,359.252,509.328z"
		/>
	<path style="fill:#E8CD58;" d="M324.201,543.029c1.132-1.36,1.854-2.921,2.209-4.538c0.258-1.179,0.326-2.387,0.187-3.576
		c2.689,1.118,5.64,1.305,8.401,0.62c2.678-0.663,5.177-2.147,7.081-4.43c0.27-0.324,0.517-0.659,0.752-1.001
		c-1.176-0.387-2.307-0.97-3.335-1.778c-3.043-2.395-4.461-6.084-4.107-9.673c-2.631,0.238-5.338-0.462-7.567-2.145
		c-0.009,3.412-1.159,6.84-3.511,9.667c-4.342,5.211-11.439,6.775-17.401,4.342c-2.151,3.434-2.136,7.742-0.12,11.13
		c0.298,0.502,0.639,0.981,1.024,1.435c0.286,0.338,0.598,0.66,0.932,0.966c0.127,0.117,0.249,0.242,0.383,0.354
		c4.203,3.5,10.281,3.226,14.163-0.422C323.63,543.663,323.925,543.359,324.201,543.029z"/>
	<path style="fill:#FFEC8D;" d="M301.426,526.665c0.466,0.509,0.956,1.006,1.502,1.46c1.23,1.023,2.575,1.818,3.981,2.393
		c5.963,2.434,13.059,0.869,17.401-4.342c2.352-2.827,3.503-6.255,3.511-9.667c-0.28-0.211-0.553-0.434-0.816-0.676
		c-1.262-1.159-2.177-2.551-2.765-4.046c-3.297,1.23-7.14,0.647-9.908-1.895c-2.455-2.253-3.481-5.483-3.028-8.55
		c-3.884,0.344-7.636,2.173-10.329,5.405c-1.523,1.831-2.525,3.918-3.057,6.085c-0.154,0.629-0.276,1.259-0.349,1.896
		C297.086,518.982,298.413,523.357,301.426,526.665z"/>
	<path style="fill:#E8CD58;" d="M347.321,504.252c-0.639,0.731-1.359,1.343-2.128,1.86c0.14,0.911,0.16,1.835,0.068,2.754
		c2.685-0.245,5.464,0.485,7.75,2.282c3.828,3.017,5.093,8.072,3.479,12.407c2.029,1.192,4.421,1.369,6.536,0.594
		c1.295-0.476,2.485-1.28,3.398-2.442c1.457-1.852,1.897-4.152,1.464-6.292c-0.35-1.727-1.258-3.352-2.755-4.527
		c-1.73-1.363-3.864-1.857-5.881-1.56c0.992-2.596,0.784-5.48-0.482-7.916c-0.614-1.184-1.457-2.268-2.57-3.148
		c-1.841-1.449-4.042-2.077-6.215-2.021C350.197,499.061,349.328,501.958,347.321,504.252z"/>
	<path style="fill:#FFEC8D;" d="M353.012,511.148c-2.286-1.797-5.065-2.527-7.75-2.282c-0.224,2.271-1.149,4.495-2.814,6.31
		c-1.911,2.083-4.447,3.24-7.059,3.478c-0.354,3.589,1.064,7.277,4.107,9.673c1.028,0.809,2.16,1.392,3.335,1.778
		c4.244,1.399,9.089,0.102,12.012-3.609c0.716-0.914,1.262-1.907,1.647-2.939C358.104,519.221,356.839,514.165,353.012,511.148z"/>
	<path style="fill:#E8CD58;" d="M325.143,501.989c-2.16-0.066-4.31-0.809-6.06-2.341c-1.626-1.424-2.628-3.273-3.051-5.234
		c-0.829,0.479-1.606,1.076-2.288,1.818c-1.14,1.242-1.849,2.713-2.222,4.243c-0.071,0.289-0.172,0.574-0.215,0.867
		c-0.453,3.066,0.573,6.297,3.028,8.55c2.768,2.542,6.61,3.125,9.908,1.895C322.994,508.614,323.274,504.966,325.143,501.989z"/>
	<path style="fill:#FFEC8D;" d="M345.262,508.866c0.092-0.919,0.072-1.843-0.068-2.754c-4.012,2.704-9.481,2.505-13.296-0.827
		c-1.289-1.128-2.238-2.498-2.861-3.98c-1.246,0.498-2.565,0.726-3.894,0.685c-1.868,2.977-2.148,6.625-0.901,9.798
		c0.587,1.495,1.503,2.887,2.765,4.046c0.264,0.242,0.537,0.465,0.816,0.676c2.229,1.683,4.936,2.383,7.567,2.145
		c2.612-0.237,5.148-1.395,7.059-3.478C344.112,513.361,345.038,511.138,345.262,508.866z"/>
	<path style="fill:#E8CD58;" d="M318.176,486.008c-2.094,2.393-2.766,5.52-2.144,8.406c0.423,1.961,1.426,3.811,3.051,5.234
		c1.75,1.532,3.9,2.275,6.06,2.341c1.329,0.041,2.648-0.187,3.894-0.685c-1.57-3.731-1.011-8.189,1.83-11.439
		c3.211-3.671,8.333-4.671,12.578-2.83c2.088-3.168,1.598-7.452-1.333-10.024c-3.201-2.797-8.067-2.476-10.868,0.728
		c-1.452,1.658-2.053,3.766-1.861,5.794c-0.865-0.384-1.773-0.616-2.691-0.734C323.598,482.402,320.376,483.487,318.176,486.008z"/>
	<path style="fill:#FFEC8D;" d="M330.866,489.865c-2.841,3.25-3.399,7.708-1.83,11.439c0.624,1.482,1.572,2.853,2.861,3.98
		c3.815,3.332,9.284,3.531,13.296,0.827c0.768-0.518,1.488-1.129,2.128-1.86c2.006-2.294,2.876-5.191,2.665-8.009
		c-0.207-2.759-1.451-5.443-3.696-7.411c-0.873-0.764-1.834-1.359-2.845-1.797C339.199,485.194,334.078,486.194,330.866,489.865z"/>
	<path style="fill:#053033;" d="M164.237,625.535c-19.47,4.43-38.702,10.431-52.258,27.692l6.497,5.11
		c13.757-17.512,35.377-22.152,56.287-26.646c8.853-1.905,17.768-4.125,26.194-7.18
		C188.729,628.321,176.057,628.497,164.237,625.535z"/>
	<path style="fill:#EA4747;" d="M152.727,497.184c-34.344,15.481-49.637,55.871-34.153,90.22
		c8.921,19.789,26.121,33.236,45.663,38.132c11.82,2.962,24.492,2.786,36.719-1.023c2.638-0.82,5.256-1.79,7.838-2.954
		c34.344-15.482,49.639-55.878,34.155-90.225C227.466,496.986,187.074,481.701,152.727,497.184z M177.787,501.091
		c8.839-3.983,19.245-0.045,23.231,8.8c3.982,8.832,0.046,19.243-8.795,23.224c-8.845,3.986-19.238,0.05-23.226-8.788
		C165.007,515.474,168.942,505.078,177.787,501.091z M193.487,563.96c-1.911,0.862-4.164,0.011-5.025-1.909
		c-0.864-1.908-0.01-4.16,1.902-5.021c1.914-0.871,4.165-0.012,5.027,1.898C196.255,560.845,195.404,563.095,193.487,563.96z
		 M187.593,566.521c1.703,1.22,2.093,3.599,0.871,5.3c-1.233,1.703-3.608,2.091-5.31,0.863c-1.706-1.225-2.09-3.601-0.869-5.309
		C183.513,565.674,185.89,565.287,187.593,566.521z M183.536,549.884c0.21-2.088,2.064-3.614,4.156-3.401
		c2.092,0.205,3.613,2.075,3.405,4.162c-0.21,2.084-2.079,3.609-4.161,3.399C184.846,553.829,183.327,551.971,183.536,549.884z
		 M173.929,552.221c-1.703-1.219-2.087-3.596-0.864-5.296c1.227-1.706,3.603-2.095,5.305-0.866c1.705,1.216,2.094,3.604,0.869,5.305
		C178.008,553.066,175.635,553.453,173.929,552.221z M177.983,568.858c-0.202,2.084-2.068,3.614-4.155,3.402
		c-2.091-0.207-3.618-2.074-3.404-4.165c0.21-2.082,2.072-3.607,4.166-3.401C176.681,564.906,178.199,566.773,177.983,568.858z
		 M168.038,554.781c1.911-0.862,4.166-0.008,5.029,1.907c0.862,1.915,0.008,4.168-1.902,5.029c-1.915,0.862-4.167,0.013-5.033-1.902
		C165.27,557.898,166.119,555.646,168.038,554.781z M128.8,532.805c0.972-9.649,9.583-16.686,19.231-15.717
		c9.651,0.965,16.695,9.573,15.722,19.231c-0.97,9.646-9.581,16.691-19.227,15.72C134.869,551.067,127.831,542.456,128.8,532.805z
		 M131.774,591.088c-7.874-5.673-9.668-16.649-3.993-24.519c5.663-7.867,16.631-9.666,24.51-4.002
		c7.876,5.667,9.664,16.647,3.998,24.523C150.626,594.962,139.651,596.753,131.774,591.088z M169.297,585.622
		c8.842-3.979,19.241-0.053,23.23,8.8c3.985,8.839,0.051,19.241-8.798,23.229c-8.846,3.988-19.24,0.048-23.228-8.792
		C156.519,600.012,160.455,589.616,169.297,585.622z M232.715,585.933c-0.97,9.659-9.576,16.689-19.229,15.727
		c-9.649-0.972-16.687-9.586-15.722-19.228c0.97-9.659,9.574-16.701,19.23-15.723C226.646,567.674,233.691,576.286,232.715,585.933z
		 M233.744,552.176c-5.666,7.872-16.64,9.663-24.514,3.995c-7.879-5.669-9.664-16.643-4.002-24.514
		c5.667-7.87,16.638-9.669,24.515-4.004C237.621,533.325,239.411,544.297,233.744,552.176z"/>
	<path style="fill:#FFEC8D;" d="M183.729,617.65c8.85-3.987,12.784-14.39,8.798-23.229c-3.99-8.853-14.389-12.779-23.23-8.8
		c-8.842,3.994-12.778,14.39-8.796,23.236C164.489,617.698,174.883,621.639,183.729,617.65z"/>
	<path style="fill:#FFEC8D;" d="M152.292,562.567c-7.879-5.664-18.848-3.865-24.51,4.002c-5.675,7.869-3.882,18.846,3.993,24.519
		c7.878,5.665,18.852,3.874,24.516-3.997C161.955,579.214,160.167,568.234,152.292,562.567z"/>
	<path style="fill:#FFEC8D;" d="M144.525,552.038c9.646,0.972,18.257-6.073,19.227-15.72c0.973-9.657-6.07-18.266-15.722-19.231
		c-9.648-0.97-18.258,6.067-19.231,15.717C127.831,542.456,134.869,551.067,144.525,552.038z"/>
	<path style="fill:#FFEC8D;" d="M192.223,533.114c8.841-3.981,12.777-14.392,8.795-23.224c-3.986-8.845-14.392-12.783-23.231-8.8
		c-8.844,3.987-12.78,14.383-8.79,23.235C172.984,533.164,183.378,537.101,192.223,533.114z"/>
	<path style="fill:#FFEC8D;" d="M229.743,527.653c-7.876-5.665-18.848-3.866-24.515,4.004c-5.662,7.871-3.877,18.845,4.002,24.514
		c7.874,5.668,18.848,3.877,24.514-3.995C239.411,544.297,237.621,533.325,229.743,527.653z"/>
	<path style="fill:#FFEC8D;" d="M216.995,566.709c-9.656-0.978-18.26,6.064-19.23,15.723c-0.965,9.642,6.073,18.256,15.722,19.228
		c9.652,0.963,18.258-6.067,19.229-15.727C233.691,576.286,226.646,567.674,216.995,566.709z"/>
	<path style="fill:#FFEC8D;" d="M190.364,557.029c-1.913,0.861-2.767,3.113-1.902,5.021c0.861,1.92,3.114,2.772,5.025,1.909
		c1.917-0.865,2.769-3.115,1.904-5.033C194.529,557.018,192.278,556.158,190.364,557.029z"/>
	<path style="fill:#FFEC8D;" d="M182.285,567.375c-1.222,1.708-0.837,4.084,0.869,5.309c1.702,1.227,4.077,0.84,5.31-0.863
		c1.222-1.701,0.832-4.08-0.871-5.3C185.89,565.287,183.513,565.674,182.285,567.375z"/>
	<path style="fill:#FFEC8D;" d="M170.425,568.096c-0.214,2.091,1.313,3.958,3.404,4.165c2.087,0.212,3.953-1.318,4.155-3.402
		c0.215-2.086-1.303-3.952-3.393-4.164C172.497,564.488,170.635,566.014,170.425,568.096z"/>
	<path style="fill:#FFEC8D;" d="M171.164,561.718c1.91-0.861,2.765-3.114,1.902-5.029c-0.863-1.915-3.118-2.77-5.029-1.907
		c-1.918,0.864-2.768,3.117-1.907,5.034C166.997,561.731,169.25,562.58,171.164,561.718z"/>
	<path style="fill:#FFEC8D;" d="M179.239,551.363c1.225-1.701,0.836-4.089-0.869-5.305c-1.702-1.229-4.078-0.84-5.305,0.866
		c-1.224,1.7-0.839,4.077,0.864,5.296C175.635,553.453,178.008,553.066,179.239,551.363z"/>
	<path style="fill:#FFEC8D;" d="M191.097,550.644c0.208-2.087-1.313-3.957-3.405-4.162c-2.091-0.213-3.946,1.313-4.156,3.401
		c-0.208,2.087,1.311,3.945,3.4,4.16C189.018,554.254,190.887,552.729,191.097,550.644z"/>
	<path style="fill:#053033;" d="M643.225,369.93c8.428,3.055,17.342,5.273,26.195,7.179c20.91,4.493,42.529,9.134,56.286,26.645
		l6.499-5.109c-13.557-17.262-32.79-23.263-52.26-27.693C668.125,373.914,655.453,373.737,643.225,369.93z"/>
	<path style="fill:#EA4747;" d="M601.231,276.751c-15.482,34.346-0.188,74.742,34.156,90.224c2.583,1.165,5.201,2.133,7.837,2.955
		c12.228,3.807,24.9,3.983,36.721,1.021c19.542-4.895,36.743-18.341,45.663-38.132c15.484-34.349,0.191-74.738-34.152-90.22
		C657.109,227.118,616.717,242.403,601.231,276.751z M611.467,331.349c-0.976-9.646,6.069-18.258,15.721-19.224
		c9.654-0.978,18.259,6.064,19.229,15.724c0.967,9.641-6.072,18.254-15.72,19.227C621.043,348.039,612.435,341.01,611.467,331.349z
		 M657.245,299.461c-2.08,0.209-3.95-1.316-4.161-3.399c-0.207-2.087,1.314-3.958,3.407-4.162c2.09-0.214,3.945,1.313,4.156,3.402
		C660.854,297.389,659.336,299.247,657.245,299.461z M661.898,312.793c1.22,1.707,0.836,4.084-0.871,5.309
		c-1.701,1.226-4.076,0.839-5.31-0.864c-1.221-1.701-0.831-4.08,0.87-5.3C658.293,310.704,660.668,311.091,661.898,312.793z
		 M653.819,302.447c1.912,0.862,2.765,3.113,1.901,5.022c-0.86,1.919-3.113,2.77-5.025,1.908c-1.917-0.865-2.77-3.115-1.903-5.034
		C649.654,302.434,651.904,301.576,653.819,302.447z M683.683,354.275c-3.989,8.84-14.384,12.78-23.229,8.793
		c-8.851-3.988-12.783-14.391-8.801-23.23c3.992-8.852,14.392-12.778,23.232-8.8C683.727,335.033,687.662,345.429,683.683,354.275z
		 M664.941,296.78c-1.222-1.701-0.834-4.089,0.871-5.305c1.701-1.228,4.076-0.839,5.304,0.867c1.226,1.7,0.84,4.077-0.864,5.295
		C668.547,298.87,666.174,298.483,664.941,296.78z M673.757,313.513c0.214,2.091-1.311,3.958-3.403,4.165
		c-2.088,0.213-3.953-1.318-4.154-3.403c-0.216-2.085,1.304-3.951,3.393-4.164C671.686,309.906,673.546,311.432,673.757,313.513z
		 M712.407,336.505c-7.877,5.666-18.851,3.874-24.515-3.996c-5.664-7.878-3.878-18.857,3.999-24.524
		c7.877-5.664,18.847-3.866,24.51,4.001C722.076,319.856,720.283,330.832,712.407,336.505z M696.151,262.504
		c9.647-0.969,18.258,6.067,19.231,15.717c0.969,9.652-6.07,18.263-15.725,19.234c-9.647,0.971-18.259-6.074-19.229-15.72
		C679.456,272.078,686.499,263.47,696.151,262.504z M678.051,305.232c-0.864,1.915-3.117,2.765-5.032,1.902
		c-1.911-0.862-2.767-3.115-1.902-5.029c0.863-1.916,3.116-2.769,5.028-1.907C678.065,301.063,678.912,303.315,678.051,305.232z
		 M643.165,255.308c3.986-8.844,14.39-12.784,23.232-8.799c8.844,3.986,12.778,14.383,8.79,23.234
		c-3.989,8.838-14.382,12.775-23.226,8.789C643.12,274.551,639.181,264.141,643.165,255.308z M638.954,277.075
		c5.661,7.871,3.875,18.844-4.002,24.513c-7.874,5.668-18.847,3.877-24.514-3.996c-5.666-7.878-3.876-18.851,4.002-24.522
		C622.316,267.406,633.287,269.204,638.954,277.075z"/>
	<path style="fill:#FFEC8D;" d="M674.886,331.039c-8.841-3.979-19.24-0.052-23.232,8.8c-3.982,8.839-0.05,19.242,8.801,23.23
		c8.845,3.987,19.239,0.047,23.229-8.793C687.662,345.429,683.727,335.033,674.886,331.039z"/>
	<path style="fill:#FFEC8D;" d="M691.892,307.985c-7.877,5.667-9.663,16.646-3.999,24.524c5.664,7.87,16.638,9.662,24.515,3.996
		c7.876-5.673,9.669-16.648,3.994-24.519C710.738,304.119,699.769,302.321,691.892,307.985z"/>
	<path style="fill:#FFEC8D;" d="M699.658,297.456c9.654-0.971,16.693-9.582,15.725-19.234c-0.974-9.65-9.585-16.687-19.231-15.717
		c-9.652,0.966-16.695,9.574-15.722,19.231C681.399,291.382,690.012,298.426,699.658,297.456z"/>
	<path style="fill:#FFEC8D;" d="M651.96,278.531c8.845,3.986,19.237,0.05,23.226-8.789c3.988-8.852,0.054-19.248-8.79-23.234
		c-8.842-3.984-19.245-0.045-23.232,8.799C639.181,264.141,643.12,274.551,651.96,278.531z"/>
	<path style="fill:#FFEC8D;" d="M610.438,297.592c5.667,7.873,16.64,9.664,24.514,3.996c7.877-5.669,9.663-16.643,4.002-24.513
		c-5.667-7.871-16.638-9.669-24.514-4.005C606.563,278.741,604.772,289.714,610.438,297.592z"/>
	<path style="fill:#FFEC8D;" d="M630.696,347.077c9.648-0.973,16.687-9.586,15.72-19.227c-0.97-9.66-9.574-16.702-19.229-15.724
		c-9.651,0.966-16.696,9.578-15.721,19.224C612.435,341.01,621.043,348.039,630.696,347.077z"/>
	<path style="fill:#FFEC8D;" d="M648.792,304.343c-0.866,1.919-0.014,4.169,1.903,5.034c1.912,0.862,4.165,0.011,5.025-1.908
		c0.863-1.909,0.011-4.16-1.901-5.022C651.904,301.576,649.654,302.434,648.792,304.343z"/>
	<path style="fill:#FFEC8D;" d="M656.588,311.938c-1.701,1.22-2.091,3.599-0.87,5.3c1.233,1.704,3.608,2.09,5.31,0.864
		c1.707-1.225,2.091-3.602,0.871-5.309C660.668,311.091,658.293,310.704,656.588,311.938z"/>
	<path style="fill:#FFEC8D;" d="M666.199,314.275c0.201,2.085,2.066,3.616,4.154,3.403c2.092-0.207,3.617-2.074,3.403-4.165
		c-0.211-2.081-2.07-3.607-4.165-3.401C667.503,310.324,665.983,312.19,666.199,314.275z"/>
	<path style="fill:#FFEC8D;" d="M671.116,302.106c-0.864,1.914-0.009,4.167,1.902,5.029c1.915,0.862,4.168,0.012,5.032-1.902
		c0.861-1.917,0.014-4.17-1.906-5.034C674.232,299.337,671.979,300.19,671.116,302.106z"/>
	<path style="fill:#FFEC8D;" d="M671.116,292.342c-1.228-1.707-3.603-2.096-5.304-0.867c-1.705,1.216-2.093,3.604-0.871,5.305
		c1.232,1.703,3.605,2.09,5.311,0.857C671.956,296.419,672.342,294.043,671.116,292.342z"/>
	<path style="fill:#FFEC8D;" d="M656.491,291.9c-2.093,0.204-3.614,2.075-3.407,4.162c0.211,2.083,2.081,3.608,4.161,3.399
		c2.091-0.214,3.609-2.073,3.402-4.16C660.436,293.213,658.581,291.686,656.491,291.9z"/>
	<polygon style="fill:#053033;" points="91.913,443.746 105.141,441.659 75.023,410.911 61.797,412.998 	"/>
	<polygon style="fill:#053033;" points="30.305,417.966 17.08,420.053 1.793,450.744 1.793,457.964 11.117,456.493 	"/>
	<path style="fill:#EA4747;" d="M88.596,336.796c-4.325,2.441-9.149,4.168-14.344,4.988c-13.438,2.121-26.393-2.277-35.671-10.841
		l-19.415,3.064c-3.178,7.947-9.358,14.494-17.374,18.043v27.555l91.285-14.404L88.596,336.796z"/>
	<path style="fill:#B7041E;" d="M30.305,417.966l31.492-4.968l13.226-2.087l24.653-3.889l-6.599-41.822L1.793,379.604v42.86
		l15.288-2.412L30.305,417.966z M13.967,397.867l57.19-9.021l1.545,9.799l-57.188,9.027L13.967,397.867z"/>
	<path style="fill:#FFEC8D;" d="M102.336,352.317l-6.169,12.383c0.021,0.009,5.944-0.924,7.535-1.175l0.396-0.062L102.336,352.317z"
		/>
	<path style="fill:#053033;" d="M104.098,363.463l-0.396,0.062l-7.51,1.186c-0.02,0.019,9.663,9.905,9.663,9.905L104.098,363.463z"
		/>
	<polygon style="fill:#FFEC8D;" points="119.788,360.988 114.553,327.79 108.384,340.17 111.863,362.238 	"/>
	<polygon style="fill:#053033;" points="115.348,384.308 125.027,394.187 119.788,360.988 111.863,362.238 	"/>
	<polygon style="fill:#EA4747;" points="111.863,362.238 108.384,340.17 102.336,352.317 104.098,363.463 	"/>
	<polygon style="fill:#B7041E;" points="104.098,363.463 105.854,374.616 115.348,384.308 111.863,362.238 	"/>
	<path style="fill:#4EA8C4;" d="M19.166,334.007c2.145-5.364,2.951-11.342,1.985-17.463c-1.824-11.553-9.411-20.745-19.359-25.161
		v5.002c1.241,1.234,2.13,2.841,2.422,4.702c0.446,2.813-0.552,5.506-2.422,7.375v5.167c0.451-0.648,0.963-1.262,1.606-1.784
		c3.673-2.968,9.054-2.397,12.024,1.274c2.972,3.674,2.399,9.055-1.272,12.022c-3.671,2.975-9.05,2.407-12.02-1.264
		c-0.132-0.164-0.22-0.348-0.339-0.518v5.938c0.878,0.045,1.764,0.186,2.629,0.519c4.41,1.692,6.607,6.64,4.913,11.049
		c-1.25,3.255-4.273,5.288-7.543,5.457v5.727C9.808,348.501,15.988,341.955,19.166,334.007z"/>
	<path style="fill:#FFEC8D;" d="M4.214,301.087c-0.292-1.861-1.181-3.468-2.422-4.702v12.077
		C3.662,306.594,4.66,303.9,4.214,301.087z"/>
	<path style="fill:#FFEC8D;" d="M14.151,325.142c3.671-2.966,4.244-8.348,1.272-12.022c-2.97-3.672-8.351-4.242-12.024-1.274
		c-0.644,0.522-1.156,1.136-1.606,1.784v9.73c0.119,0.17,0.206,0.354,0.339,0.518C5.101,327.548,10.48,328.117,14.151,325.142z"/>
	<path style="fill:#FFEC8D;" d="M9.335,340.866c1.694-4.409-0.503-9.357-4.913-11.049c-0.866-0.333-1.751-0.474-2.629-0.519v17.025
		C5.062,346.153,8.085,344.121,9.335,340.866z"/>
	<path style="fill:#4EA8C4;" d="M74.252,341.785c5.195-0.82,10.019-2.547,14.344-4.988c15.099-8.52,24.089-25.781,21.23-43.91
		c-3.68-23.326-25.574-39.248-48.9-35.567c-23.324,3.68-39.249,25.574-35.571,48.895c1.562,9.884,6.4,18.431,13.226,24.729
		C47.859,339.507,60.814,343.905,74.252,341.785z M94.607,324.202c-2.185,5.682-8.546,8.507-14.225,6.329
		c-5.672-2.185-8.503-8.558-6.324-14.232c2.184-5.67,8.549-8.502,14.224-6.324C93.96,312.159,96.789,318.526,94.607,324.202z
		 M102.451,288.476c3.821,4.735,3.091,11.664-1.635,15.489c-4.729,3.819-11.663,3.086-15.486-1.637
		c-3.821-4.734-3.09-11.662,1.634-15.488C91.692,283.02,98.622,283.749,102.451,288.476z M75.432,263.822
		c6.005-0.943,11.637,3.155,12.587,9.164c0.95,6.004-3.154,11.642-9.157,12.589c-6.007,0.948-11.641-3.155-12.587-9.158
		C65.327,270.407,69.425,264.775,75.432,263.822z M40.573,274.902c2.18-5.681,8.554-8.507,14.225-6.324
		c5.675,2.179,8.505,8.546,6.325,14.228c-2.185,5.668-8.551,8.501-14.228,6.322C41.219,286.94,38.391,280.572,40.573,274.902z
		 M32.729,310.626c-3.822-4.733-3.093-11.662,1.638-15.489c4.729-3.821,11.654-3.09,15.484,1.638
		c3.827,4.728,3.09,11.665-1.64,15.489C43.485,316.082,36.557,315.35,32.729,310.626z M59.749,335.276
		c-6.002,0.947-11.64-3.147-12.588-9.158c-0.947-6.003,3.154-11.642,9.158-12.589c6.005-0.947,11.64,3.148,12.594,9.156
		C69.855,328.697,65.756,334.328,59.749,335.276z"/>
	<path style="fill:#FFEC8D;" d="M68.913,322.685c-0.954-6.008-6.588-10.104-12.594-9.156c-6.004,0.947-10.105,6.586-9.158,12.589
		c0.948,6.011,6.586,10.105,12.588,9.158C65.756,334.328,69.855,328.697,68.913,322.685z"/>
	<path style="fill:#FFEC8D;" d="M48.211,312.264c4.73-3.824,5.467-10.761,1.64-15.489c-3.83-4.727-10.755-5.458-15.484-1.638
		c-4.73,3.827-5.459,10.755-1.638,15.489C36.557,315.35,43.485,316.082,48.211,312.264z"/>
	<path style="fill:#FFEC8D;" d="M46.896,289.128c5.676,2.179,12.042-0.653,14.228-6.322c2.18-5.682-0.65-12.049-6.325-14.228
		c-5.671-2.184-12.045,0.643-14.225,6.324C38.391,280.572,41.219,286.94,46.896,289.128z"/>
	<path style="fill:#FFEC8D;" d="M78.863,285.576c6.002-0.947,10.107-6.586,9.157-12.589c-0.951-6.009-6.582-10.107-12.587-9.164
		c-6.007,0.953-10.105,6.584-9.157,12.596C67.222,282.42,72.855,286.524,78.863,285.576z"/>
	<path style="fill:#FFEC8D;" d="M85.33,302.328c3.824,4.724,10.757,5.456,15.486,1.637c4.726-3.824,5.456-10.754,1.635-15.489
		c-3.829-4.727-10.759-5.457-15.487-1.636C82.24,290.665,81.509,297.594,85.33,302.328z"/>
	<path style="fill:#FFEC8D;" d="M88.282,309.976c-5.674-2.179-12.039,0.653-14.224,6.324c-2.179,5.673,0.652,12.047,6.324,14.232
		c5.678,2.178,12.04-0.647,14.225-6.329C96.789,318.526,93.96,312.159,88.282,309.976z"/>
	
		<rect x="14.387" y="393.296" transform="matrix(0.9878 -0.1557 0.1557 0.9878 -61.4991 11.6093)" style="fill:#053033;" width="57.896" height="9.923"/>
	<path style="fill:#EA4747;" d="M118.112,208.212c2.902,2.903,2.902,7.607-0.007,10.509l4.336,4.339c2.901-2.91,7.617-2.91,10.516,0
		c2.899,2.902,2.903,7.614,0,10.517l4.331,4.324c2.904-2.902,7.614-2.902,10.52,0c2.904,2.908,2.904,7.622,0,10.523l4.335,4.338
		c9.635-9.629,25.251-9.629,34.88,0l24.807-24.806l-5.898-5.898l3.638-3.639l5.899,5.897l-2.929,2.93l69.595-69.594
		c-9.637-9.635-9.629-25.247,0.001-34.882l-4.336-4.338c-2.908,2.896-7.616,2.896-10.52-0.007
		c-2.901-2.902-2.901-7.615,0.002-10.509l-4.334-4.338c-2.901,2.902-7.618,2.902-10.518,0c-2.902-2.901-2.904-7.615,0.002-10.517
		l-4.333-4.337c-2.907,2.908-7.612,2.908-10.512,0c-2.909-2.902-2.909-7.608-0.004-10.509l-4.342-4.338
		c-9.63,9.635-25.247,9.635-34.88,0l-66.665,66.67l5.891,5.892l-3.637,3.644l-5.892-5.897l-24.806,24.807
		c9.631,9.629,9.632,25.24-0.001,34.875l4.34,4.345C110.498,205.303,115.201,205.303,118.112,208.212z M187.618,137.704
		l15.533,7.912l12.329-12.329l-2.727,17.225l15.533,7.91l-17.219,2.733l-2.725,17.21l-7.916-15.531l-17.22,2.73l12.326-12.327
		L187.618,137.704z M187.317,196.167l5.903,5.897l-3.64,3.646l-5.899-5.904L187.317,196.167z M200.703,216.833l-5.895-5.897
		l3.64-3.64l5.896,5.897L200.703,216.833z M209.232,94.919l51.863,51.867l-56.952,56.95l-3.64-3.633l53.311-53.317l-44.583-44.589
		l-53.315,53.31l-3.64-3.639L209.232,94.919z M182.09,190.935l-3.64,3.646l-5.895-5.897l3.637-3.639L182.09,190.935z
		 M170.967,179.818l-3.639,3.635l-5.899-5.891l3.641-3.646L170.967,179.818z M153.943,162.794l5.895,5.897l-3.636,3.64l-5.899-5.898
		L153.943,162.794z M142.82,151.67l5.898,5.897l-3.639,3.64l-5.895-5.904L142.82,151.67z M139.235,164.905l3.641,3.64
		l-11.304,11.307l44.59,44.584l11.306-11.301l3.637,3.64l-14.941,14.945l-51.874-51.869L139.235,164.905z"/>
	<polygon style="fill:#FFEC8D;" points="209.232,102.197 253.815,146.786 200.504,200.104 204.144,203.736 261.095,146.786 
		209.232,94.919 152.277,151.868 155.917,155.507 	"/>
	<polygon style="fill:#FFEC8D;" points="191.105,216.775 187.468,213.135 176.162,224.436 131.572,179.852 142.876,168.545 
		139.235,164.905 124.29,179.852 176.164,231.72 	"/>
	<path style="fill:#FFEC8D;" d="M137.588,146.439l-5.891-5.892c-0.004-0.004-3.644,3.633-3.644,3.633
		c0.006,0.006,5.897,5.904,5.897,5.904L137.588,146.439z"/>
	<polygon style="fill:#FFEC8D;" points="209.569,218.42 205.931,222.059 211.83,227.957 212.54,227.247 215.469,224.317 	"/>
	
		<rect x="197.001" y="207.896" transform="matrix(0.7072 -0.707 0.707 0.7072 -91.4968 203.1841)" style="fill:#FFEC8D;" width="5.148" height="8.338"/>
	
		<rect x="185.876" y="196.765" transform="matrix(0.7068 -0.7075 0.7075 0.7068 -86.893 192.2451)" style="fill:#FFEC8D;" width="5.148" height="8.345"/>
	
		<rect x="174.748" y="185.643" transform="matrix(0.7065 -0.7077 0.7077 0.7065 -82.288 181.2067)" style="fill:#FFEC8D;" width="5.148" height="8.336"/>
	<polygon style="fill:#FFEC8D;" points="167.328,183.453 170.967,179.818 165.069,173.916 161.429,177.562 	"/>
	
		<rect x="152.499" y="163.391" transform="matrix(0.7072 -0.707 0.707 0.7072 -73.0634 158.7025)" style="fill:#FFEC8D;" width="5.146" height="8.34"/>
	
		<rect x="141.378" y="152.266" transform="matrix(0.7071 -0.7071 0.7071 0.7071 -68.4557 147.6162)" style="fill:#FFEC8D;" width="5.143" height="8.341"/>
	<polygon style="fill:#FFEC8D;" points="200.426,162.833 208.342,178.365 211.067,161.155 228.286,158.422 212.753,150.512 
		215.48,133.287 203.151,145.616 187.618,137.704 195.532,153.236 183.207,165.563 	"/>
	<path style="fill:#E8CD58;" d="M722.08,15.646l3.528-2.569c-1.723-2.363-1.204-5.668,1.163-7.39
		c2.359-1.719,5.666-1.199,7.382,1.167l3.528-2.567c-0.554-0.76-0.852-1.62-0.956-2.493h-46.432l7.284,10.002
		C705.407,6.09,716.374,7.815,722.08,15.646z"/>
	<path style="fill:#4EA8C4;" d="M273.64,330.505c-10.79-0.046-21.907-3.906-32.781-13.303c-1.097-0.948-2.22-1.84-3.346-2.7
		c-19.421-15-41.676-17.124-60.24-18.587c-6.372,13.415-10.927,28.829-12.952,45.532c-6.635,54.751,16.371,103.059,51.89,111.448
		c1.719,0.411,3.465,0.754,5.243,0.975c34.804,4.208,68.222-30.287,79.486-79.3C289.994,362.523,280.561,347.533,273.64,330.505z
		 M178.426,353.873c0,0,9.885-8.05,21.977-7.932c12.102,0.119,21.824,8.365,21.824,8.365s-9.893,8.776-21.988,8.654
		C188.139,362.846,178.426,353.873,178.426,353.873z M227.634,415.582c-0.573-0.074-1.138-0.119-1.702-0.178
		c-11.528-1.252-22.117-0.957-30.093,0.591c3.794-8.515,17.063-13.685,32.044-11.875c0.102,0.014,0.197,0.031,0.3,0.052
		c14.392,1.828,25.648,9.546,27.789,18.333C248.459,419.415,238.597,416.91,227.634,415.582z M263.846,370.651
		c-11.767-2.77-19.446-12.958-19.446-12.958s11.579-6.385,23.353-3.605c11.772,2.766,19.287,13.649,19.287,13.649
		S275.626,373.422,263.846,370.651z"/>
	<path style="fill:#FFEC8D;" d="M222.227,354.306c0,0-9.722-8.246-21.824-8.365c-12.092-0.118-21.977,7.932-21.977,7.932
		s9.712,8.974,21.813,9.087C212.333,363.082,222.227,354.306,222.227,354.306z"/>
	<path style="fill:#FFEC8D;" d="M267.753,354.089c-11.774-2.78-23.353,3.605-23.353,3.605s7.679,10.188,19.446,12.958
		c11.78,2.771,23.193-2.914,23.193-2.914S279.525,356.855,267.753,354.089z"/>
	<path style="fill:#FFEC8D;" d="M228.184,404.172c-0.104-0.021-0.198-0.038-0.3-0.052c-14.981-1.81-28.25,3.36-32.044,11.875
		c7.976-1.548,18.565-1.843,30.093-0.591c0.563,0.059,1.129,0.104,1.702,0.178c10.962,1.328,20.825,3.833,28.338,6.923
		C253.831,413.718,242.575,406,228.184,404.172z"/>
	<path style="fill:#EA4747;" d="M335.12,265.427c-1.354-0.348-2.672-0.631-4.003-0.901c-24.154-4.877-45.104,3.133-62.432,10.079
		c0.259,14.85,3.025,30.695,8.632,46.543c16.618,46.99,52.564,78.496,85.571,78.047c5.296-0.068,10.518-0.931,15.572-2.718
		c36.591-12.942,50.578-67.642,31.296-122.164c-4.32-12.216-9.913-23.378-16.454-33.199
		C381.418,259.821,362.623,272.52,335.12,265.427z M291.131,322.116c0,0,7.534-10.864,19.314-13.612
		c11.784-2.755,23.342,3.663,23.342,3.663s-7.692,10.162-19.476,12.914C302.53,327.826,291.131,322.116,291.131,322.116z
		 M366.471,371.412c-2.341,0.67-4.709,1.001-7.075,1.076c-12.304,0.397-24.372-6.645-29.84-15.194
		c7.548,0.469,16.848-0.721,26.625-3.632c1.647-0.492,3.292-1.013,4.953-1.6c10.41-3.684,19.352-8.681,25.784-13.986
		C387.65,349.775,380.439,367.39,366.471,371.412z M378.271,302.475c-10.888,5.264-23.578,1.558-23.578,1.558
		s5.276-11.606,16.166-16.88c10.891-5.273,23.26-2.201,23.26-2.201S389.162,297.205,378.271,302.475z"/>
	<path style="fill:#FFEC8D;" d="M333.787,312.167c0,0-11.558-6.417-23.342-3.663c-11.78,2.748-19.314,13.612-19.314,13.612
		s11.399,5.71,23.181,2.964C326.095,322.329,333.787,312.167,333.787,312.167z"/>
	<path style="fill:#FFEC8D;" d="M370.859,287.152c-10.89,5.274-16.166,16.88-16.166,16.88s12.69,3.707,23.578-1.558
		c10.891-5.27,15.848-17.523,15.848-17.523S381.75,281.878,370.859,287.152z"/>
	<path style="fill:#FFEC8D;" d="M361.134,352.062c-1.661,0.587-3.306,1.108-4.953,1.6c-9.778,2.911-19.077,4.101-26.625,3.632
		c5.468,8.549,17.536,15.591,29.84,15.194c2.366-0.075,4.734-0.406,7.075-1.076c13.968-4.021,21.179-21.637,20.448-33.335
		C380.487,343.381,371.544,348.378,361.134,352.062z"/>
	<path style="fill:#13676D;" d="M476.303,234.669c-1.32,4.947-1.105,9.27-0.847,10.837c0.155,1.97,0.588,3.886,1.396,5.741
		l6.748,15.491c3.785,8.677,13.92,12.667,22.603,8.884l37.079-16.155c8.679-3.782,12.664-13.923,8.883-22.601l-5.786-13.28
		c1.647-0.782,3.323-1.553,5.035-2.303l-3.1-7.11c-1.972,0.867-3.905,1.76-5.808,2.671c-4.8-5.409-12.717-7.395-19.7-4.354
		l-32.619,14.211l9.149-28.533c0.484-1.508,2.087-2.308,3.588-1.782l16.651,5.868c1.495,0.525,2.245-0.245,1.67-1.728l-2.559-6.623
		c-0.569-1.481-2.29-2.962-3.839-3.314l-15.75-3.543c-1.552-0.346-3.347,0.541-4.021,1.984L476.303,234.669z M525.903,219.6
		c0.528-0.231,1.067-0.389,1.607-0.516c0.143-0.033,0.282-0.064,0.424-0.09c0.522-0.097,1.043-0.165,1.564-0.172
		c0.085-0.001,0.166,0.01,0.251,0.01c0.449,0.005,0.892,0.047,1.331,0.116c0.188,0.028,0.37,0.062,0.555,0.101
		c0.416,0.091,0.821,0.205,1.219,0.349c0.212,0.078,0.418,0.168,0.625,0.261c0.314,0.141,0.62,0.293,0.918,0.466
		c0.191,0.112,0.378,0.225,0.562,0.35c0.059,0.04,0.122,0.07,0.181,0.112c0.277,0.198,0.538,0.42,0.794,0.647
		c0.16,0.143,0.31,0.293,0.461,0.448c0.281,0.287,0.548,0.592,0.792,0.918c0.104,0.137,0.202,0.273,0.3,0.417
		c0.306,0.456,0.589,0.935,0.817,1.457l6.75,15.49c2.073,4.758-0.118,10.317-4.87,12.389l-37.08,16.154
		c-4.76,2.074-10.322-0.108-12.392-4.867l-6.751-15.496c-0.132-0.304-0.251-0.617-0.351-0.926c-1.141-3.878,0.205-7.96,3.308-10.316
		c0.037-0.046,0.069-0.063,0.099-0.085c0.13-0.096,0.265-0.182,0.4-0.272c0.444-0.299,0.907-0.573,1.414-0.794L525.903,219.6z"/>
	<path style="fill:#053033;" d="M551.751,221.129c1.597-0.695,3.189-1.349,4.771-1.988l5.797,13.302
		c3.783,8.676,13.922,12.664,22.602,8.883l37.077-16.154c8.677-3.781,12.665-13.924,8.884-22.601l-6.749-15.491
		c-0.809-1.857-1.922-3.477-3.232-4.877c-0.997-1.31-4.011-4.406-8.535-6.817l-46.209-17.322c-1.516-0.489-3.384,0.222-4.188,1.593
		l-8.133,13.947c-0.801,1.375-0.882,3.641-0.191,5.07l3.109,6.383c0.697,1.431,1.772,1.404,2.405-0.047l7.037-16.189
		c0.635-1.458,2.313-2.087,3.755-1.418l27.125,12.722l-32.625,14.222c-6.968,3.036-10.902,10.174-10.224,17.361
		c-1.849,0.741-3.707,1.498-5.569,2.316c-0.114,0.048-0.227,0.098-0.345,0.149l3.1,7.11
		C551.525,221.234,551.639,221.178,551.751,221.129z M561.988,208.826c0.013-0.082,0.036-0.162,0.051-0.243
		c0.025-0.162,0.062-0.319,0.097-0.48c0.086-0.397,0.198-0.788,0.336-1.169c0.042-0.125,0.076-0.252,0.123-0.373
		c0.187-0.458,0.416-0.894,0.669-1.318c0.089-0.146,0.182-0.287,0.276-0.429c0.251-0.372,0.525-0.727,0.827-1.061
		c0.057-0.06,0.102-0.127,0.157-0.187c0.366-0.381,0.774-0.722,1.205-1.041c0.113-0.084,0.229-0.163,0.347-0.242
		c0.462-0.311,0.945-0.597,1.472-0.827l37.08-16.155c0.5-0.217,1.016-0.368,1.532-0.49c0.161-0.04,0.318-0.082,0.48-0.112
		c0.034-0.007,0.07-0.019,0.105-0.025c3.859-0.658,7.766,1.138,9.755,4.58c0.235,0.316,0.384,0.617,0.519,0.925l6.748,15.491
		c2.073,4.757-0.11,10.316-4.868,12.388l-37.079,16.154c-4.76,2.075-10.316-0.11-12.386-4.869l-5.65-12.956l-1.101-2.534
		c-0.232-0.529-0.39-1.068-0.516-1.61c-0.038-0.155-0.067-0.309-0.095-0.465c-0.078-0.433-0.126-0.865-0.144-1.297
		c-0.004-0.124-0.022-0.247-0.022-0.37C561.906,209.679,561.933,209.25,561.988,208.826z"/>
	<path style="fill:#4EA8C4;" d="M487.417,236.545c-0.136,0.09-0.271,0.176-0.4,0.272c-0.036,0.026-0.064,0.058-0.099,0.085
		c-3.103,2.356-4.448,6.438-3.282,10.233c0.105,0.337,0.18,0.678,0.325,1.009l6.751,15.496c2.069,4.759,7.632,6.941,12.392,4.867
		l37.08-16.154c4.752-2.071,6.943-7.631,4.87-12.389l-6.75-15.49c-0.229-0.522-0.513-0.999-0.817-1.457
		c-0.098-0.143-0.196-0.28-0.3-0.417c-0.244-0.327-0.511-0.63-0.792-0.918c-0.15-0.155-0.301-0.306-0.461-0.448
		c-0.309-0.276-0.635-0.528-0.975-0.759c-0.184-0.126-0.37-0.238-0.562-0.35c-0.298-0.172-0.604-0.327-0.918-0.466
		c-0.207-0.092-0.413-0.183-0.625-0.261c-0.398-0.143-0.803-0.259-1.219-0.349c-0.185-0.04-0.366-0.073-0.555-0.101
		c-0.44-0.067-0.884-0.111-1.331-0.116c-0.085,0-0.166-0.012-0.251-0.01c-0.522,0.008-1.043,0.074-1.564,0.172
		c-0.142,0.026-0.281,0.057-0.424,0.09c-0.54,0.127-1.081,0.286-1.607,0.516l-37.072,16.151
		C488.324,235.971,487.863,236.251,487.417,236.545z"/>
	<path style="fill:#EA4747;" d="M561.929,210.48c0.019,0.432,0.063,0.865,0.144,1.297c0.027,0.156,0.057,0.31,0.095,0.465
		c0.126,0.542,0.284,1.083,0.516,1.61l6.751,15.49c2.069,4.759,7.626,6.944,12.386,4.869l37.079-16.154
		c4.758-2.072,6.941-7.631,4.868-12.388l-6.748-15.491c-0.145-0.332-0.342-0.62-0.519-0.925c-1.989-3.442-5.896-5.238-9.732-4.57
		c-0.043,0.008-0.086,0.006-0.127,0.015c-0.162,0.03-0.319,0.072-0.48,0.112c-0.517,0.126-1.029,0.271-1.532,0.49l-37.08,16.155
		c-0.526,0.23-1.01,0.518-1.472,0.827c-0.117,0.079-0.233,0.158-0.347,0.242c-0.433,0.319-0.839,0.661-1.205,1.041
		c-0.056,0.06-0.101,0.127-0.157,0.187c-0.303,0.335-0.576,0.691-0.827,1.061c-0.095,0.142-0.188,0.283-0.276,0.429
		c-0.253,0.424-0.482,0.86-0.669,1.318c-0.047,0.121-0.081,0.248-0.123,0.373c-0.138,0.381-0.25,0.772-0.336,1.169
		c-0.035,0.161-0.071,0.318-0.097,0.48c-0.083,0.503-0.133,1.013-0.133,1.527C561.906,210.233,561.925,210.356,561.929,210.48z"/>
	<path style="fill:#053033;" d="M527.227,528.536l22.448,8.813l58.842-149.883l-22.447-8.813L527.227,528.536z M546.065,530.049
		l-11.218-4.405l3.645-9.287l11.218,4.406L546.065,530.049z M551.776,515.507l-11.219-4.405l3.644-9.284l11.216,4.409
		L551.776,515.507z M557.48,500.965l-11.215-4.405l3.645-9.277l11.215,4.402L557.48,500.965z M563.191,486.43l-11.216-4.412
		l3.643-9.279l11.216,4.407L563.191,486.43z M568.899,471.889l-11.219-4.403l3.646-9.287l11.218,4.406L568.899,471.889z
		 M574.607,457.349l-11.223-4.405l3.645-9.284l11.219,4.409L574.607,457.349z M580.315,442.805l-11.215-4.407l3.642-9.276
		l11.219,4.403L580.315,442.805z M586.022,428.268l-11.216-4.409l3.643-9.279l11.218,4.404L586.022,428.268z M591.734,413.724
		l-11.224-4.4l3.65-9.287l11.215,4.409L591.734,413.724z M589.868,385.497l11.215,4.404l-3.643,9.286l-11.218-4.405L589.868,385.497
		z"/>
	<path style="fill:#13676D;" d="M494.547,380.877l12.977-33.057l-22.451-8.814l-58.839,149.877l22.447,8.816l12.98-33.054
		L494.547,380.877z M488.87,345.845l11.222,4.408l-3.645,9.285l-11.226-4.407L488.87,345.845z M483.155,360.387l11.229,4.407
		l-3.646,9.285l-11.226-4.405L483.155,360.387z M477.451,374.928l11.223,4.409l-3.643,9.282l-11.222-4.409L477.451,374.928z
		 M471.744,389.472l11.222,4.406l-3.642,9.282l-11.226-4.412L471.744,389.472z M466.036,404.012l11.222,4.406l-3.642,9.282
		l-11.226-4.405L466.036,404.012z M460.328,418.545l11.222,4.41l-3.645,9.287l-11.223-4.407L460.328,418.545z M454.617,433.088
		l11.229,4.408l-3.645,9.28l-11.223-4.405L454.617,433.088z M445.074,490.402l-11.226-4.401l3.645-9.287l11.226,4.405
		L445.074,490.402z M450.782,475.864l-11.222-4.409l3.642-9.283l11.222,4.413L450.782,475.864z M456.489,461.321l-11.225-4.41
		l3.645-9.278l11.223,4.408L456.489,461.321z"/>
	
		<rect x="502.915" y="350.962" transform="matrix(0.3654 -0.9309 0.9309 0.3654 -15.9114 720.775)" style="fill:#EA4747;" width="35.513" height="42.191"/>
	
		<rect x="457.052" y="467.785" transform="matrix(0.3655 -0.9308 0.9308 0.3655 -153.7994 752.1308)" style="fill:#FFEC8D;" width="35.514" height="42.193"/>
	<path style="fill:#4EA8C4;" d="M512.542,450.5c-0.001,0-5.864,1.752-5.864,1.752c-1.496,0.399-2.826,0.162-3.579-0.727
		c-0.516-0.635-0.464-1.59-0.211-2.232l11.418-29.079c0.25-0.643,0.746-1.368,1.538-1.496c1.267-0.204,2.228,0.404,3.05,1.714
		l0.254,0.395l3.033,5.118c0,0.002,5.6-14.268,5.6-14.268c-14.925-5.857-31.683,1.246-37.428,15.881
		c-5.745,14.64,1.7,31.251,16.626,37.11C506.98,464.669,512.542,450.5,512.542,450.5z"/>
	<path style="fill:#4EA8C4;" d="M505.372,468.76c-17.23-6.763-25.816-25.938-19.176-42.835c6.63-16.892,25.955-25.09,43.185-18.325
		l4.439-11.305l-39.273-15.417l-32.885,83.768l39.276,15.416C500.938,480.061,505.375,468.762,505.372,468.76z"/>
	
		<rect x="542.188" y="366.379" transform="matrix(0.3655 -0.9308 0.9308 0.3655 -5.3686 767.0722)" style="fill:#B7041E;" width="35.514" height="42.19"/>
	
		<rect x="496.323" y="483.205" transform="matrix(0.3656 -0.9308 0.9308 0.3656 -143.2397 798.4498)" style="fill:#EFD567;" width="35.517" height="42.187"/>
	<path style="fill:#037982;" d="M531.626,441.904c0.584,1.315,0.035,2.705-1.281,3.277l-17.803,5.318l-5.561,14.169
		c14.918,5.85,31.67-1.257,37.415-15.895c5.747-14.634-1.696-31.238-16.615-37.097l-5.6,14.27L531.626,441.904z"/>
	<path style="fill:#037982;" d="M529.382,407.6c17.229,6.762,25.815,25.923,19.185,42.811
		c-6.633,16.897-25.963,25.109-43.191,18.352l-4.437,11.3l39.267,15.413l32.886-83.764l-39.271-15.417L529.382,407.6z"/>
	<path style="fill:#FFEC8D;" d="M519.147,420.827l-0.254-0.395c-0.821-1.31-1.782-1.918-3.05-1.714
		c-0.792,0.128-1.288,0.853-1.538,1.496l-11.418,29.079c-0.253,0.642-0.305,1.598,0.211,2.232c0.753,0.889,2.083,1.126,3.579,0.727
		l5.863-1.752l9.64-24.555L519.147,420.827z"/>
	<path style="fill:#FFEC8D;" d="M486.196,425.925c-6.641,16.897,1.945,36.072,19.176,42.835l1.606-4.091
		c-14.926-5.859-22.371-22.471-16.626-37.11c5.745-14.635,22.503-21.738,37.428-15.881l1.604-4.078
		C512.151,400.835,492.826,409.033,486.196,425.925z"/>
	<path style="fill:#EFD567;" d="M531.626,441.904l-9.445-15.957c0-0.002-9.64,24.553-9.64,24.553c0.001,0,17.804-5.318,17.804-5.318
		C531.661,444.609,532.21,443.22,531.626,441.904z"/>
	<path style="fill:#EFD567;" d="M527.78,411.678c14.919,5.858,22.362,22.463,16.615,37.097
		c-5.745,14.638-22.497,21.744-37.415,15.895c-0.002,0-1.608,4.091-1.608,4.091c17.231,6.76,36.561-1.452,43.194-18.35
		c6.63-16.888-1.955-36.049-19.182-42.811L527.78,411.678z"/>
	<polygon style="fill:#037982;" points="392.025,1.793 325.418,1.793 379.579,27.754 	"/>
	<path style="fill:#4EA8C4;" d="M499.462,682.632c-4.27-7.872-2.02-17.359,5.044-21.205l-8.394-15.433l-4.832,10.145l-2.054-11.048
		l-11.145-1.459l9.874-5.369c0,0-2.014-10.806-2.043-11.017l-8.19-15.058l-73.376,39.915l38.622,70.994l29.834-16.228
		c-2.094-1.298-3.931-3.178-5.232-5.57c-3.648-6.705-1.723-14.806,4.3-18.081c6.023-3.275,13.866-0.486,17.519,6.216
		c1.299,2.391,1.879,4.954,1.833,7.417l14.27-7.763C503.083,687.57,500.967,685.391,499.462,682.632z M461.043,665.071
		l-4.835,10.143l-2.056-11.047l-11.139-1.46l9.872-5.37l-2.056-11.045l8.154,7.726l9.869-5.367l-4.83,10.147l8.159,7.728
		L461.043,665.071z"/>
	<path style="fill:#037982;" d="M477.723,612.188l8.19,15.058c-0.004-0.021,8.145,7.696,8.145,7.696l9.866-5.364l-4.828,10.145
		l8.157,7.727l-11.138-1.456l-8.611-15.835c2.871,5.278,8.609,15.835,8.608,15.835l8.394,15.434
		c7.069-3.845,16.263-0.581,20.536,7.29c1.503,2.76,2.185,5.718,2.153,8.566l14.266-7.76c-2.093-1.297-3.929-3.179-5.229-5.57
		c-3.648-6.708-1.724-14.81,4.3-18.085c6.027-3.274,13.868-0.489,17.525,6.213c1.302,2.391,1.881,4.956,1.834,7.417l29.825-16.225
		l-38.619-70.995L477.723,612.188z M531.182,626.918l-4.831,10.143l-2.053-11.046l-11.146-1.462l9.877-5.368l-2.063-11.045
		l8.159,7.728l9.87-5.371l-4.829,10.147l8.154,7.729L531.182,626.918z"/>
	<path style="fill:#037982;" d="M485.909,627.226c0,0,0.027,0.05,0.065,0.122L485.909,627.226z"/>
	<path style="fill:#037982;" d="M487.068,629.356l-0.592-1.092C486.642,628.573,486.841,628.938,487.068,629.356z"/>
	<polygon style="fill:#FFEC8D;" points="468.853,648.651 458.984,654.019 450.83,646.293 452.886,657.338 443.014,662.708 
		454.152,664.168 456.208,675.215 461.043,665.071 472.183,666.526 464.023,658.799 	"/>
	<path style="fill:#FFEC8D;" d="M478.082,643.632l11.145,1.459l2.054,11.048l4.832-10.145c0.001-0.001-5.737-10.558-8.608-15.836
		l-0.436-0.802c-0.228-0.418-0.427-0.783-0.592-1.092l-0.502-0.917c-0.038-0.072-0.065-0.122-0.065-0.122
		c0.033,0.231,2.047,11.037,2.047,11.037L478.082,643.632z"/>
	<polygon style="fill:#E8CD58;" points="486.477,628.265 487.068,629.356 487.504,630.158 496.115,645.993 507.253,647.449 
		499.096,639.723 503.924,629.578 494.058,634.942 485.909,627.226 485.975,627.348 	"/>
	<polygon style="fill:#E8CD58;" points="538.996,610.497 529.126,615.868 520.967,608.141 523.029,619.185 513.152,624.554 
		524.298,626.016 526.351,637.062 531.182,626.918 542.321,628.373 534.167,620.644 	"/>
	<path style="fill:#4EA8C4;" d="M554.458,673.041c-7.286,4.251-11.364,10.197-12.697,16.857c5.025,0.779,9.702,2.924,13.854,6.21
		c1.375,1.087,2.697,2.303,3.94,3.629c0.072,0.077,0.139,0.149,0.211,0.226c2.589-1.14,5.292-2.46,8.04-3.954l-12.686-23.324
		C554.897,672.804,554.678,672.922,554.458,673.041z"/>
	<path style="fill:#037982;" d="M583.505,674.7c-7.637-6.044-17.396-7.602-27.732-2.375c-0.217,0.117-0.438,0.24-0.653,0.358
		l12.686,23.324c10.168-5.532,18.096-11.84,20.908-16.182c-0.595-0.67-1.197-1.353-1.862-2.058
		C585.785,676.644,584.673,675.627,583.505,674.7z"/>
	<path style="fill:#B7041E;" d="M505.853,723.184c-0.504-5.276,0.236-10.371,2.312-15.011c-6.314-2.5-13.526-2.306-21.056,1.503
		c-0.21,0.116-0.435,0.238-0.654,0.357l12.686,23.325c2.746-1.493,5.32-3.044,7.684-4.595c-0.025-0.103-0.052-0.197-0.077-0.301
		C506.321,726.692,506.018,724.92,505.853,723.184z"/>
	<path style="fill:#EA4747;" d="M485.792,710.393c-10.002,5.836-13.986,14.87-13.065,24.565c0.14,1.488,0.392,2.971,0.76,4.477
		c0.225,0.943,0.464,1.822,0.718,2.68c5.165,0.001,14.769-3.226,24.936-8.757l-12.686-23.325
		C486.232,710.152,486.015,710.271,485.792,710.393z"/>
	<path style="fill:#E8CD58;" d="M555.614,696.107c-4.151-3.286-8.829-5.431-13.854-6.21c-5.912-0.917-12.307,0.067-18.909,3.407
		c-0.257,0.138-0.522,0.272-0.78,0.412l14.981,27.541c12.016-6.538,21.392-13.962,24.697-19.104
		c-0.62-0.714-1.274-1.438-1.983-2.192c-0.072-0.076-0.139-0.148-0.211-0.226C558.311,698.41,556.989,697.194,555.614,696.107z"/>
	<path style="fill:#FFEC8D;" d="M521.295,694.149c-6.389,3.728-10.687,8.56-13.13,14.023c-2.075,4.64-2.815,9.734-2.312,15.011
		c0.164,1.736,0.468,3.509,0.894,5.279c0.025,0.104,0.052,0.198,0.077,0.301c0.251,1.001,0.505,1.945,0.768,2.853
		c6.109,0.019,17.437-3.819,29.46-10.358l-14.981-27.541C521.807,693.854,521.557,694.007,521.295,694.149z"/>
	<path style="fill:#E8CD58;" d="M489.389,689.435c-3.652-6.702-11.495-9.49-17.519-6.216c-6.022,3.275-7.948,11.376-4.3,18.081
		c1.302,2.393,3.139,4.273,5.232,5.57c3.781,2.347,8.407,2.758,12.286,0.647c3.88-2.108,6.046-6.217,6.133-10.666
		C491.268,694.389,490.688,691.825,489.389,689.435z"/>
	<path style="fill:#E8CD58;" d="M558.057,652.081c-3.657-6.702-11.498-9.487-17.525-6.213c-6.023,3.275-7.948,11.377-4.3,18.085
		c1.301,2.392,3.137,4.273,5.229,5.57c3.783,2.347,8.413,2.757,12.291,0.648c3.878-2.11,6.05-6.222,6.139-10.673
		C559.938,657.037,559.358,654.472,558.057,652.081z"/>
	<path style="fill:#E8CD58;" d="M525.042,668.717c-4.273-7.871-13.467-11.135-20.534-7.29c-7.065,3.846-9.316,13.333-5.046,21.205
		c1.505,2.759,3.621,4.939,6.029,6.457c4.454,2.809,9.929,3.325,14.518,0.829c4.585-2.492,7.125-7.37,7.187-12.635
		C527.227,674.435,526.545,671.477,525.042,668.717z"/>
	
		<rect x="140.266" y="30.754" transform="matrix(0.2466 -0.9691 0.9691 0.2466 95.7678 191.3318)" style="fill:#E0B23F;" width="61.354" height="6.632"/>
	<polygon style="fill:#FFEC8D;" points="181.716,5.157 241.177,20.274 242.81,13.85 195.396,1.793 168.484,1.793 175.289,3.523 	"/>
	<path style="fill:#EA4747;" d="M133.401,4.181l4.017-2.388h-22.289C119.834,6.597,127.366,7.768,133.401,4.181z"/>
	<path style="fill:#4EA8C4;" d="M390.036,117.071c-0.636-0.391-1.351-0.611-2.148-0.669c-0.8-0.058-1.685,0.142-2.654,0.6
		c-0.375,0.177-0.748,0.365-1.126,0.564c-0.371,0.198-0.646,0.36-0.816,0.483l5.674,11.974c0.074-0.016,0.197-0.06,0.363-0.13
		c0.164-0.064,0.342-0.141,0.533-0.217c0.195-0.081,0.377-0.155,0.555-0.231c0.169-0.067,0.297-0.128,0.383-0.167
		c0.989-0.47,1.726-1.03,2.219-1.694c0.49-0.659,0.786-1.369,0.893-2.13c0.112-0.756,0.066-1.557-0.142-2.384
		c-0.208-0.827-0.498-1.642-0.879-2.443c-0.33-0.698-0.729-1.367-1.199-2.012C391.218,117.973,390.668,117.461,390.036,117.071z"/>
	<path style="fill:#4EA8C4;" d="M341.139,111.245l26.389,55.68l50.889-24.111L392.024,87.13L341.139,111.245z M380.27,137.736
		l-3.543-7.477l-6.535,3.097l3.544,7.478l-3.498,1.66l-8.47-17.874l3.497-1.657l3.448,7.274l6.535-3.097l-3.448-7.273l3.502-1.66
		l8.468,17.871L380.27,137.736z M396.567,118.885c0.572,1.205,0.977,2.446,1.197,3.713c0.23,1.271,0.187,2.507-0.116,3.714
		c-0.3,1.205-0.915,2.349-1.83,3.431c-0.914,1.077-2.235,2.026-3.947,2.845c-0.276,0.125-0.641,0.29-1.101,0.49
		c-0.459,0.197-0.94,0.396-1.434,0.601c-0.498,0.202-0.974,0.397-1.434,0.58c-0.452,0.182-0.794,0.313-1.035,0.383l-8.483-17.9
		c0.335-0.215,0.716-0.454,1.154-0.7c0.436-0.247,0.886-0.492,1.355-0.735c0.473-0.243,0.929-0.477,1.376-0.702
		c0.443-0.218,0.846-0.414,1.206-0.586c1.58-0.748,3.041-1.168,4.375-1.26c1.333-0.091,2.538,0.101,3.614,0.571
		c1.074,0.469,2.04,1.178,2.887,2.133C395.199,116.413,395.937,117.554,396.567,118.885z"/>
	<path style="fill:#E8CD58;" d="M416.346,165.745l10.563-5.007l-2.177-4.594c-2.42,1.148-5.319,0.11-6.468-2.313
		c-1.148-2.422-0.112-5.316,2.309-6.465l-2.156-4.552l-50.889,24.111l-26.389-55.68l50.885-24.115l-8.497-17.926l-68.806,32.614
		l43.379,91.532L416.346,165.745z"/>
	<polygon style="fill:#E8CD58;" points="423.319,180.463 390.679,195.932 394.774,204.578 437.98,184.099 433.887,175.455 	"/>
	
		<rect x="419.269" y="162.456" transform="matrix(0.9036 -0.4283 0.4283 0.9036 -32.1015 198.5334)" style="fill:#4EA8C4;" width="11.692" height="16.287"/>
	<path style="fill:#037982;" d="M442.912,63.013L392.024,87.13l26.393,55.685l50.884-24.116L442.912,63.013z M428.577,118.41
		l-1.352-10.443l-10.348-1.948l9.514-4.507l-1.346-10.45l7.232,7.66l9.519-4.513l-5.049,9.244l7.23,7.658l-10.352-1.946
		L428.577,118.41z"/>
	<path style="fill:#E0B23F;" d="M442.912,63.013l26.389,55.685l-50.884,24.116l2.156,4.552c2.424-1.15,5.318-0.115,6.47,2.306
		c1.145,2.422,0.113,5.323-2.312,6.472l2.177,4.594l10.56-5.004l58.252-27.607l-43.38-91.531l-68.813,32.608l8.497,17.926
		L442.912,63.013z"/>
	<polygon style="fill:#E0B23F;" points="437.98,184.099 481.189,163.626 477.092,154.98 444.445,170.45 433.887,175.455 	"/>
	
		<rect x="429.834" y="157.451" transform="matrix(0.9036 -0.4284 0.4284 0.9036 -28.9382 202.5889)" style="fill:#037982;" width="11.685" height="16.287"/>
	<path style="fill:#13676D;" d="M420.577,147.365c-2.426,1.15-3.461,4.044-2.313,6.466c1.148,2.423,4.048,3.461,6.468,2.313
		L420.577,147.365z"/>
	<path style="fill:#053033;" d="M427.043,149.672c-1.151-2.421-4.046-3.456-6.466-2.307l4.154,8.779
		C427.156,154.996,428.188,152.095,427.043,149.672z"/>
	<polygon style="fill:#FFEC8D;" points="371.801,119.867 375.249,127.14 368.714,130.237 365.266,122.963 361.769,124.62 
		370.238,142.494 373.736,140.834 370.191,133.356 376.727,130.26 380.27,137.736 383.771,136.078 375.303,118.207 	"/>
	<path style="fill:#FFEC8D;" d="M387.852,112.759c-1.333,0.092-2.795,0.512-4.375,1.26c-0.36,0.171-0.763,0.368-1.206,0.586
		c-0.447,0.225-0.903,0.459-1.376,0.702c-0.469,0.243-0.919,0.488-1.355,0.735c-0.438,0.246-0.819,0.484-1.154,0.7l8.483,17.9
		c0.24-0.07,0.583-0.201,1.035-0.383c0.46-0.183,0.936-0.377,1.434-0.58c0.494-0.205,0.974-0.404,1.434-0.601
		c0.46-0.2,0.824-0.364,1.101-0.49c1.712-0.818,3.033-1.768,3.947-2.845c0.914-1.082,1.529-2.226,1.83-3.431
		c0.302-1.207,0.346-2.444,0.116-3.714c-0.221-1.267-0.625-2.508-1.197-3.713c-0.63-1.332-1.368-2.472-2.214-3.422
		c-0.847-0.956-1.813-1.664-2.887-2.133C390.39,112.86,389.185,112.668,387.852,112.759z M392.89,120.627
		c0.382,0.801,0.672,1.616,0.879,2.443c0.207,0.828,0.254,1.628,0.142,2.384c-0.107,0.761-0.403,1.471-0.893,2.13
		c-0.493,0.664-1.23,1.224-2.219,1.694c-0.086,0.038-0.214,0.099-0.383,0.167c-0.178,0.077-0.359,0.15-0.555,0.231
		c-0.191,0.076-0.369,0.153-0.533,0.217c-0.165,0.07-0.289,0.114-0.363,0.13l-5.674-11.974c0.17-0.123,0.445-0.285,0.816-0.483
		c0.378-0.199,0.751-0.388,1.126-0.564c0.969-0.458,1.853-0.658,2.654-0.6c0.797,0.059,1.513,0.278,2.148,0.669
		c0.632,0.39,1.182,0.902,1.655,1.544C392.161,119.26,392.56,119.929,392.89,120.627z"/>
	<polygon style="fill:#E0B23F;" points="436.748,103.454 441.797,94.21 432.278,98.723 425.046,91.063 426.392,101.512 
		416.878,106.019 427.226,107.967 428.577,118.41 433.626,109.166 443.978,111.112 	"/>
	<path style="fill:#EA4747;" d="M673.854,634.117c12.993,5.95,28.41,0.146,34.414-12.964l-47.091-21.572
		C655.167,612.705,660.838,628.157,673.854,634.117z"/>
	<polygon style="fill:#EA4747;" points="665.815,572.989 660.378,584.859 719.944,612.134 725.383,600.271 695.592,586.625 	"/>
	<path style="fill:#B7041E;" d="M719.311,472.612l47.098,21.564c6.007-13.117,0.329-28.573-12.675-34.529
		C740.729,453.693,725.319,459.501,719.311,472.612z"/>
	<polygon style="fill:#B7041E;" points="707.643,481.632 702.211,493.502 731.991,507.147 761.776,520.776 767.217,508.909 	"/>
	<path style="fill:#4EA8C4;" d="M629.995,508.511l-14.504-6.642c-12.985,28.35-5.52,68.686,41.565,90.244l6.641-14.504
		C621.051,558.083,622.447,524.991,629.995,508.511z"/>
	<path style="fill:#037982;" d="M704.32,488.879l6.643-14.494c-47.084-21.566-82.491-0.861-95.472,27.484l14.504,6.642
		C637.531,492.03,661.674,469.354,704.32,488.879z"/>
	<path style="fill:#FFEC8D;" d="M5.19,730.723l4.706,0.787c1.329-7.917,5.072-30.33,5.069-30.33
		c-4.732-0.791-9.151-2.335-13.172-4.475v10.527c2.23,0.927,4.543,1.712,6.934,2.336L5.19,730.723z"/>
	<path style="fill:#E0B23F;" d="M14.6,732.304l3.53-21.161c26.968,2.046,51.592-16.817,56.134-43.991l5.523-33.073l-9.414-1.564
		l-5.524,33.064c-3.94,23.569-26.317,39.541-49.881,35.602l-5.067,30.331C9.902,731.511,14.594,732.301,14.6,732.304z"/>
	<polygon style="fill:#4EA8C4;" points="9.896,731.51 5.19,730.723 1.793,730.923 1.793,743.048 7.8,744.051 	"/>
	<path style="fill:#037982;" d="M7.8,744.051l28.755,4.806l1.176-7.047L14.6,732.304c-0.006-0.003-4.698-0.793-4.698-0.793
		C9.896,731.51,7.8,744.051,7.8,744.051z"/>
	<path style="fill:#4EA8C4;" d="M34.205,586.021c-12.591-2.102-24.704,2.825-32.413,11.892v86.346
		c4.284,3.155,9.333,5.403,14.939,6.339C16.738,690.601,34.209,586.023,34.205,586.021z"/>
	<path style="fill:#037982;" d="M34.209,586.023L16.738,690.601c19.057,3.176,37.085-9.693,40.272-28.749l5.939-35.562
		C66.135,607.234,53.269,589.204,34.209,586.023z"/>
	<polygon style="fill:#FFEC8D;" points="559.927,6.77 551.004,2.033 529.444,116.147 535.44,119.331 540.445,109.905 	"/>
	<polygon style="fill:#FFEC8D;" points="511.086,106.398 517.376,109.74 528.406,51.377 	"/>
	<polygon style="fill:#FFEC8D;" points="576.295,42.38 580.919,17.916 571.991,13.175 561.053,71.087 	"/>
	<polygon style="fill:#E8CD58;" points="561.053,71.087 550.436,127.291 559.354,132.026 576.295,42.38 	"/>
	<polygon style="fill:#E8CD58;" points="535.44,119.331 538.367,120.884 540.445,109.905 	"/>
	<polygon style="fill:#E8CD58;" points="589.465,94.904 601.906,29.058 592.98,24.319 576.583,111.12 	"/>
	<polygon style="fill:#E8CD58;" points="619.76,56.745 622.892,40.2 613.97,35.462 606.887,72.968 	"/>
	<polygon style="fill:#EA4747;" points="517.376,109.74 529.444,116.147 551.004,2.033 550.552,1.793 544.012,1.793 528.406,51.377 
			"/>
	<polygon style="fill:#EA4747;" points="561.053,71.087 571.991,13.175 561.614,7.665 559.927,6.77 540.445,109.905 	"/>
	<polygon style="fill:#B7041E;" points="540.445,109.905 538.367,120.884 550.436,127.291 561.053,71.087 	"/>
	<polygon style="fill:#EA4747;" points="576.295,42.38 587.444,21.377 580.919,17.916 	"/>
	<polygon style="fill:#B7041E;" points="559.354,132.026 559.793,132.259 576.583,111.12 592.98,24.319 587.444,21.377 
		576.295,42.38 	"/>
	<polygon style="fill:#B7041E;" points="606.887,72.968 613.97,35.462 601.906,29.058 589.465,94.904 	"/>
	<polygon style="fill:#B7041E;" points="629.938,43.939 622.892,40.2 619.76,56.745 	"/>
	<polygon style="fill:#FFEC8D;" points="559.927,6.77 561.614,7.665 587.444,21.377 595.218,6.743 589.221,3.559 588.218,3.027 
		585.893,1.793 550.552,1.793 551.004,2.033 	"/>
	
		<rect x="608.816" y="-1.435" transform="matrix(0.469 -0.8832 0.8832 0.469 303.1853 559.7578)" style="fill:#E8CD58;" width="16.572" height="58.355"/>
	<polygon style="fill:#E8CD58;" points="589.221,3.56 589.554,1.793 585.896,1.793 588.218,3.027 	"/>
	<path style="fill:#E8CD58;" d="M738.844,792.935c2.359-1.716,5.669-1.198,7.388,1.161l3.518-2.563
		c-1.719-2.363-1.198-5.672,1.161-7.392c2.363-1.719,5.676-1.198,7.394,1.162l3.526-2.567c-5.701-7.832-3.978-18.802,3.854-24.505
		l-56.314-77.325c-7.834,5.707-18.802,3.978-24.506-3.854l-3.526,2.567c1.714,2.361,1.192,5.671-1.168,7.39
		c-2.36,1.718-5.668,1.197-7.382-1.163l-3.527,2.566c1.721,2.357,1.199,5.672-1.16,7.39c-2.359,1.718-5.672,1.197-7.39-1.165
		l-3.525,2.566c1.724,2.363,1.204,5.67-1.161,7.385c-2.361,1.723-5.666,1.203-7.384-1.158l-3.527,2.57
		c5.707,7.83,3.981,18.802-3.852,24.504l39.472,54.2l4.792-3.489l2.159,2.958l-4.795,3.49l7.404,10.166h46.432
		C736.51,795.995,737.24,794.1,738.844,792.935z M748.84,735.106l2.157,2.96l-4.797,3.492l-2.155-2.957L748.84,735.106z
		 M739.798,741.693l2.155,2.962l-4.796,3.488l-2.156-2.958L739.798,741.693z M657.244,725.195l42.169-30.708l33.717,46.304
		l-2.953,2.153l-31.569-43.341l-36.25,26.396l31.563,43.346l-2.956,2.154L657.244,725.195z M732.909,751.24l-4.801,3.491
		l-2.154-2.956l4.796-3.494L732.909,751.24z M723.861,757.827l-4.794,3.491l-2.154-2.956l4.79-3.492L723.861,757.827z
		 M703.985,738.885l0.014,12.398l-7.296-10.02l-11.788,3.842l7.273-10.038l-7.299-10.024l11.801,3.818l7.273-10.039l0.018,12.399
		l11.789,3.815L703.985,738.885z M714.813,764.413l-4.788,3.495l-2.161-2.962l4.799-3.49L714.813,764.413z M705.771,771.001
		l-4.795,3.493l-2.154-2.959l4.794-3.492L705.771,771.001z M691.929,781.076l-2.15-2.956l4.794-3.489l2.154,2.958L691.929,781.076z
		 M698.683,782.102l2.957-2.155l6.693,9.19l36.25-26.403l-6.691-9.19l2.959-2.152l8.849,12.147l-42.169,30.713L698.683,782.102z"/>
	<polygon style="fill:#B7041E;" points="693.92,769.345 662.357,725.999 698.607,699.604 730.177,742.944 733.13,740.791 
		699.413,694.487 657.244,725.195 690.964,771.499 	"/>
	<polygon style="fill:#B7041E;" points="740.851,751.391 737.892,753.543 744.583,762.733 708.333,789.137 701.64,779.946 
		698.683,782.102 707.53,794.251 749.699,763.538 	"/>
	<polygon style="fill:#B7041E;" points="685.525,781.217 680.733,784.706 682.886,787.669 687.685,784.175 	"/>
	
		<rect x="744.554" y="736.503" transform="matrix(0.8081 -0.589 0.589 0.8081 -291.4515 581.9359)" style="fill:#B7041E;" width="5.934" height="3.661"/>
	
		<rect x="735.511" y="743.089" transform="matrix(0.8086 -0.5884 0.5884 0.8086 -296.9369 577.077)" style="fill:#B7041E;" width="5.932" height="3.662"/>
	
		<rect x="726.463" y="749.677" transform="matrix(0.8088 -0.5881 0.5881 0.8088 -302.4944 572.7256)" style="fill:#B7041E;" width="5.935" height="3.66"/>
	
		<rect x="717.422" y="756.265" transform="matrix(0.8083 -0.5887 0.5887 0.8083 -308.2303 569.384)" style="fill:#B7041E;" width="5.929" height="3.659"/>
	<polygon style="fill:#B7041E;" points="710.025,767.908 714.813,764.413 712.663,761.456 707.864,764.946 	"/>
	
		<rect x="699.331" y="769.438" transform="matrix(0.8084 -0.5886 0.5886 0.8084 -319.4245 561.1224)" style="fill:#B7041E;" width="5.932" height="3.66"/>
	
		<rect x="690.286" y="776.025" transform="matrix(0.8087 -0.5883 0.5883 0.8087 -324.9427 556.641)" style="fill:#B7041E;" width="5.93" height="3.657"/>
	<polygon style="fill:#B7041E;" points="703.98,731.222 703.963,718.822 696.69,728.861 684.89,725.043 692.188,735.067 
		684.915,745.106 696.703,741.264 703.999,751.283 703.985,738.885 715.769,735.037 	"/>
	<path style="fill:#4EA8C4;" d="M302.983,765.392l-29.648-14.214c-3.934-7.466-4.439-16.622-0.51-24.82
		c3.932-8.203,11.388-13.545,19.675-15.157l29.644,14.218l16.99,8.146l8.451-17.642l-68.053-32.622l-36.069,75.24l68.058,32.629
		l8.447-17.634L302.983,765.392z"/>
	<path style="fill:#037982;" d="M347.584,715.923l-8.451,17.642l16.997,8.139l29.644,14.212c3.936,7.474,4.436,16.629,0.505,24.831
		c-3.93,8.195-11.382,13.54-19.668,15.146l-29.651-14.214l-16.994-8.143l-8.447,17.634l13.897,6.661h66.609l23.622-49.275
		L347.584,715.923z"/>
	<path style="fill:#FFEC8D;" d="M322.65,750.242c3.929-8.199,3.429-17.359-0.507-24.824L292.5,711.2
		c-8.287,1.612-15.743,6.954-19.675,15.157c-3.929,8.198-3.423,17.354,0.51,24.82l29.648,14.214
		C311.268,763.782,318.721,758.44,322.65,750.242z M312.325,745.291c-3.859,8.053-13.522,11.456-21.583,7.594
		c-8.052-3.862-11.454-13.526-7.594-21.581c3.865-8.06,13.526-11.456,21.581-7.598C312.79,727.569,316.189,737.231,312.325,745.291z
		"/>
	<path style="fill:#13676D;" d="M304.729,723.706c-8.055-3.858-17.716-0.463-21.581,7.598c-3.86,8.055-0.458,17.719,7.594,21.581
		c8.061,3.862,17.723,0.459,21.583-7.594C316.189,737.231,312.79,727.569,304.729,723.706z"/>
	<path style="fill:#E8CD58;" d="M336.456,756.854c-3.933,8.203-3.427,17.361,0.505,24.824l29.651,14.214
		c8.286-1.607,15.737-6.951,19.668-15.146c3.931-8.202,3.431-17.357-0.505-24.831l-29.644-14.212
		C347.842,743.315,340.385,748.655,336.456,756.854z M346.783,761.806c3.861-8.058,13.519-11.458,21.577-7.595
		c8.057,3.867,11.459,13.523,7.595,21.584c-3.861,8.054-13.523,11.453-21.582,7.59C346.314,779.523,342.919,769.862,346.783,761.806
		z"/>
	<path style="fill:#053033;" d="M354.372,783.385c8.059,3.863,17.722,0.464,21.582-7.59c3.864-8.061,0.462-17.717-7.595-21.584
		c-8.058-3.863-17.716-0.463-21.577,7.595C342.919,769.862,346.314,779.523,354.372,783.385z"/>
	<path style="fill:#EA4747;" d="M322.65,750.242c-3.93,8.197-11.382,13.54-19.667,15.149l16.983,8.144l19.167-39.972l-16.99-8.146
		C326.08,732.883,326.579,742.043,322.65,750.242z"/>
	<path style="fill:#B7041E;" d="M336.961,781.679c-3.932-7.463-4.438-16.621-0.505-24.824c3.929-8.199,11.386-13.54,19.674-15.151
		l-16.997-8.139l-19.167,39.972L336.961,781.679z"/>
	<polygon style="fill:#FFEC8D;" points="89.522,712.021 83.554,715.573 118.504,774.357 120.439,773.208 124.476,770.808 	"/>
	
		<rect x="164.402" y="671.027" transform="matrix(0.8596 -0.511 0.511 0.8596 -336.8103 184.8236)" style="fill:#E0B23F;" width="6.941" height="68.391"/>
	<polygon style="fill:#E0B23F;" points="176.922,793.134 183.351,794.769 190.614,766.203 182.551,770.997 	"/>
	<polygon style="fill:#FFEC8D;" points="176.922,793.134 154.785,787.505 146.722,792.3 168.482,797.831 195.393,797.831 
		183.351,794.769 	"/>
	<path style="fill:#E8CD58;" d="M189.404,732.206l-64.928,38.602l-4.036,2.4l-2.289,1.36c-7.083,4.211-9.416,13.367-5.203,20.45
		l96.903-57.616C205.64,730.32,196.484,727.995,189.404,732.206z"/>
	<path style="fill:#EA4747;" d="M154.785,787.505l27.766-16.508l8.063-4.794l14.04-8.347c7.082-4.216,9.41-13.371,5.198-20.454
		l-96.903,57.616c0.623,1.049,1.364,1.977,2.181,2.813h22.288l9.305-5.531L154.785,787.505z"/>
	
		<rect x="99.235" y="708.39" transform="matrix(0.8595 -0.5111 0.5111 0.8595 -353.6071 161.0054)" style="fill:#4EA8C4;" width="33.674" height="30.675"/>
	
		<rect x="128.179" y="691.181" transform="matrix(0.8595 -0.5111 0.5111 0.8595 -340.7077 173.3479)" style="fill:#037982;" width="33.673" height="30.674"/>
	<polygon style="fill:#EA4747;" points="544.012,797.831 550.552,797.831 544.947,794.856 	"/>
	<polygon style="fill:#FFEC8D;" points="578.49,793.9 543.672,775.414 535.899,790.054 544.947,794.856 550.552,797.831 
		585.893,797.831 579.914,794.658 	"/>
	<polygon style="fill:#FFEC8D;" points="579.914,794.658 581.845,795.682 595.272,724.565 591.925,722.786 578.49,793.9 	"/>
	<polygon style="fill:#EA4747;" points="585.779,797.769 599.209,726.654 595.272,724.565 581.845,795.682 	"/>
	<polygon style="fill:#E8CD58;" points="599.209,726.654 585.779,797.769 585.896,797.831 589.554,797.831 602.656,728.483 	"/>
	<path style="fill:#EA4747;" d="M54.351,544.171l-4.068-11.142l-10.74,3.914l-18.74,6.836c-4.908-1.459-9.097-5.124-10.985-10.304
		c-1.896-5.185-1.048-10.688,1.766-14.966l18.743-6.836l10.742-3.917l-4.075-11.148l-35.2,12.844v24.282l9.533,26.131
		L54.351,544.171z"/>
	<path style="fill:#B7041E;" d="M51.808,503.834l18.74-6.836c4.912,1.462,9.097,5.127,10.987,10.314
		c1.893,5.18,1.051,10.68-1.769,14.955l-18.742,6.841l-10.742,3.922l4.068,11.142l43.023-15.697l-17.353-47.559l-43.028,15.693
		l4.075,11.148L51.808,503.834z"/>
	<path style="fill:#FFEC8D;" d="M41.313,521.983c-1.892-5.183-6.081-8.85-10.987-10.31l-18.743,6.836
		c-2.814,4.278-3.661,9.781-1.766,14.966c1.888,5.18,6.077,8.845,10.985,10.304l18.74-6.836
		C42.358,532.666,43.201,527.165,41.313,521.983z M28.928,536.95c-5.092,1.857-10.729-0.765-12.588-5.859
		c-1.859-5.095,0.768-10.728,5.859-12.585c5.092-1.858,10.726,0.763,12.585,5.857C36.64,529.454,34.022,535.09,28.928,536.95z"/>
	<path style="fill:#13676D;" d="M22.2,518.506c-5.091,1.857-7.719,7.49-5.859,12.585c1.858,5.095,7.496,7.717,12.588,5.859
		c5.094-1.86,7.712-7.496,5.856-12.587C32.926,519.269,27.292,516.648,22.2,518.506z"/>
	<path style="fill:#E8CD58;" d="M50.037,518.798c1.89,5.185,6.081,8.85,10.987,10.31l18.742-6.841
		c2.819-4.275,3.662-9.775,1.769-14.955c-1.89-5.186-6.075-8.852-10.987-10.314l-18.74,6.836
		C48.992,508.114,48.146,513.615,50.037,518.798z M62.421,503.832c5.097-1.858,10.727,0.764,12.589,5.86
		c1.855,5.089-0.765,10.725-5.863,12.583c-5.093,1.858-10.727-0.764-12.581-5.86C54.706,511.325,57.327,505.691,62.421,503.832z"/>
	<path style="fill:#053033;" d="M69.146,522.275c5.098-1.858,7.719-7.494,5.863-12.583c-1.862-5.097-7.492-7.719-12.589-5.86
		c-5.094,1.859-7.715,7.493-5.855,12.583C58.42,521.512,64.054,524.134,69.146,522.275z"/>
	<path style="fill:#4EA8C4;" d="M30.326,511.674c4.906,1.46,9.096,5.127,10.987,10.31c1.888,5.182,1.045,10.683-1.771,14.96
		l10.74-3.914l-9.214-25.272L30.326,511.674z"/>
	<path style="fill:#037982;" d="M50.037,518.798c-1.892-5.183-1.045-10.684,1.77-14.964l-10.74,3.923l9.214,25.272l10.742-3.922
		C56.118,527.648,51.927,523.982,50.037,518.798z"/>
	<polygon style="fill:#053033;" points="764.694,120.086 782.109,121.673 772.769,102.086 751.575,100.155 760.916,119.741 	"/>
	<polygon style="fill:#053033;" points="797.831,118.536 797.831,104.372 790.766,103.729 	"/>
	<polygon style="fill:#FFEC8D;" points="760.916,119.741 751.575,100.155 733.574,98.512 742.915,118.1 	"/>
	<polygon style="fill:#FFEC8D;" points="772.769,102.086 782.109,121.673 797.831,123.107 797.831,118.536 790.766,103.729 	"/>
	<polygon style="fill:#053033;" points="722.069,66.326 719.067,86.74 736.809,81.835 742.582,60.655 	"/>
	<polygon style="fill:#053033;" points="760.005,55.84 754.225,77.018 774.743,71.349 780.518,50.172 	"/>
	<polygon style="fill:#053033;" points="797.831,64.968 797.831,45.762 792.163,66.536 	"/>
	<polygon style="fill:#FFEC8D;" points="742.582,60.655 736.809,81.835 754.225,77.018 760.005,55.84 	"/>
	<polygon style="fill:#FFEC8D;" points="774.743,71.349 792.163,66.536 797.831,45.762 797.831,45.387 780.518,50.172 	"/>
	<path style="fill:#053033;" d="M733.574,98.512l-6.882-0.627c2.685,5.853,4.031,12.345,3.741,19.076l12.481,1.139L733.574,98.512z"
		/>
	<path style="fill:#053033;" d="M697.124,73.217c2.187,0.596,4.311,1.338,6.349,2.222l1.172-4.3L697.124,73.217z"/>
	<path style="fill:#FFEC8D;" d="M704.644,71.139l-1.172,4.3c5.133,2.217,11.367,6.217,15.595,11.301l3.002-20.414L704.644,71.139z"
		/>
	<path style="fill:#053033;" d="M723.906,116.366l2.6,0.237c0.268-6.823-1.362-13.36-4.435-19.14
		c-1.872-3.514-4.27-6.747-7.12-9.588c-3.549-3.542-7.791-6.471-12.526-8.591c-4.248-1.9-8.892-3.157-13.815-3.599
		c-0.079-0.013-0.156-0.015-0.236-0.022c-0.033-0.003-0.076-0.007-0.113-0.01l-3.384,37.154l2.62,0.239L723.906,116.366z
		 M715.304,102.524c1.694,0.154,2.938,1.646,2.785,3.337c-0.153,1.688-1.651,2.933-3.341,2.78c-1.689-0.155-2.935-1.648-2.779-3.336
		C712.122,103.612,713.615,102.371,715.304,102.524z M696.025,83.131c1.692,0.155,2.933,1.658,2.779,3.342
		c-0.152,1.689-1.646,2.935-3.339,2.781c-1.688-0.154-2.936-1.65-2.782-3.337C692.839,84.222,694.334,82.977,696.025,83.131z
		 M694.429,100.621c1.691,0.155,2.936,1.65,2.782,3.339c-0.156,1.686-1.648,2.931-3.339,2.777c-1.685-0.153-2.938-1.65-2.781-3.335
		C691.243,101.71,692.74,100.466,694.429,100.621z"/>
	<path style="fill:#FFEC8D;" d="M695.466,89.254c1.692,0.154,3.187-1.092,3.339-2.781c0.153-1.684-1.087-3.187-2.779-3.342
		c-1.691-0.154-3.187,1.091-3.342,2.786C692.529,87.604,693.777,89.1,695.466,89.254z"/>
	<path style="fill:#FFEC8D;" d="M693.872,106.737c1.69,0.154,3.183-1.091,3.339-2.777c0.153-1.689-1.091-3.184-2.782-3.339
		c-1.689-0.155-3.186,1.088-3.338,2.781C690.934,105.087,692.188,106.585,693.872,106.737z"/>
	<path style="fill:#FFEC8D;" d="M714.748,108.641c1.69,0.153,3.188-1.091,3.341-2.78c0.152-1.691-1.091-3.183-2.785-3.337
		c-1.689-0.153-3.182,1.088-3.335,2.781C711.813,106.993,713.059,108.486,714.748,108.641z"/>
	<polygon style="fill:#4EA8C4;" points="758.398,189.102 692.396,183.083 692.826,178.411 758.825,184.438 760.49,166.185 
		694.49,160.164 694.914,155.502 760.915,161.521 762.58,143.268 696.578,137.25 697.004,132.588 763.004,138.605 764.694,120.086 
		760.916,119.741 742.915,118.1 730.434,116.961 723.906,116.366 687.498,113.046 679.512,200.585 756.712,207.624 	"/>
	<polygon style="fill:#037982;" points="760.49,166.185 758.828,184.438 797.831,187.99 797.831,169.589 	"/>
	<polygon style="fill:#037982;" points="756.712,207.624 797.831,211.373 797.831,192.696 758.402,189.102 	"/>
	<polygon style="fill:#037982;" points="762.58,143.268 760.916,161.521 797.831,164.887 797.831,146.483 	"/>
	<polygon style="fill:#037982;" points="764.694,120.086 763.007,138.605 797.831,141.782 797.831,123.107 782.109,121.673 	"/>
	<polygon style="fill:#FFEC8D;" points="696.578,137.25 762.58,143.268 763.004,138.605 697.004,132.588 	"/>
	
		<rect x="725.361" y="127.706" transform="matrix(0.0908 -0.9959 0.9959 0.0908 501.413 870.9237)" style="fill:#FFEC8D;" width="4.682" height="66.274"/>
	<polygon style="fill:#FFEC8D;" points="692.396,183.083 758.398,189.102 758.825,184.438 692.826,178.411 	"/>
	<polygon style="fill:#E8CD58;" points="763.004,138.605 762.581,143.268 797.831,146.483 797.831,141.782 	"/>
	<polygon style="fill:#E8CD58;" points="760.915,161.521 760.49,166.185 797.831,169.589 797.831,164.887 	"/>
	<polygon style="fill:#E8CD58;" points="758.825,184.438 758.398,189.102 797.831,192.696 797.831,187.99 	"/>
	<polygon style="fill:#053033;" points="797.831,457.964 797.831,450.744 793.93,458.578 	"/>
	<path style="fill:#EA4747;" d="M777.459,354.167l4.406,27.956l15.966-2.518V352.05c-2.586,1.144-5.34,2.009-8.264,2.471
		C785.416,355.176,781.336,354.997,777.459,354.167z"/>
	<polygon style="fill:#B7041E;" points="788.465,423.941 797.831,422.465 797.831,379.604 781.865,382.123 	"/>
	
		<rect x="767.498" y="367.673" transform="matrix(0.9878 -0.1559 0.1559 0.9878 -49.1319 124.9257)" style="fill:#FFEC8D;" width="8.509" height="15.946"/>
	
		<rect x="769.984" y="383.424" transform="matrix(0.9878 -0.1558 0.1558 0.9878 -51.5337 125.4327)" style="fill:#053033;" width="8.508" height="15.944"/>
	<path style="fill:#4EA8C4;" d="M779.219,288.926c-18.114,2.858-30.483,19.853-27.625,37.975
		c2.204,13.96,12.822,24.473,25.865,27.266c3.877,0.83,7.957,1.009,12.108,0.354c2.924-0.462,5.678-1.327,8.264-2.471v-5.727
		c-1.161,0.06-2.352-0.103-3.507-0.547c-4.405-1.693-6.604-6.641-4.909-11.043c1.359-3.544,4.822-5.62,8.416-5.436v-5.937
		c-2.074-2.981-2.006-6.852,0-9.731v-5.167c-1.231,1.23-2.833,2.114-4.686,2.405c-4.66,0.735-9.041-2.452-9.776-7.117
		c-0.736-4.662,2.452-9.036,7.109-9.771c2.805-0.442,5.485,0.548,7.353,2.406v-5.002
		C792.182,288.875,785.779,287.89,779.219,288.926z M763.408,302.574c1.696-4.405,6.644-6.606,11.046-4.91
		c4.409,1.699,6.605,6.64,4.913,11.052c-1.692,4.401-6.643,6.602-11.047,4.906C763.913,311.931,761.712,306.983,763.408,302.574z
		 M757.321,330.321c-2.968-3.672-2.405-9.055,1.271-12.031c3.67-2.96,9.051-2.397,12.022,1.272
		c2.972,3.671,2.397,9.058-1.274,12.024C765.67,334.561,760.292,333.991,757.321,330.321z M785.409,339.684
		c0.744,4.667-2.442,9.047-7.109,9.783c-4.664,0.735-9.041-2.452-9.777-7.118c-0.733-4.662,2.45-9.04,7.114-9.775
		C780.301,331.837,784.676,335.023,785.409,339.684z"/>
	<path style="fill:#FFEC8D;" d="M775.637,332.574c-4.664,0.734-7.848,5.113-7.114,9.775c0.736,4.666,5.113,7.853,9.777,7.118
		c4.667-0.736,7.853-5.116,7.109-9.783C784.676,335.023,780.301,331.837,775.637,332.574z"/>
	<path style="fill:#FFEC8D;" d="M770.614,319.563c-2.972-3.67-8.353-4.233-12.022-1.272c-3.676,2.977-4.238,8.359-1.271,12.031
		c2.971,3.67,8.349,4.24,12.018,1.265C773.012,328.62,773.586,323.234,770.614,319.563z"/>
	<path style="fill:#FFEC8D;" d="M768.32,313.623c4.404,1.696,9.354-0.504,11.047-4.906c1.692-4.412-0.504-9.353-4.913-11.052
		c-4.401-1.697-9.35,0.505-11.046,4.91C761.712,306.983,763.913,311.931,768.32,313.623z"/>
	<path style="fill:#FFEC8D;" d="M790.478,293.98c-4.657,0.736-7.846,5.11-7.109,9.771c0.735,4.665,5.116,7.852,9.776,7.117
		c1.852-0.292,3.454-1.175,4.686-2.405v-12.077C795.964,294.528,793.283,293.538,790.478,293.98z"/>
	<path style="fill:#FFEC8D;" d="M797.831,323.361v-9.731C795.825,316.509,795.757,320.38,797.831,323.361z"/>
	<path style="fill:#FFEC8D;" d="M789.415,334.733c-1.695,4.402,0.504,9.35,4.909,11.043c1.155,0.444,2.346,0.607,3.507,0.547
		v-17.025C794.237,329.113,790.774,331.189,789.415,334.733z"/>
	<path style="fill:#FFEC8D;" d="M775.396,651.301l5.528-33.077l-9.413-1.574l-5.524,33.071
		c-4.127,24.693,9.661,48.282,31.845,57.512v-10.527C781.831,688.195,772.252,670.134,775.396,651.301z"/>
	<polygon style="fill:#4EA8C4;" points="775.084,739.247 797.831,743.048 797.831,730.923 776.262,732.193 	"/>
	<path style="fill:#4EA8C4;" d="M784.031,650.317c-2.249,13.453,3.522,26.37,13.8,33.94v-86.346
		c-3.959,4.656-6.778,10.385-7.859,16.852L784.031,650.317z"/>
	<polygon style="fill:#EA4747;" points="797.831,533.734 797.831,509.452 790.014,512.304 	"/>
</g>
</svg>
