<svg version="1.2" xmlns="http://www.w3.org/2000/svg" viewBox="0 0 450 450" width="450" height="450">
	<title>cinema-pattern--005</title>
	<style>
		.s0 { fill: #ffffff } 
	</style>
	<g>
		<g>
			<g>
				<path class="s0" d="m77.2 167.3q-2.2-1.2-5.6-0.2c-7.7 2.3-18.9 6.8-26.7 10.1l2 1.2c7.7-3.3 18-7.4 25.2-9.5 1.8-0.5 3.2-0.5 4.1 0.1 1.3 0.7 1.5 2.1 1.6 2.9 0 1.6-0.7 3.6-1.5 4.1q-0.2 0-0.2 0.1c-0.1-0.1-0.6-0.8-0.5-3.5 0.1-1.2-0.6-1.8-0.9-2-1.5-0.8-4.1 0.3-7.5 1.8-1.7 0.8-8.5 4.4-15.9 8.5l1.9 1c7-3.8 13.2-7.1 14.7-7.8 1.4-0.6 5.1-2.3 5.8-1.9 0 0 0.1 0.1 0.1 0.3-0.1 2.9 0.3 4.6 1.4 5.2 0.4 0.2 1.1 0.4 2.1-0.2 1.5-1 2.4-3.6 2.3-5.7-0.1-2-1-3.6-2.4-4.5z"/>
			</g>
		</g>
		<g>
			<g>
				<path class="s0" d="m111.6 186.8c-1.5-0.8-3.3-0.7-5.1 0.3-1.8 0.9-3.6 3.1-3.7 4.9 0 1.1 0.6 1.6 1 1.8 1 0.6 2.7 0.1 5.1-1.4 0.2-0.1 0.3-0.1 0.3-0.1 0.7 0.4 1.2 4.4 1.4 5.9 0.2 1.7 0.5 8.7 0.9 16.7l1.9 1c-0.4-8.4-0.8-16.1-1-17.9-0.4-3.8-0.9-6.5-2.3-7.4-0.4-0.2-1.2-0.4-2.2 0.2-2.4 1.6-3.2 1.4-3.2 1.4q0 0 0-0.2c0-0.9 1.3-2.6 2.7-3.3 0.7-0.4 2-1 3.3-0.3 1 0.6 1.7 1.8 2.2 3.5 1.9 7.3 3.7 18.3 4.8 26.5l2.1 1.2c-1.2-8.5-3.1-20.3-5.1-28.1q-1-3.5-3.1-4.7z"/>
			</g>
		</g>
		<g>
			<path class="s0" d="m121.5 219.2l-76.5-43.2c-1.7-1-3.8-0.5-4.7 1.1l-12 21.3c-0.9 1.6-0.3 3.7 1.4 4.6l31.8 18c1.7 1 3.7 0.5 4.7-1.1 0.5-0.7 6.1-7.8 8.1-10.7 0.1-0.1 0.9-0.2 2.2 0.5 1.1 0.7 1.7 1.4 1.7 1.5-2.1 4.8-5.3 12.5-5.3 12.5-0.9 1.6-0.2 3.6 1.5 4.6l31.8 18c1.7 0.9 3.8 0.4 4.7-1.2l12-21.3c0.9-1.6 0.3-3.7-1.4-4.6zm-0.2 3.7l-12 21.3c-0.4 0.7-1.4 0.9-2.2 0.5l-31.8-18c-0.8-0.5-1.1-1.4-0.7-2.2 0 0 3.2-7.7 5.3-12.6 0.6-1.4-1-2.9-2.5-3.8h-0.1c-2-1.1-3.7-1.1-4.5 0-2.1 3-8.1 10.7-8.1 10.7l-0.1 0.2c-0.4 0.7-1.4 0.9-2.2 0.4l-31.8-18c-0.8-0.4-1.1-1.4-0.7-2.1l12-21.3c0.4-0.7 1.4-0.9 2.2-0.4l76.5 43.2c0.8 0.5 1.1 1.4 0.7 2.1z"/>
		</g>
		<g>
			<path class="s0" d="m70.9 195.2l-23.9-13.5c-1.7-0.9-3.8-0.3-4.8 1.4l-7 14.5c-0.9 1.6-0.3 3.8 1.4 4.7l22 12.5c1.7 0.9 3.8 0.3 4.7-1.3l8.9-13.5c1-1.7 0.4-3.8-1.3-4.8zm-0.3 3.8l-8.8 13.6c-0.5 0.7-1.5 1-2.3 0.6l-22-12.5c-0.8-0.4-1.1-1.4-0.6-2.3l6.9-14.5c0.5-0.8 1.5-1 2.3-0.6l23.9 13.5c0.8 0.5 1.1 1.5 0.6 2.2z"/>
		</g>
		<g>
			<path class="s0" d="m115.5 220.5l-23.9-13.5c-1.6-1-3.8-0.4-4.7 1.3l-7 14.5c-0.9 1.7-0.4 3.8 1.3 4.8l22.1 12.4c1.6 1 3.8 0.4 4.7-1.2l8.9-13.6c0.9-1.6 0.3-3.8-1.4-4.7zm-0.2 3.8l-8.9 13.5c-0.4 0.8-1.4 1.1-2.2 0.6l-22.1-12.4c-0.8-0.5-1-1.5-0.6-2.3l7-14.5c0.4-0.8 1.4-1.1 2.2-0.6l23.9 13.5c0.8 0.4 1.1 1.4 0.7 2.2z"/>
		</g>
	</g>
	<g>
		<g>
			<g>
				<path class="s0" d="m287.6 221.6q-2.3 0.6-4.2 3.6c-4.1 6.9-9.2 17.8-12.7 25.6l2.3-0.6c3.4-7.6 8.1-17.6 12-24.1 0.9-1.5 2-2.5 3.1-2.7 1.4-0.4 2.5 0.5 3.1 1.1 1.1 1.1 1.9 3.1 1.7 4q-0.1 0.1-0.1 0.2c-0.1 0-0.9-0.2-2.7-2.2-0.8-1-1.6-0.9-2.1-0.8-1.6 0.4-2.8 2.9-4.2 6.4-0.7 1.7-3.2 9-5.9 17l2.1-0.5c2.5-7.6 4.8-14.2 5.5-15.8 0.6-1.4 2.1-5.1 3-5.3 0 0 0 0 0.2 0.2 1.9 2.1 3.4 3.1 4.5 2.8 0.4-0.1 1.2-0.4 1.4-1.5 0.5-1.8-0.7-4.3-2.1-5.8-1.4-1.4-3.2-2-4.9-1.6z"/>
			</g>
		</g>
		<g>
			<g>
				<path class="s0" d="m326.1 212.4c-1.6 0.4-2.9 1.7-3.6 3.7-0.6 1.9-0.5 4.7 0.7 6.1 0.8 0.8 1.6 0.8 1.9 0.7 1.2-0.3 2.2-1.8 2.8-4.6 0.1-0.2 0.2-0.3 0.2-0.3 0.8-0.2 3.9 2.5 5 3.5 1.3 1 6.4 6 12 11.6l2.1-0.6c-6-5.9-11.5-11.3-12.9-12.4-2.9-2.5-5-4.2-6.7-3.9-0.4 0.1-1.1 0.5-1.4 1.7-0.7 2.8-1.4 3.2-1.4 3.2q0 0-0.2-0.2c-0.6-0.7-0.8-2.8-0.3-4.3 0.2-0.7 0.9-2.1 2.3-2.4 1-0.3 2.4 0.1 4 1.1 6.3 4 15 10.8 21.5 16.1l2.3-0.6c-6.6-5.3-16.1-12.8-22.9-17.1q-3-1.9-5.4-1.3z"/>
			</g>
		</g>
		<g>
			<path class="s0" d="m359.6 231.8c-0.4-1.8-2.3-2.9-4.2-2.4l-85.5 20.4c-1.8 0.4-3 2.2-2.6 4l5.7 23.8c0.4 1.8 2.3 2.9 4.2 2.4l35.5-8.4c1.9-0.5 3-2.3 2.7-4-0.1-0.9-0.9-9.9-1.4-13.5 0-0.1 0.6-0.7 2-1 1.3-0.3 2.1-0.2 2.2-0.2 1.8 5 4.7 12.8 4.7 12.8 0.4 1.8 2.3 2.9 4.2 2.4l35.5-8.4c1.9-0.5 3.1-2.3 2.7-4.1zm2.6 26.1l-35.6 8.4c-0.9 0.2-1.8-0.2-2-1.1 0 0-2.9-7.9-4.7-12.9-0.5-1.4-2.6-1.4-4.3-1h-0.2c-2.2 0.6-3.4 1.7-3.2 3.1 0.5 3.6 1.3 13.3 1.3 13.4v0.1c0.2 0.8-0.4 1.6-1.2 1.8l-35.6 8.5c-0.9 0.2-1.8-0.3-2-1.1l-5.6-23.7c-0.2-0.8 0.4-1.7 1.2-1.9l85.5-20.3c0.9-0.2 1.8 0.2 2 1l5.6 23.8c0.2 0.8-0.3 1.6-1.2 1.9z"/>
		</g>
		<g>
			<path class="s0" d="m306.2 248.9c-0.4-1.9-2.3-3.1-4.2-2.6l-26.7 6.3c-1.9 0.5-3 2.4-2.6 4.3l4.8 15.3c0.4 1.9 2.3 3.1 4.2 2.6l24.6-5.8c1.9-0.5 3.1-2.4 2.6-4.2zm-0.3 18.3l-24.6 5.9c-0.9 0.2-1.8-0.4-2-1.3l-4.8-15.3c-0.2-0.9 0.3-1.8 1.2-2l26.7-6.4c0.9-0.2 1.8 0.4 2 1.2l2.7 15.9c0.2 0.9-0.3 1.8-1.2 2z"/>
		</g>
		<g>
			<path class="s0" d="m356.1 237c-0.4-1.9-2.3-3.1-4.2-2.6l-26.7 6.3c-1.9 0.5-3 2.4-2.6 4.3l4.8 15.3c0.4 1.9 2.3 3.1 4.2 2.6l24.6-5.8c1.9-0.5 3.1-2.4 2.6-4.2zm-0.3 18.3l-24.6 5.9c-0.9 0.2-1.8-0.3-2-1.3l-4.8-15.3c-0.2-0.9 0.4-1.8 1.2-2l26.7-6.4c0.9-0.2 1.8 0.4 2 1.2l2.7 15.9c0.2 0.9-0.3 1.8-1.2 2z"/>
		</g>
	</g>
	<g>
		<g>
			<g>
				<g>
					<path class="s0" d="m138.1 89.1l-4.5-10.3c-0.8 0.3-1.7-0.1-2.1-0.9l-37.4 16.3-37.4 16.3c0.4 0.8 0 1.7-0.8 2l4.5 10.4 8 18.4c0.8-0.4 1.7 0 2.1 0.8l34.9-15.2q0 0 0 0l2.5-1.1 2.4-1q0 0 0 0l35-15.3c-0.4-0.8 0-1.7 0.8-2l-8-18.4zm4.8 19.3l-35.8 15.6-35.8 15.6c-0.3-0.8-1.3-1.2-2.1-0.9l-6.6-15.2-4.3-9.9c0.8-0.3 1.2-1.2 0.9-2l32.6-14.2 3.1-1.4 3.2-1.3 32.6-14.2c0.3 0.8 1.3 1.1 2.1 0.8l4.3 9.9 6.6 15.2c-0.8 0.3-1.2 1.2-0.8 2z"/>
				</g>
			</g>
			<g>
				<g>
					<path class="s0" d="m48.7 108.7l17.5 40.3 87.4-38-17.5-40.3zm18.4 37.9l-16.1-36.9 84.1-36.6 16.1 37z"/>
				</g>
			</g>
			<g>
				<path fill-rule="evenodd" class="s0" d="m66.8 128.2l43.7-19 0.7 1.7-43.7 19z"/>
			</g>
			<g>
				<path fill-rule="evenodd" class="s0" d="m68.7 132.5l43.6-19 0.8 1.7-43.7 19z"/>
			</g>
			<g>
				<path fill-rule="evenodd" class="s0" d="m114.5 96.5l16.9-7.4 0.7 1.7-16.9 7.4z"/>
			</g>
			<g>
				<path fill-rule="evenodd" class="s0" d="m118.5 105.7l16.9-7.3 0.7 1.6-16.9 7.4z"/>
			</g>
			<g>
				<path fill-rule="evenodd" class="s0" d="m120.3 110l17-7.3 0.7 1.6-16.9 7.4z"/>
			</g>
			<g>
				<path fill-rule="evenodd" class="s0" d="m74.9 112.1l-0.5-1.1-4.4 1.9 0.5 1.1 1.5-0.7 2 4.6 1.3-0.6-2-4.6z"/>
				<path fill-rule="evenodd" class="s0" d="m75.3 110.6l1.3-0.5 2.4 5.6-1.3 0.6z"/>
				<path class="s0" d="m82.3 113.1c-0.8 0.3-1.6-0.1-2.1-1.3-0.5-1.1-0.2-2 0.6-2.4 0.4-0.2 0.7-0.1 1.1 0l0.4-1.1c-0.6-0.2-1.3-0.3-2 0-1.5 0.6-2.2 2.3-1.4 4.2 0.8 1.9 2.4 2.3 3.9 1.7 0.7-0.3 1.2-0.9 1.4-1.6l-1-0.5c-0.2 0.4-0.4 0.8-0.9 1z"/>
				<path fill-rule="evenodd" class="s0" d="m87.3 105.4l-1.4 0.6-0.6 3h-0.1l-1-2.3-1.3 0.6 2.5 5.6 1.3-0.5-0.7-1.5 0.3-1.2 2.4 1.8 1.4-0.6-3.5-2.5z"/>
				<path fill-rule="evenodd" class="s0" d="m91.5 109l-0.5-1.3 1.9-0.8-0.5-1.1-1.9 0.8-0.5-1.1 2.3-1-0.5-1.1-3.5 1.6 2.4 5.6 3.7-1.6-0.5-1z"/>
				<path fill-rule="evenodd" class="s0" d="m97.4 102.3l-0.5-1.1-4.3 1.9 0.4 1.1 1.6-0.7 2 4.6 1.3-0.6-2-4.6z"/>
			</g>
			<g>
				<path class="s0" d="m107.4 92.7c-0.5 0.2-0.7 0.8-0.5 1.3 0.2 0.5 0.8 0.7 1.3 0.5 0.5-0.2 0.7-0.8 0.5-1.3-0.2-0.5-0.8-0.7-1.3-0.5z"/>
			</g>
			<g>
				<path class="s0" d="m109.4 97.2c-0.5 0.2-0.7 0.8-0.5 1.3 0.2 0.5 0.8 0.7 1.3 0.5 0.5-0.2 0.7-0.8 0.5-1.3-0.2-0.5-0.8-0.7-1.3-0.5z"/>
			</g>
			<g>
				<path class="s0" d="m111.3 101.7c-0.5 0.2-0.7 0.8-0.5 1.3 0.2 0.5 0.8 0.7 1.3 0.5 0.5-0.2 0.7-0.8 0.5-1.3-0.2-0.5-0.8-0.7-1.3-0.5z"/>
			</g>
			<g>
				<path class="s0" d="m113.3 106.2c-0.5 0.3-0.7 0.8-0.5 1.3 0.2 0.5 0.8 0.7 1.3 0.5 0.5-0.2 0.7-0.8 0.5-1.3-0.2-0.5-0.8-0.7-1.3-0.5z"/>
			</g>
			<g>
				<path class="s0" d="m115.3 110.8c-0.5 0.2-0.7 0.8-0.5 1.3 0.2 0.5 0.8 0.7 1.3 0.5 0.5-0.2 0.7-0.8 0.5-1.3-0.2-0.5-0.8-0.7-1.3-0.5z"/>
			</g>
			<g>
				<path class="s0" d="m117.3 115.4c-0.5 0.2-0.8 0.8-0.5 1.2 0.2 0.5 0.8 0.8 1.2 0.6 0.5-0.3 0.8-0.8 0.6-1.3-0.3-0.5-0.8-0.8-1.3-0.5z"/>
			</g>
		</g>
		<g>
			<g>
				<g>
					<path class="s0" d="m115.7 46.3l-7.4-8.4c-0.7 0.5-1.7 0.5-2.2-0.2l-30.7 26.9-30.7 26.9c0.6 0.6 0.5 1.6-0.1 2.2l7.4 8.5 4 4.6 1.7-0.8-3.4-3.9-7.1-8.1c0.7-0.5 0.7-1.5 0.2-2.2l26.7-23.4 2.6-2.3 2.6-2.3 26.7-23.4c0.6 0.6 1.6 0.7 2.3 0.1l7.1 8.1 10.9 12.5c-0.7 0.6-0.7 1.6-0.2 2.2l-29.2 25.7 6-2.6 25.9-22.8c-0.6-0.6-0.5-1.6 0.1-2.2z"/>
				</g>
			</g>
			<g>
				<g>
					<path fill-rule="evenodd" class="s0" d="m36.5 92.3l14.6 16.6 1.7-0.8-13.7-15.6 68.9-60.5 26.6 30.4-23.2 20.3 5.5-2.4 20.2-17.8-28.9-33z"/>
				</g>
			</g>
			<g>
				<path fill-rule="evenodd" class="s0" d="m60 105l5.5-2.4 31.2-27.3-1.2-1.4z"/>
			</g>
			<g>
				<path fill-rule="evenodd" class="s0" d="m74.2 98.8l5.5-2.3 20.1-17.7-1.2-1.3z"/>
			</g>
			<g>
				<path fill-rule="evenodd" class="s0" d="m95.4 60.6l14-12.2 1.1 1.4-13.9 12.2z"/>
			</g>
			<g>
				<path fill-rule="evenodd" class="s0" d="m102.1 68.2l13.9-12.2 1.2 1.3-13.9 12.2z"/>
			</g>
			<g>
				<path fill-rule="evenodd" class="s0" d="m105.2 71.7l13.9-12.2 1.2 1.4-13.9 12.2z"/>
			</g>
			<g>
				<path fill-rule="evenodd" class="s0" d="m62.5 87.5l-0.8-0.9-3.6 3.2 0.8 0.8 1.3-1.1 3.3 3.8 1-0.9-3.3-3.8z"/>
				<path fill-rule="evenodd" class="s0" d="m62.4 86l1.1-1 4.1 4.7-1.1 0.9z"/>
				<path class="s0" d="m69.9 86.2c-0.7 0.6-1.6 0.4-2.4-0.5-0.9-1-0.9-2-0.2-2.5 0.3-0.3 0.7-0.4 1.1-0.4v-1.1c-0.6-0.1-1.3 0.1-1.9 0.6-1.2 1-1.4 2.8-0.1 4.3 1.4 1.6 3.1 1.6 4.3 0.5 0.6-0.5 0.9-1.2 0.9-2l-1.2-0.1c0 0.4-0.1 0.8-0.5 1.2z"/>
				<path fill-rule="evenodd" class="s0" d="m72.3 77.3l-1.1 1 0.2 3.1v0.1l-1.6-2-1.1 1 4.1 4.6 1-0.9-1.1-1.3v-1.1l2.8 0.9 1.2-1-4.2-1.3z"/>
				<path fill-rule="evenodd" class="s0" d="m77.4 79.5l-0.9-1.1 1.6-1.4-0.8-0.8-1.6 1.3-0.8-0.9 1.9-1.6-0.8-0.9-2.9 2.5 4 4.7 3-2.6-0.7-0.9z"/>
				<path fill-rule="evenodd" class="s0" d="m81 71.3l-0.8-0.9-3.6 3.2 0.8 0.8 1.3-1.1 3.2 3.8 1.1-0.9-3.3-3.8z"/>
			</g>
			<g>
				<path class="s0" d="m87.6 59.1c-0.4 0.4-0.5 1-0.1 1.4 0.3 0.4 1 0.5 1.4 0.1 0.4-0.4 0.4-1 0.1-1.4-0.4-0.4-1-0.4-1.4-0.1z"/>
			</g>
			<g>
				<path class="s0" d="m90.8 62.8c-0.4 0.4-0.4 1-0.1 1.4 0.4 0.4 1 0.5 1.4 0.1 0.4-0.4 0.5-1 0.1-1.4-0.3-0.4-1-0.4-1.4-0.1z"/>
			</g>
			<g>
				<path class="s0" d="m94 66.5c-0.4 0.3-0.4 1-0.1 1.4 0.4 0.4 1 0.4 1.4 0.1 0.4-0.4 0.5-1 0.1-1.4-0.3-0.4-1-0.5-1.4-0.1z"/>
			</g>
			<g>
				<path class="s0" d="m97.3 70.2c-0.4 0.4-0.4 1-0.1 1.4 0.4 0.4 1 0.5 1.4 0.1 0.4-0.4 0.5-1 0.1-1.4-0.4-0.4-1-0.4-1.4-0.1z"/>
			</g>
			<g>
				<path class="s0" d="m100.6 74c-0.4 0.4-0.4 1-0.1 1.4 0.4 0.4 1 0.4 1.4 0.1 0.4-0.4 0.5-1 0.1-1.4-0.4-0.4-1-0.5-1.4-0.1z"/>
			</g>
			<g>
				<path class="s0" d="m103.9 77.7c-0.4 0.4-0.5 1-0.1 1.4 0.3 0.4 1 0.4 1.4 0.1 0.4-0.4 0.4-1 0-1.4-0.3-0.4-0.9-0.4-1.3-0.1z"/>
			</g>
		</g>
	</g>
	<g>
		<g>
			<g>
				<g>
					<path class="s0" d="m380.3 337.2c-0.5 0.7-1.5 0.9-2.2 0.5l-5.8 9.6-10.4 17.2c0.8 0.5 1 1.4 0.6 2.2l32.6 19.7q0 0 0 0l2.3 1.3 2.3 1.4q0 0 0 0l32.7 19.7c0.5-0.8 1.4-1 2.2-0.6l10.3-17.2 5.1-8.5v-2q-0.1-0.5 0-0.9v-0.5l-34.8-20.9zm36.9 24.5l30.4 18.3c-0.4 0.8-0.2 1.8 0.6 2.2l-5.6 9.2-8.5 14.2c-0.8-0.4-1.7-0.2-2.2 0.6l-33.4-20.1-33.4-20.1c0.4-0.8 0.2-1.8-0.6-2.2l8.6-14.2 5.5-9.2c0.8 0.4 1.7 0.2 2.2-0.6l30.4 18.4 3 1.7 3 1.8z"/>
				</g>
			</g>
			<g>
				<g>
					<path fill-rule="evenodd" class="s0" d="m354.3 367.2l81.7 49.2 14-23.3v-3.5l-14.6 24.3-78.6-47.3 20.8-34.5 72.4 43.5v-2.1l-73-43.9z"/>
				</g>
			</g>
			<g>
				<path fill-rule="evenodd" class="s0" d="m370.7 357.2l1-1.6 40.8 24.6-1 1.5z"/>
			</g>
			<g>
				<path fill-rule="evenodd" class="s0" d="m368.3 361.2l0.9-1.6 40.8 24.6-0.9 1.5z"/>
			</g>
			<g>
				<path fill-rule="evenodd" class="s0" d="m424.2 377.6l0.9-1.6 15.9 9.6-1 1.5z"/>
			</g>
			<g>
				<path fill-rule="evenodd" class="s0" d="m419 386.2l0.9-1.5 15.9 9.5-0.9 1.5z"/>
			</g>
			<g>
				<path fill-rule="evenodd" class="s0" d="m416.6 390.3l0.9-1.6 15.9 9.5-1 1.6z"/>
			</g>
			<g>
				<path fill-rule="evenodd" class="s0" d="m385.4 350.4l1.4 0.9-2.5 4.3 1.2 0.7 2.5-4.3 1.5 0.9 0.6-1-4.1-2.5z"/>
				<path fill-rule="evenodd" class="s0" d="m387.7 357.6l3.2-5.3 1.2 0.7-3.2 5.3z"/>
				<path class="s0" d="m395.7 355.1c-1.4-0.8-3.2-0.5-4.2 1.2-1.1 1.8-0.5 3.4 0.8 4.3 0.7 0.4 1.4 0.4 2.2 0.2l-0.2-1.1c-0.5 0.1-0.9 0.1-1.3-0.2-0.8-0.4-0.9-1.4-0.3-2.5 0.7-1 1.6-1.3 2.4-0.9 0.3 0.3 0.5 0.6 0.6 1l1.1-0.4c-0.1-0.6-0.5-1.2-1.1-1.6z"/>
				<path fill-rule="evenodd" class="s0" d="m398 359.6v-0.1l1.3-2.1-1.2-0.8-3.2 5.3 1.2 0.8 0.8-1.5 1.1-0.4v3l1.3 0.8v-4.3l2.9-1.2-1.3-0.8z"/>
				<path fill-rule="evenodd" class="s0" d="m399.9 364.9l3.4 2.1 0.6-1-2.2-1.3 0.7-1.3 1.8 1.1 0.6-1-1.8-1.1 0.6-1 2.2 1.2 0.6-1-3.4-2z"/>
				<path fill-rule="evenodd" class="s0" d="m406.4 363.1l1.5 0.8-2.6 4.3 1.2 0.7 2.6-4.2 1.4 0.8 0.7-1-4.2-2.4z"/>
			</g>
			<g>
				<path class="s0" d="m424.1 368.1c-0.4-0.3-1-0.1-1.3 0.4-0.3 0.4-0.1 1 0.3 1.3 0.5 0.3 1.1 0.1 1.4-0.3 0.3-0.5 0.1-1.1-0.4-1.4z"/>
			</g>
			<g>
				<path class="s0" d="m421.6 372.4c-0.5-0.3-1.1-0.2-1.3 0.3-0.3 0.4-0.2 1.1 0.3 1.3 0.5 0.3 1.1 0.2 1.3-0.3 0.3-0.5 0.2-1.1-0.3-1.3z"/>
			</g>
			<g>
				<path class="s0" d="m419.1 376.5c-0.5-0.3-1.1-0.1-1.3 0.4-0.3 0.4-0.2 1 0.3 1.3 0.4 0.3 1.1 0.1 1.3-0.3 0.3-0.5 0.2-1.1-0.3-1.4z"/>
			</g>
			<g>
				<path class="s0" d="m416.5 380.8c-0.4-0.3-1-0.2-1.3 0.3-0.3 0.5-0.1 1.1 0.3 1.4 0.5 0.2 1.1 0.1 1.4-0.4 0.2-0.4 0.1-1-0.4-1.3z"/>
			</g>
			<g>
				<path class="s0" d="m413.9 385.1c-0.4-0.3-1-0.2-1.3 0.3-0.3 0.5-0.1 1.1 0.3 1.3 0.5 0.3 1.1 0.2 1.4-0.3 0.3-0.4 0.1-1-0.4-1.3z"/>
			</g>
			<g>
				<path class="s0" d="m411.4 389.3c-0.5-0.3-1.1-0.1-1.3 0.3-0.3 0.5-0.2 1.1 0.3 1.4 0.5 0.3 1.1 0.1 1.3-0.4 0.3-0.4 0.2-1-0.3-1.3z"/>
			</g>
		</g>
		<g>
			<g>
				<g>
					<path fill-rule="evenodd" class="s0" d="m426.7 360.8l23.3 5.5v-2.1l-28.9-6.8z"/>
					<path class="s0" d="m388.7 316.4c-0.2 0.8-1 1.3-1.9 1.1l-2.6 11-1.4 5.9 1.6 1 1.2-5.1 2.5-10.4c0.9 0.2 1.7-0.4 1.9-1.2l34.6 8.2 3.4 0.8 3.3 0.8 18.7 4.4v-2.1l-21.6-5z"/>
				</g>
			</g>
			<g>
				<g>
					<path fill-rule="evenodd" class="s0" d="m439.7 368.6l10.3 2.5v-1.9l-15.4-3.6z"/>
					<path fill-rule="evenodd" class="s0" d="m378.3 331.6l1.6 1 4.8-20.3 65.3 15.5v-1.9l-66.7-15.8z"/>
				</g>
			</g>
			<g>
				<path fill-rule="evenodd" class="s0" d="m391.7 339.7l40.4 9.6 0.4-1.8-45.9-10.8z"/>
			</g>
			<g>
				<path fill-rule="evenodd" class="s0" d="m405 347.7l26 6.2 0.4-1.8-31.5-7.4z"/>
			</g>
			<g>
				<path fill-rule="evenodd" class="s0" d="m442.9 341.5l7.1 1.7v-1.9l-6.7-1.6z"/>
			</g>
			<g>
				<path fill-rule="evenodd" class="s0" d="m440.6 351.3l9.4 2.2v-1.8l-9-2.2z"/>
			</g>
			<g>
				<path fill-rule="evenodd" class="s0" d="m439.5 355.9l10.5 2.5v-1.9l-10.1-2.4z"/>
			</g>
			<g>
				<path fill-rule="evenodd" class="s0" d="m397.7 327.4l1.6 0.4-1.1 4.9 1.3 0.3 1.2-4.9 1.6 0.4 0.3-1.1-4.7-1.1z"/>
				<path fill-rule="evenodd" class="s0" d="m402.1 333.6l1.4-6 1.4 0.3-1.4 6.1z"/>
				<path class="s0" d="m408.9 328.7c-1.6-0.3-3.1 0.5-3.6 2.5-0.5 2 0.5 3.4 2.1 3.8 0.7 0.1 1.5 0 2.1-0.5l-0.6-1c-0.3 0.3-0.7 0.4-1.2 0.3-0.9-0.2-1.3-1.1-1-2.3 0.3-1.2 1.1-1.8 1.9-1.6 0.5 0.1 0.7 0.4 0.9 0.7l1-0.7c-0.3-0.5-0.9-1-1.6-1.2z"/>
				<path fill-rule="evenodd" class="s0" d="m414.8 330.3l-2.4 2 0.6-2.5-1.4-0.3-1.4 6 1.4 0.3 0.4-1.6 0.9-0.7 0.8 2.9 1.5 0.3-1.3-4.1 2.4-2z"/>
				<path fill-rule="evenodd" class="s0" d="m415.9 336.9l3.8 0.9 0.3-1.2-2.5-0.6 0.3-1.4 2.1 0.5 0.2-1.1-2-0.5 0.3-1.2 2.4 0.6 0.3-1.2-3.8-0.9z"/>
				<path fill-rule="evenodd" class="s0" d="m421.6 333.1l1.6 0.4-1.1 4.8 1.3 0.3 1.2-4.8 1.6 0.4 0.3-1.2-4.7-1.1z"/>
			</g>
			<g>
				<path class="s0" d="m440 332.5c-0.6-0.1-1.1 0.2-1.2 0.7-0.1 0.5 0.2 1.1 0.7 1.2 0.6 0.1 1.1-0.2 1.2-0.7 0.1-0.6-0.2-1.1-0.7-1.2z"/>
			</g>
			<g>
				<path class="s0" d="m438.8 337.3c-0.5-0.1-1 0.2-1.1 0.7-0.2 0.5 0.2 1.1 0.7 1.2 0.5 0.1 1-0.2 1.2-0.7 0.1-0.6-0.2-1.1-0.8-1.2z"/>
			</g>
			<g>
				<path class="s0" d="m437.7 342c-0.5-0.1-1 0.2-1.2 0.7-0.1 0.6 0.2 1.1 0.8 1.2 0.5 0.2 1-0.2 1.2-0.7 0.1-0.5-0.2-1.1-0.8-1.2z"/>
			</g>
			<g>
				<path class="s0" d="m436.6 346.9c-0.5-0.2-1.1 0.2-1.2 0.7-0.1 0.5 0.2 1 0.7 1.2 0.6 0.1 1.1-0.2 1.2-0.8 0.1-0.5-0.2-1-0.7-1.1z"/>
			</g>
			<g>
				<path class="s0" d="m435.4 351.7c-0.5-0.1-1 0.2-1.2 0.8-0.1 0.5 0.2 1 0.8 1.1 0.5 0.2 1-0.2 1.2-0.7 0.1-0.5-0.2-1-0.8-1.2z"/>
			</g>
			<g>
				<path class="s0" d="m434.3 356.5c-0.5-0.1-1.1 0.2-1.2 0.8-0.1 0.5 0.2 1 0.7 1.1 0.6 0.2 1.1-0.2 1.2-0.7 0.1-0.5-0.2-1-0.7-1.2z"/>
			</g>
		</g>
	</g>
	<g>
		<g>
			<g>
				<g>
					<path class="s0" d="m0 380.5v2l0.7-1.1c-0.4-0.2-0.6-0.6-0.7-0.9z"/>
					<path class="s0" d="m0 379.1v0.5q0.1-0.2 0.2-0.4z"/>
				</g>
			</g>
			<g>
				<g>
					<path fill-rule="evenodd" class="s0" d="m0 373.5v2.1l6.2 3.7-6.2 10.3v3.5l8.7-14.4z"/>
				</g>
			</g>
		</g>
		<g>
			<g>
				<g>
					<path class="s0" d="m12.1 367.5l4.6-19.5 2.6-11c-0.8-0.2-1.4-1-1.2-1.9l-18.1-4.3v2.1l15.9 3.7c-0.2 0.9 0.4 1.7 1.2 1.9l-2.5 10.5-3.8 16.2c-0.8-0.2-1.7 0.3-1.9 1.1l-8.9-2.1v2.1l10.2 2.4c0.2-0.9 1.1-1.4 1.9-1.2z"/>
				</g>
			</g>
			<g>
				<g>
					<path fill-rule="evenodd" class="s0" d="m26.1 332.1l-26.1-6.2v1.9l23.9 5.6-9.3 39.3-14.6-3.5v1.9l16 3.7z"/>
				</g>
			</g>
			<g>
				<path fill-rule="evenodd" class="s0" d="m11.3 344l-11.3-2.7v1.9l10.9 2.6z"/>
			</g>
			<g>
				<path fill-rule="evenodd" class="s0" d="m9 353.8l-9-2.1v1.8l8.6 2z"/>
			</g>
			<g>
				<path fill-rule="evenodd" class="s0" d="m7.9 358.4l-7.9-1.9v1.9l7.5 1.7z"/>
			</g>
		</g>
	</g>
	<g>
		<g>
			<g>
				<g>
					<path fill-rule="evenodd" class="s0" d="m58.2 34.8l0.6-34.8h-1.9l-0.5 33.2-22.2 4-14.4-37.2h-1.9l15.2 39.3z"/>
				</g>
			</g>
		</g>
		<g>
			<g>
				<path class="s0" d="m20.1 3.7q0.3 0.9 0.5 1.7l8.2-5.4h-3.4l-5.3 3.6q0 0 0 0.1z"/>
			</g>
		</g>
		<g>
			<g>
				<path class="s0" d="m25 16.1q0.1 0.2 0.2 0.4l24.7-16.5h-3.3l-22.1 14.7q0.3 0.7 0.5 1.4z"/>
			</g>
		</g>
		<g>
			<g>
				<path class="s0" d="m58.1 6.7l-29.3 19.6q0.4 0.8 0.7 1.8l28.6-19.1q0-0.7 0-1.3 0-0.5 0-1z"/>
			</g>
		</g>
		<g>
			<g>
				<path class="s0" d="m33.8 38.8l23.8-15.9q0-1.2 0.1-2.3l-24.8 16.5q0.5 0.8 0.9 1.7z"/>
			</g>
		</g>
	</g>
	<g>
		<g>
			<g>
				<g>
					<path fill-rule="evenodd" class="s0" d="m320.2 308.7l1.5 1.1 22.2-29.4 2.5 2-22.2 29.3 1.5 1.1 23.3-30.8-5.5-4.1z"/>
				</g>
				<g>
					<path fill-rule="evenodd" class="s0" d="m336.8 328l-39.6 35.4-17.9-13.5 23.3-47.7 0.7-1-1.5-1.1-0.8 1-24.1 49.4 20.4 15.3 40.8-36.5 0.8-1.1-1.4-1.1z"/>
				</g>
			</g>
			<g>
				<path class="s0" d="m299.8 300.4l39.5 29.8 4.1-5.4-39.5-29.9zm41 24.9l-1.9 2.4-36.5-27.6 1.8-2.5z"/>
			</g>
		</g>
		<g>
			<g>
				<path class="s0" d="m294.3 316.7q0 0-0.1 0.1-0.4 0.8-0.9 1.5l43.8 10.5q0.2-0.3 0.4-0.6c0.3-0.5 0.3-0.8 0-1.2z"/>
			</g>
		</g>
		<g>
			<g>
				<path class="s0" d="m288.5 328.9q-0.1 0.1-0.2 0.3l38.3 9.2q0.3-0.2 0.6-0.4 0.6-0.5 1.2-1.1l-39.2-9.4q-0.3 0.7-0.7 1.4z"/>
			</g>
		</g>
		<g>
			<g>
				<path class="s0" d="m282.7 340.2l33.5 8q0.4-0.4 0.9-0.9 0.4-0.3 0.7-0.6l-34.2-8.2q-0.4 0.9-0.9 1.7z"/>
			</g>
		</g>
		<g>
			<g>
				<path class="s0" d="m277.8 350.6l27.8 6.7q0.9-0.8 1.8-1.5l-29-6.9q-0.3 0.9-0.6 1.7z"/>
			</g>
		</g>
	</g>
	<g>
		<g>
			<g>
				<g>
					<path class="s0" d="m93.3 361.6l-7.8-1.7 3.7-16.8-1.8-0.4-4.1 18.6 9.6 2.1c1.1 0.3 1.9 1 2.4 1.9l-34-7.6c0.8-0.7 1.9-0.9 3-0.7l9.8 2.2 4.1-18.6-1.8-0.4-3.7 16.8-8-1.8c-2.3-0.5-4.7 0.6-5.8 2.6l-0.6 1.1 39.3 8.9-0.1-1.3c-0.2-2.3-1.9-4.4-4.2-4.9z"/>
				</g>
			</g>
			<g>
				<g>
					<g>
						<path class="s0" d="m105.6 272.6l-13.2-3c-7.3-1.7-14.6 2.9-16.2 10.2l-9.3 41q0.9 0.2 1.8 0.4 0 0 0.1 0l9.2-41c1.4-6.3 7.7-10.3 14-8.8l12.5 2.8c6.3 1.4 10.3 7.7 8.9 14l-9.2 41.1q0.9 0.2 1.8 0.4l9.2-41.1c1.6-7.1-2.7-14.1-9.6-16.1z"/>
					</g>
					<g>
						<path class="s0" d="m54 321.9l1 0.3q0.3-0.8 0.7-1.4c0.1-0.1 0.4-0.4 0.6-0.7l1.6-6.9c-0.7 0.4-1.5 0.8-2.1 0.9z"/>
					</g>
					<g>
						<path class="s0" d="m117.5 326.1l-1.5 6.9c0.3 0.5 0.4 1.2 0.2 1.8q-0.1 0.6-0.3 1.1l1.3 0.2 1.8-8.2q-0.1-0.2-0.3-0.3c-0.3-0.3-0.8-0.9-1.2-1.5z"/>
					</g>
					<g>
						<path class="s0" d="m121.1 270.9l-42.7-9.6c-5.6-1.3-11.3 2.3-12.5 8l-6.6 29.1c0.6 0.4 1.2 0.9 1.6 1.5l6.8-30.2c1-4.7 5.7-7.6 10.3-6.6l42.7 9.6c4.6 1.1 7.6 5.7 6.5 10.3l-7.1 31.6q0.3-0.4 0.6-0.7c0.4-0.3 1.1-0.9 1.7-1.2l6.6-29.3c1.3-5.6-2.3-11.2-7.9-12.5z"/>
					</g>
				</g>
			</g>
			<g>
				<path class="s0" d="m97.6 275.5c-3.2-0.7-6 0.3-6.4 2.3-0.5 2 1.6 4.1 4.8 4.8 3.1 0.7 5.9-0.3 6.4-2.3 0.4-2-1.7-4.1-4.8-4.8zm-1.2 5.3c-2.4-0.5-3.6-1.9-3.4-2.6 0.1-0.7 1.8-1.4 4.2-0.9 2.3 0.5 3.5 1.9 3.4 2.6-0.2 0.7-1.9 1.4-4.2 0.9z"/>
			</g>
			<g>
				<g>
					<g>
						<path fill-rule="evenodd" class="s0" d="m53.2 313.6l-1.8-0.5-2.9 13 5.3 1.1 0.4-1.8-3.5-0.7z"/>
					</g>
					<g>
						<path fill-rule="evenodd" class="s0" d="m119.7 340.2l-4.2-1-0.4 1.8 6 1.4 2.8-12.6-1.8-0.4z"/>
					</g>
					<g>
						<path fill-rule="evenodd" class="s0" d="m49 312.6l-1.9-0.4-3.9 17.8 9.5 2.1 0.4-1.8-7.7-1.7z"/>
					</g>
					<g>
						<path fill-rule="evenodd" class="s0" d="m122.8 346l-8.4-1.9-0.4 1.8 10.2 2.3 3.9-17.5-1.8-0.4z"/>
					</g>
				</g>
				<g>
					<g>
						<path class="s0" d="m58.9 297.2l-9.9-2.2c-2.2-0.5-4.3 0.9-4.8 3l-2.2 9.7c-0.5 2.2 0.9 4.3 3 4.8l10 2.2c2.1 0.5 4.2-0.8 4.7-3l2.2-9.7c0.5-2.1-0.9-4.3-3-4.8zm1.2 4.4l-2.2 9.7c-0.2 1.2-1.4 1.9-2.5 1.6l-10-2.2c-1.1-0.3-1.8-1.4-1.6-2.6l2.2-9.7c0.3-1.1 1.4-1.8 2.6-1.6l9.9 2.2c1.1 0.3 1.9 1.4 1.6 2.6z"/>
					</g>
					<g>
						<path class="s0" d="m133.9 314.2l-10-2.2c-2.1-0.5-4.2 0.9-4.7 3l-2.2 9.7c-0.5 2.2 0.9 4.3 3 4.8l10 2.2c2.1 0.5 4.2-0.9 4.7-3l2.2-9.7c0.5-2.2-0.9-4.3-3-4.8zm1.2 4.4l-2.2 9.7c-0.2 1.1-1.4 1.9-2.5 1.6l-10-2.2c-1.1-0.3-1.8-1.4-1.6-2.6l2.2-9.7c0.2-1.1 1.4-1.9 2.5-1.6l10 2.2c1.1 0.3 1.9 1.4 1.6 2.6z"/>
					</g>
				</g>
			</g>
			<g>
				<path class="s0" d="m114.3 330.8l-55.3-12.4c-2.2-0.5-4.4 0.8-4.8 3l-2.2 9.6c-0.6 2.7 0.7 5.3 2.8 5.8l55.3 12.4c2.2 0.5 4.5-1.3 5.1-4l2.1-9.6c0.5-2.2-0.9-4.3-3-4.8zm1.2 4.4l-2.1 9.6c-0.4 1.7-1.7 2.8-2.9 2.6l-55.3-12.4c-1.1-0.3-1.8-1.9-1.4-3.6l2.2-9.6c0.2-1.2 1.4-1.9 2.6-1.6l55.3 12.4c1.1 0.3 1.9 1.4 1.6 2.6z"/>
			</g>
		</g>
		<g>
			<path fill-rule="evenodd" class="s0" d="m79.1 288.8l0.4-1.8 29.7 6.6-0.4 1.9z"/>
		</g>
		<g>
			<path fill-rule="evenodd" class="s0" d="m74.1 310.8l0.4-1.8 29.8 6.7-0.4 1.8z"/>
		</g>
	</g>
	<g>
		<g>
			<g>
				<g>
					<g>
						<path class="s0" d="m258.5 55h-2.1c-0.9 0-1.7 0.8-1.7 1.8v2.9h1.9v-2.7h1.6l0.1 2.7h1.9v-3c0-0.9-0.8-1.7-1.7-1.7z"/>
					</g>
					<g>
						<path fill-rule="evenodd" class="s0" d="m258.3 79.5h1.9v18.4h-1.9z"/>
					</g>
					<g>
						<path fill-rule="evenodd" class="s0" d="m254.7 79.5h2v18.4h-2z"/>
					</g>
				</g>
				<g>
					<g>
						<path class="s0" d="m320.1 55h-2.1c-1 0-1.7 0.7-1.7 1.7v3h1.9v-2.8h1.6v2.8h2v-3c0-1-0.8-1.7-1.7-1.7z"/>
					</g>
					<g>
						<path fill-rule="evenodd" class="s0" d="m319.8 79.4h2v18.4h-1.9z"/>
					</g>
					<g>
						<path fill-rule="evenodd" class="s0" d="m316.3 79.4h1.9l0.1 18.4h-2z"/>
					</g>
				</g>
			</g>
			<g>
				<path class="s0" d="m322 96.8h-67.5c-0.9 0-1.7 0.7-1.7 1.6-0.8 5-1.8 10.9-1.8 11.3 0 0.9 0.8 1.6 1.7 1.6h71.1c0.9 0 1.7-0.8 1.7-1.7 0-0.4-1-6.3-1.8-11.2 0-0.9-0.8-1.7-1.7-1.6zm-69 12.6c0.2-1.4 1.1-7 1.7-10.6l67.1-0.1c0.6 3.6 1.5 9.3 1.7 10.6z"/>
			</g>
			<g>
				<path class="s0" d="m323.2 58.8l-69.9 0.1c-0.9 0-1.7 0.7-1.7 1.7l0.1 18c0 0.9 0.7 1.7 1.7 1.7l69.8-0.1c1 0 1.7-0.8 1.7-1.7v-18c0-0.9-0.8-1.7-1.7-1.7zm-69.6 19.5v-17.5l69.4-0.1v17.5z"/>
			</g>
		</g>
		<g>
			<g>
				<path fill-rule="evenodd" class="s0" d="m266 110.2l40.7 38.6 1.4-1.4-39.3-37.2z"/>
			</g>
		</g>
		<g>
			<g>
				<path fill-rule="evenodd" class="s0" d="m265.9 147.4l1.3 1.4 40.7-38.6h-2.8z"/>
			</g>
		</g>
		<g>
			<path fill-rule="evenodd" class="s0" d="m271.6 142.3h30.7l0.1 2h-30.8z"/>
		</g>
		<g>
			<path class="s0" d="m267.2 65.6h-1.9v6.6h2c1.9 0 3.2-1.1 3.2-3.3 0-2.3-1.3-3.3-3.3-3.3zm-0.1 5.4h-0.3v-4.2h0.3c1.1 0 1.9 0.5 1.9 2.1 0 1.6-0.8 2.1-1.9 2.1z"/>
			<path fill-rule="evenodd" class="s0" d="m271.7 65.6h1.6v6.6h-1.5z"/>
			<path class="s0" d="m279.8 67.6c0-1.5-1.2-2-2.6-2h-2.4v6.6h1.5v-2.4h0.8l1.3 2.4h1.7l-1.5-2.6c0.7-0.4 1.2-1 1.2-2zm-2.7 1h-0.8v-1.8h0.8c0.8 0 1.2 0.2 1.2 0.8 0 0.7-0.4 1-1.2 1z"/>
			<path fill-rule="evenodd" class="s0" d="m282.6 70.9v-1.5h2.2v-1.2h-2.2v-1.4h2.6v-1.2h-4.1v6.6h4.3l-0.1-1.3z"/>
			<path class="s0" d="m289.5 71c-1 0-1.6-0.8-1.6-2.1 0-1.4 0.7-2.2 1.6-2.2 0.5 0 0.8 0.2 1.1 0.5l0.9-0.9c-0.5-0.5-1.2-0.9-2-0.9-1.7 0-3.2 1.3-3.2 3.5 0 2.3 1.4 3.4 3.2 3.4 0.8 0 1.5-0.3 2.1-1l-0.9-0.9c-0.3 0.4-0.7 0.6-1.2 0.6z"/>
			<path fill-rule="evenodd" class="s0" d="m297.1 65.5l-5.2 0.1v1.2h1.8v5.4h1.5v-5.4h1.9z"/>
			<path class="s0" d="m300.5 65.4c-1.8 0-3 1.3-3 3.4 0 2.2 1.2 3.5 3 3.5 1.8 0 3-1.3 3-3.5 0-2.1-1.2-3.4-3-3.4zm0 5.6c-0.9 0-1.5-0.8-1.5-2.2 0-1.3 0.6-2.1 1.5-2.1 0.9 0 1.5 0.8 1.5 2.1 0 1.4-0.6 2.2-1.5 2.2z"/>
			<path class="s0" d="m309.7 67.6c0-1.6-1.1-2.1-2.5-2.1h-2.4v6.7h1.5v-2.4h0.8l1.3 2.4h1.6l-1.5-2.7c0.7-0.3 1.2-0.9 1.2-1.9zm-2.7 1h-0.7v-1.9h0.7c0.8 0 1.2 0.3 1.2 0.9 0 0.7-0.4 1-1.2 1z"/>
		</g>
	</g>
	<g>
		<g>
			<g>
				<g>
					<g>
						<path class="s0" d="m180.8 354l-1.9 0.8c-0.9 0.4-1.3 1.4-0.9 2.3l1.2 2.7 1.8-0.8-1.1-2.5 1.5-0.6 1.1 2.5 1.8-0.8-1.2-2.7c-0.4-0.9-1.4-1.3-2.3-0.9z"/>
					</g>
					<g>
						<path fill-rule="evenodd" class="s0" d="m190.3 376.5l1.8-0.8 7.4 16.9-1.9 0.8z"/>
					</g>
					<g>
						<path fill-rule="evenodd" class="s0" d="m187 377.9l1.8-0.8 7.3 16.9-1.8 0.8z"/>
					</g>
				</g>
				<g>
					<g>
						<path class="s0" d="m238.1 329.1l-1.9 0.9c-0.9 0.4-1.3 1.4-0.9 2.2l1.2 2.8 1.8-0.8-1.1-2.5 1.5-0.7 1.1 2.6 1.8-0.8-1.2-2.8c-0.4-0.8-1.4-1.2-2.3-0.9z"/>
					</g>
					<g>
						<path fill-rule="evenodd" class="s0" d="m247.6 351.6l1.8-0.7 7.3 16.8-1.8 0.8z"/>
					</g>
					<g>
						<path fill-rule="evenodd" class="s0" d="m244.3 353.1l1.8-0.8 7.3 16.9-1.8 0.8z"/>
					</g>
				</g>
			</g>
			<g>
				<path class="s0" d="m258.8 367.5c-0.4-0.8-1.4-1.2-2.3-0.8l-62.8 27.2c-0.8 0.4-1.3 1.4-0.9 2.2 1.2 4.8 2.6 10.7 2.8 11 0.4 0.9 1.4 1.3 2.2 0.9l66.2-28.7c0.8-0.4 1.2-1.4 0.9-2.2-0.2-0.4-3.4-5.4-6.1-9.6zm-61.5 38.6c-0.3-1.4-1.7-6.9-2.6-10.5l62.4-27c2 3.1 5.1 7.9 5.8 9z"/>
			</g>
			<g>
				<path class="s0" d="m244.8 332.3c-0.3-0.9-1.3-1.3-2.2-0.9l-65 28.2c-0.9 0.3-1.3 1.3-0.9 2.2l7.1 16.5c0.4 0.9 1.4 1.3 2.3 0.9l65-28.2c0.9-0.4 1.3-1.4 0.9-2.2zm-59.3 45l-7-16 64.6-28 6.9 16z"/>
			</g>
		</g>
		<g>
			<g>
				<path fill-rule="evenodd" class="s0" d="m209.7 401.6l53.3 19 0.6-1.8-51.2-18.3z"/>
			</g>
		</g>
		<g>
			<g>
				<path fill-rule="evenodd" class="s0" d="m224.4 435.8l1.8 0.7 22.5-51.8-2.6 1.2z"/>
			</g>
		</g>
		<g>
			<path fill-rule="evenodd" class="s0" d="m227.7 428.8l28.6-12.4 0.8 1.8-28.6 12.4z"/>
		</g>
		<g>
			<path class="s0" d="m193.1 360.2l-1.7 0.7 2.6 6.1 1.8-0.8c1.8-0.8 2.6-2.3 1.7-4.4-0.9-2.1-2.5-2.5-4.4-1.6zm2.1 5l-0.3 0.1-1.6-3.9 0.2-0.1c1.1-0.4 2-0.3 2.6 1.2 0.6 1.4 0.1 2.2-0.9 2.7z"/>
			<path fill-rule="evenodd" class="s0" d="m197.4 358.3l1.4-0.6 2.6 6.1-1.4 0.6z"/>
			<path class="s0" d="m205.7 357c-0.7-1.5-1.9-1.5-3.3-0.9l-2.2 1 2.7 6.1 1.4-0.6-1-2.2 0.8-0.4 2.1 1.7 1.6-0.7-2.5-1.8c0.6-0.6 0.7-1.3 0.4-2.2zm-2.1 2l-0.8 0.3-0.7-1.7 0.7-0.3c0.7-0.4 1.2-0.3 1.5 0.3 0.2 0.6 0 1.1-0.7 1.4z"/>
			<path fill-rule="evenodd" class="s0" d="m209.6 358.9l-0.6-1.4 2.1-0.9-0.5-1.2-2.1 0.9-0.5-1.2 2.4-1.1-0.5-1.1-3.8 1.7 2.6 6 4-1.7-0.5-1.1z"/>
			<path class="s0" d="m216 356.2c-0.9 0.4-1.8-0.1-2.3-1.3-0.5-1.3-0.2-2.3 0.7-2.7 0.4-0.2 0.8-0.1 1.2 0l0.4-1.2c-0.6-0.2-1.4-0.3-2.2 0-1.6 0.7-2.4 2.5-1.5 4.5 0.9 2.1 2.6 2.6 4.2 1.9 0.8-0.4 1.4-1 1.6-1.8l-1.1-0.5c-0.2 0.5-0.4 0.9-1 1.1z"/>
			<path fill-rule="evenodd" class="s0" d="m221.4 349.3l-0.5-1.2-4.8 2.1 0.5 1.1 1.7-0.7 2.2 4.9 1.4-0.6-2.2-4.9z"/>
			<path class="s0" d="m224.1 346.6c-1.7 0.7-2.3 2.4-1.5 4.4 0.9 1.9 2.6 2.6 4.2 1.9 1.7-0.7 2.3-2.4 1.4-4.4-0.8-2-2.5-2.6-4.1-1.9zm2.2 5.1c-0.8 0.4-1.7-0.1-2.2-1.4-0.6-1.2-0.3-2.1 0.5-2.5 0.8-0.4 1.7 0.1 2.2 1.3 0.5 1.3 0.3 2.3-0.5 2.6z"/>
			<path class="s0" d="m233.5 344.9c-0.6-1.5-1.9-1.4-3.2-0.9l-2.2 1 2.6 6.1 1.4-0.6-0.9-2.2 0.7-0.3 2.2 1.6 1.5-0.6-2.4-1.9c0.5-0.5 0.7-1.3 0.3-2.2zm-2.1 2l-0.7 0.3-0.7-1.7 0.7-0.3c0.7-0.3 1.2-0.3 1.5 0.3 0.2 0.6-0.1 1.1-0.8 1.4z"/>
		</g>
	</g>
	<g>
		<g>
			<g>
				<g>
					<g>
						<path fill-rule="evenodd" class="s0" d="m369.5 65.7l-11-0.6 0.4-7.3-1.9-0.1-0.4 9.1 14.7 0.8 0.5-9.1-1.9-0.1z"/>
					</g>
				</g>
				<g>
					<g>
						<path class="s0" d="m374.4 56.9c0 0.1 0 0.2-0.1 0.2l-19.6-1c-0.1-0.1-0.2-0.1-0.2-0.2l0.2-2.1-1.9-0.1-0.1 2.1c-0.1 1.1 0.8 2 1.9 2.1l19.6 1c1.1 0.1 2-0.7 2.1-1.9l0.1-2-1.9-0.1z"/>
					</g>
				</g>
			</g>
			<g>
				<g>
					<path class="s0" d="m400.7 27.9l-0.6 11 17.3 8.8 2.6 0.1 1.4-26.6-2.5-0.2zm18.8-5l-1.2 22.9h-0.3l-17.1-8.6 0.4-7.5 17.9-6.8z"/>
				</g>
			</g>
			<g>
				<g>
					<path class="s0" d="m400 10.1l-61.6-3.3c-1.5-0.1-2.8 1.1-2.9 2.6l-2.2 41.3c-0.1 1.5 1.1 2.8 2.6 2.9l61.6 3.3c1.5 0.1 2.8-1.1 2.9-2.6l2.2-41.3c0.1-1.5-1.1-2.8-2.6-2.9zm-1.4 44.1c-0.1 0.5-0.5 0.9-1 0.8l-61.6-3.3c-0.5 0-0.9-0.4-0.9-0.9l2.3-41.3c0-0.5 0.4-0.9 0.9-0.9l61.6 3.3c0.5 0 0.9 0.5 0.9 1z"/>
				</g>
				<g>
					<path class="s0" d="m380.8 2.6l-25-1.3c-1.1-0.1-2.1 0.8-2.1 1.9l-0.4 6.2 29 1.6 0.4-6.3c0-1.1-0.8-2-1.9-2.1zm-0.2 6.4l-25.3-1.3 0.2-4.4c0-0.1 0.1-0.2 0.2-0.2l25 1.4c0.1 0 0.1 0.1 0.1 0.2z"/>
				</g>
				<g>
					<g>
						<path fill-rule="evenodd" class="s0" d="m371 3.1l0.2-3.1h-1.9l-0.1 3z"/>
					</g>
					<g>
						<path fill-rule="evenodd" class="s0" d="m365.4 2.8l0.2-2.8h-1.9l-0.1 2.7z"/>
					</g>
				</g>
			</g>
			<g>
				<path class="s0" d="m370.3 28.5l-27-1.5c-1.1 0-2 0.8-2.1 1.9l-1 18.4c0 1.1 0.8 2 1.9 2.1l27 1.4c1.2 0.1 2.1-0.8 2.2-1.9l0.9-18.3c0.1-1.1-0.8-2.1-1.9-2.1zm-0.9 20.3c0 0.1-0.1 0.2-0.2 0.2l-27-1.5c-0.1 0-0.1-0.1-0.1-0.1l1-18.4c0-0.1 0-0.1 0.1-0.1l27 1.4c0.1 0 0.2 0.1 0.2 0.2z"/>
			</g>
			<g>
				<path class="s0" d="m375 14.7c-2.2-0.2-4.1 1.5-4.2 3.7-0.2 2.3 1.5 4.1 3.8 4.3 2.2 0.1 4.1-1.6 4.2-3.8 0.1-2.2-1.6-4.1-3.8-4.2zm-0.4 6.1c-1.1 0-2.1-1.1-2-2.3 0.1-1.1 1.1-2.1 2.3-2 1.2 0.1 2.1 1.1 2 2.3 0 1.2-1.1 2.1-2.3 2z"/>
			</g>
			<g>
				<path class="s0" d="m386.1 15.2c-2.3-0.1-4.2 1.6-4.3 3.8-0.1 2.2 1.6 4.1 3.8 4.3 2.2 0.1 4.1-1.6 4.2-3.8 0.2-2.2-1.5-4.1-3.8-4.3zm-0.3 6.2c-1.2-0.1-2.1-1.1-2-2.3 0-1.2 1.1-2.1 2.3-2 1.1 0.1 2.1 1.1 2 2.3-0.1 1.2-1.1 2.1-2.3 2z"/>
			</g>
			<g>
				<g>
					<path class="s0" d="m392.6 0h-13.3c1.8 0.8 3.7 1.3 5.8 1.4 2.7 0.1 5.2-0.4 7.5-1.4z"/>
				</g>
			</g>
		</g>
		<g>
			<g>
				<path fill-rule="evenodd" class="s0" d="m352.5 7.9l-5.7-7.9h-2.3l6.5 8.9z"/>
			</g>
		</g>
		<g>
			<g>
				<path fill-rule="evenodd" class="s0" d="m388.1 10.8l7.2-10.8h-2.2l-6.5 9.8z"/>
			</g>
		</g>
	</g>
	<g>
		<g>
			<g>
				<g>
					<g>
						<path fill-rule="evenodd" class="s0" d="m2.9 270.8l-1.6 0.8 3.2 6.6-4.5 2.2v2l7-3.4z"/>
					</g>
				</g>
				<g>
					<g>
						<path class="s0" d="m6.2 267.3l-0.9-1.8-1.7 0.8 0.9 1.8c0.1 0.1 0 0.2-0.1 0.2l-4.4 2.2v2.1l5.3-2.6c1-0.5 1.4-1.7 0.9-2.7z"/>
					</g>
				</g>
			</g>
			<g>
				<g>
					<path class="s0" d="m25.7 215.1l-12.5 14.9 4.8 9.8 19.5-0.8 2.3-1.1-11.8-24zm11.4 22.2l-19.2 0.7-3.3-6.7 12.3-14.7 0.3-0.1 10.1 20.6z"/>
				</g>
			</g>
			<g>
				<g>
					<path class="s0" d="m25.9 253.1l-18.3-37.1c-0.6-1.4-2.3-1.9-3.7-1.3l-3.9 2v2l4.8-2.3c0.4-0.2 0.9 0 1.2 0.4l18.2 37.1c0.2 0.5 0.1 1-0.4 1.2l-23.8 11.7v2.1l24.6-12.1c1.4-0.7 1.9-2.3 1.3-3.7z"/>
				</g>
			</g>
			<g>
				<path class="s0" d="m0 229.2v1.1q0.1-0.6 0-1.1z"/>
			</g>
		</g>
	</g>
	<g>
		<g>
			<g>
				<g>
					<g>
						<path class="s0" d="m225.5 150.3q-1 0.7-1.8 1.5c-0.9 0.9-2.4 2.6-3.2 3.1-1.4 0.8-3 0.4-4.1-1.3-2.1-3.2-5.5-10.5-4.6-12.3 0.6-1 1.8-2.4 3-3.6 0.9-1.1 1.8-2.1 2.3-2.9 0.4-0.6 0.8-1.3 0.4-2-0.2-0.6-0.7-1.4-1.2-2.1-0.7 0.2-1.3 0.3-2 0.3 0.6 0.8 1.2 1.8 1.5 2.4q0 0.1-0.2 0.4c-0.4 0.7-1.3 1.6-2.2 2.6-1.3 1.4-2.6 2.9-3.2 4.1-1.8 3.5 4.6 14 4.7 14.1 1.7 2.7 4.8 3.3 7.1 1.4h0.2l0.1-0.2q1.3-1.4 2.6-2.7 1.3-1.2 2.8-2.2 0.2-0.1 0.3-0.2c-0.9 0.2-1.8 0-2.5-0.4z"/>
					</g>
					<g>
						<path class="s0" d="m231.7 126.6c-1.3 0.1-3.2 0.7-5 1.2-1.1 0.4-2.2 0.7-3 0.9-0.4 0.1-0.6 0.1-0.8 0.1-0.5-0.6-1.3-2-1.8-2.9q-0.3 1.2-0.9 2.1c0.5 0.8 1.1 1.6 1.5 2.1 0.5 0.7 1.5 0.6 2.4 0.4 0.9-0.2 2-0.5 3.2-0.9 1.6-0.5 3.4-1.1 4.5-1.2 2-0.1 7.2 6 9.3 9.3 0.6 0.8 0.8 1.7 0.7 2.5-0.2 0.7-0.5 1.3-1.2 1.7-1.1 0.7-2.9 1.2-4.1 1.6q-1.1 0.5-2.2 1.1c-0.3 1.1-0.8 2.2-1.4 3.1q0.5-0.4 1.1-0.8 1.5-1 3.2-1.7 1.7-0.7 3.5-1.3l0.2-0.1h0.1q0.3-0.2 0.5-0.3c1.1-0.7 1.8-1.8 2.1-3 0.2-1.2-0.1-2.6-0.9-3.8-0.1-0.1-7-10.3-11-10.1z"/>
					</g>
				</g>
				<g>
					<g>
						<path class="s0" d="m238.7 175.2c-0.9-1.3-2.2-3.1-3.6-5.1-2.6-3.8-5.6-8.2-8.1-11.3-1.5-1.9-3.2-3.5-4-4.1q-0.1 0-0.1 0.1c-0.4 0.4-0.8 0.8-1.3 1.1 0.5 0.3 2.2 1.7 4 4 2.4 3.1 5.4 7.4 8 11.2 1.4 2.1 2.7 3.8 3.6 5.1 6.5 8.9 16.8 19.1 20.5 22.7l1.5-1c-3.3-3.3-13.9-13.7-20.5-22.7z"/>
						<path class="s0" d="m250.1 160.8c-2.3-3.8-5.2-8.6-7-12.2-1.4-2.7-1.9-4.5-2-5.1q-0.3 0.2-0.5 0.3c-0.4 0.2-0.8 0.3-1.2 0.5 0.2 1 0.9 2.9 2.1 5.1 1.9 3.7 4.8 8.5 7.1 12.4 1.2 1.9 2.2 3.7 3 5.1 5.9 10.2 10.7 23.7 12.2 28l1.6-1c-1.7-4.8-6.5-17.9-12.2-27.9-0.8-1.4-1.9-3.2-3.1-5.2z"/>
					</g>
				</g>
			</g>
			<g>
				<path class="s0" d="m210.3 117c-3.2 2.1-3.8 6.8-1.4 10.5 2.4 3.7 6.9 5 10.1 3 3.2-2.1 3.8-6.8 1.4-10.5-2.4-3.7-6.9-5-10.1-3zm7.7 11.9c-2.3 1.6-5.7 0.5-7.6-2.4-1.8-2.9-1.4-6.4 0.9-7.9 2.4-1.5 5.8-0.4 7.6 2.4 1.9 2.9 1.4 6.4-0.9 7.9z"/>
			</g>
			<g>
				<g>
					<g>
						<path fill-rule="evenodd" class="s0" d="m248.6 204.2l2.7 4.1 1.5-1-1.7-2.6 22.3-14.3 1.7 2.6 1.5-1-2.7-4.1z"/>
					</g>
				</g>
				<g>
					<path class="s0" d="m279.6 189.1l-32.2 20.7c-1.8 1.2-2.3 3.6-1.1 5.4l1.7 2.6 38.6-24.9-1.7-2.7c-1.2-1.8-3.5-2.3-5.3-1.1zm-31 26.2l-0.8-1.1c-0.6-1-0.3-2.2 0.6-2.8l32.2-20.8c0.9-0.6 2.2-0.3 2.8 0.6l0.7 1.2z"/>
				</g>
			</g>
			<g>
				<path class="s0" d="m222 135.2c-4 2.6-5.2 8.1-2.6 12.1 2.7 4.1 8.1 5.2 12.1 2.6 4.1-2.6 5.3-8 2.6-12.1-2.6-4-8-5.2-12.1-2.6zm8.6 13.2c-3.3 2.1-7.6 1.1-9.6-2.1-2.1-3.2-1.2-7.5 2-9.6 3.2-2 7.5-1.1 9.6 2.1 2.1 3.2 1.2 7.5-2 9.6z"/>
			</g>
		</g>
		<g>
			<path class="s0" d="m238.3 160.5c-2.4 1.6-4.7 0.5-4.8 0.4l-0.4 0.8-0.4 0.8c0.1 0.1 2.8 1.5 5.8-0.1l22.5 34.9 1.6-1-23.5-36.4z"/>
		</g>
		<g>
			<path class="s0" d="m240.7 156.4c0 0 0.3 2.3-2.3 4q0 0-0.1 0l1 1.6q0.1 0 0.1-0.1c3.6-2.3 3.1-5.7 3.1-5.8z"/>
		</g>
	</g>
	<g>
		<g>
			<g>
				<g>
					<g>
						<path class="s0" d="m294 10.6c0.1-2 0.2-5.9 0.5-10.6h-1.8c-0.3 4.3-0.4 8-0.5 10.1z"/>
						<path class="s0" d="m301.1 12.4c1.3-2.3 3.7-6.9 6.2-12.4h-2c-2.5 5.4-4.9 9.9-6 12z"/>
					</g>
				</g>
			</g>
			<g>
				<g>
					<g>
						<path fill-rule="evenodd" class="s0" d="m280.9 11.8l1.8 0.4 0.8-3 25.6 6.8-0.8 3 1.8 0.4 1.2-4.7-29.1-7.7z"/>
					</g>
				</g>
				<g>
					<path class="s0" d="m314.2 19.7l-37-9.8c-2-0.5-4.1 0.7-4.7 2.8l-0.8 3.1 44.4 11.7 0.9-3.1c0.5-2.1-0.7-4.2-2.8-4.7zm1 4.2l-0.4 1.3-40.9-10.7 0.4-1.4c0.3-1.1 1.4-1.7 2.5-1.4l37 9.7c1 0.3 1.7 1.4 1.4 2.5z"/>
				</g>
			</g>
		</g>
		<g>
			<path fill-rule="evenodd" class="s0" d="m297.4 12l3.2-12h-1.9l-3.1 11.5z"/>
		</g>
	</g>
	<g>
		<g>
			<g>
				<g>
					<g>
						<path class="s0" d="m312.4 385q-0.1 0.1-0.5 0.1c-0.8 0.2-2.1 0.2-3.4 0.2-1.9 0-3.8 0-5.2 0.4-3.8 1-7.2 12.9-7.2 13-0.9 3.1 0.7 5.7 3.7 6.2l0.2 0.1h0.2q1.9 0 3.7 0.1 1.8 0.1 3.6 0.5 0.1 0.1 0.2 0.1c-0.6-0.6-1.1-1.3-1.3-2.1q-1.2-0.3-2.4-0.3c-1.2-0.1-3.4 0-4.4-0.3-1.5-0.5-2.3-2-1.8-3.9 1-3.7 4.1-11.1 6-11.7 1.1-0.2 3-0.3 4.7-0.3 1.4 0 2.8 0 3.7-0.2 0.7-0.1 1.5-0.3 1.8-1 0.2-0.5 0.5-1.4 0.7-2.3-0.6-0.4-1.2-0.8-1.6-1.3-0.2 1-0.5 2.1-0.7 2.7z"/>
					</g>
					<g>
						<path class="s0" d="m323.8 389.3c-1-0.5-2-1.1-2.7-1.6-0.3-0.3-0.5-0.4-0.5-0.5 0.1-0.8 0.5-2.3 0.8-3.3q-1 0.5-2.1 0.8c-0.2 0.9-0.5 1.8-0.6 2.4-0.1 0.9 0.6 1.5 1.4 2.1 0.7 0.5 1.7 1.1 2.8 1.7 1.5 0.9 3.1 1.8 3.9 2.6 1.4 1.4 0.4 9.4-0.5 13.1-0.3 1-0.8 1.7-1.5 2.2-0.6 0.4-1.3 0.5-2 0.3-1.2-0.4-2.9-1.4-4-1.9q-1-0.6-2.2-1c-1 0.6-2.2 0.9-3.3 1q0.6 0.2 1.4 0.3 1.7 0.5 3.3 1.3 1.7 0.8 3.3 1.7l0.3 0.1h0.1q0.3 0.1 0.6 0.2c1.2 0.4 2.5 0.2 3.5-0.5 1.1-0.7 1.8-1.8 2.2-3.2 0-0.1 2.9-12.1 0.1-14.9-1-0.9-2.7-1.9-4.3-2.9z"/>
					</g>
				</g>
				<g>
					<g>
						<path class="s0" d="m298.3 424c1-4.5 2.2-9.6 2.9-13.6 0.3-2.3 0.4-4.6 0.3-5.7q-0.1 0-0.2 0c-0.5 0-1.1-0.1-1.6-0.2 0 0.6 0.1 2.7-0.3 5.6-0.7 3.9-1.8 9-2.9 13.5-0.5 2.4-1 4.5-1.4 6.1-1.2 6.4-2 14-2.4 20.3h1.8c0.4-6.2 1.2-13.7 2.4-19.9 0.3-1.6 0.8-3.7 1.4-6.1z"/>
						<path class="s0" d="m315.2 428.9c1.3-4.3 2.9-9.7 4.3-13.5 1.1-2.9 2-4.4 2.4-4.9q-0.3-0.1-0.5-0.2c-0.4-0.2-0.8-0.3-1.2-0.5-0.6 0.9-1.5 2.7-2.4 5-1.4 3.9-3 9.2-4.3 13.6-0.7 2.2-1.3 4.2-1.7 5.6-1.8 5.4-4.2 11.1-6.5 16h2c2.2-4.8 4.5-10.2 6.2-15.4 0.5-1.5 1.1-3.5 1.7-5.7z"/>
					</g>
				</g>
			</g>
			<g>
				<path class="s0" d="m320.7 370c-3.6-1-7.5 1.7-8.7 5.9-1.1 4.3 1 8.5 4.6 9.5 3.7 1 7.6-1.7 8.7-6 1.2-4.2-0.9-8.5-4.6-9.4zm2.9 9c-0.9 3.3-3.8 5.4-6.5 4.7-2.7-0.8-4.2-4-3.3-7.3 0.9-3.3 3.8-5.4 6.5-4.7 2.7 0.7 4.1 4 3.3 7.3z"/>
			</g>
			<g>
				<path class="s0" d="m315.2 390.9c-4.7-1.3-9.5 1.5-10.7 6.2-1.2 4.7 1.6 9.5 6.2 10.7 4.7 1.2 9.5-1.6 10.7-6.2 1.3-4.7-1.5-9.5-6.2-10.7zm4.5 10.2c-1 3.7-4.8 5.9-8.5 4.9-3.7-0.9-5.9-4.7-4.9-8.4 1-3.7 4.8-6 8.4-5 3.7 1 6 4.8 5 8.5z"/>
			</g>
		</g>
		<g>
			<path class="s0" d="m307.5 419.9c-2.8-0.7-3.5-3.1-3.6-3.2l-0.8 0.2-0.9 0.2c0 0.2 0.8 3.1 4 4.3l-7.5 28.6h1.9l7.8-29.9z"/>
		</g>
		<g>
			<path class="s0" d="m307.6 419.9q0 0 0 0l-0.5 1.8q0 0 0.1 0c4.1 1.1 6.3-1.5 6.4-1.6l-1.4-1.2c0 0-1.5 1.8-4.6 1z"/>
		</g>
	</g>
	<g>
		<g>
			<g>
				<path class="s0" d="m382.5 124.7c1.2-1.8 1.5-4.1-0.5-6.5q-0.3-0.3-0.6-0.6c1-1.5 1-3.4 0.1-5.2-0.6-1.3-1.7-2.1-3.2-2.5-1.6-0.3-3.5-0.2-5 0.5q-0.3-0.3-0.5-0.6-0.5-0.6-1.2-1c1-1.9 0.7-4-0.8-5.8-1.5-1.8-4.3-2.1-6.8-1-0.5-1.3-1.4-2.3-2.8-3-1.6-0.8-3.4-0.6-5.1 0.5-1.7 1.1-3.1 2.9-3.5 4.6-2.8-0.7-6.1 0.2-7 3.9q-0.1 0.2-0.1 0.4c-1.1 0-2.1 0.3-3.2 1-1.7 1.1-3.1 2.9-3.5 4.7-2.8-0.8-6.1 0.1-7 3.8q-0.4 1.3 0.1 2.7l2.2 0.5q-0.1-0.2-0.3-0.5-0.7-1.1-0.4-2.3c0.9-3.4 3.9-2.9 4.8-2.7q0.5 0.1 1 0.4l1.2 0.5v-1.3q-0.1-0.4 0-0.6c0.3-1.4 1.4-2.9 2.8-3.8 0.7-0.4 1.7-0.9 2.9-0.6l1.1 0.3-0.1-1.2q0-0.5 0.1-0.9c0.8-3.4 3.9-2.9 4.8-2.7q0.5 0.1 1 0.3l1.2 0.6v-1.4q-0.1-0.3 0-0.6c0.3-1.3 1.4-2.8 2.8-3.7 0.8-0.5 2.2-1.1 3.4-0.4q2 0.9 2.1 2.8l0.1 1.4 1.2-0.7c1.4-0.8 3-1.2 4.2-0.9q0.9 0.3 1.5 0.9c1.7 2 0.8 3.8 0.2 4.7l-0.8 1 1.2 0.3q0.9 0.3 1.5 0.9 0.3 0.4 0.6 0.9l0.4 0.8 0.7-0.4c1.4-0.7 3.2-1 4.6-0.7q1.5 0.4 2.1 1.6c1 2 0.3 3.3-0.5 4.2l-0.7 0.8 1 0.5q0.6 0.3 1 0.7c2 2.4 0.4 4.5-0.3 5.2l-1.1 1.1 1.7 0.4q0.9 0.2 1.5 0.9 1.5 1.7 0.8 3.6c-0.4 0.8-1 1.6-1.8 2.2l2 0.5c0.5-0.6 1-1.3 1.3-2.1 0.7-1.8 0.3-3.7-1-5.3q-0.6-0.7-1.4-1.1z"/>
			</g>
			<path class="s0" d="m330.1 125.2l-8.7 49.8 31 7.6c0.5-0.3 0.9-0.6 1.4-0.9q0.3-0.1 0.6-0.4l-31.1-7.5 8.4-48.2 50.4 12.3-14.2 44.6c0.3 0.2 0.5 0.5 0.6 0.7q0.3 0.6 0.6 1.1l14.7-46 1.3-5.3-53.8-13.1zm2.5-3.3l50.5 12.3-0.5 2.1-50.5-12.4z"/>
			<g>
				<g>
					<path class="s0" d="m356.6 192.1c-2.1 0-4.5-1.1-5.8-2.6-1-1.1-1.4-2.4-1.3-3.7 0.4-3.5 3.1-4.7 5.4-4.7 1.7 0 3.4 0.6 4.6 1.6q0.1 0.1 0.1 0.2c1.4-1.3 3.5-2.1 5.3-2.1 1.5 0 2.7 0.6 3.6 1.6 1.4 1.6 1.8 3.4 1.1 5.2-0.9 2.2-3.2 4-5.5 4.3-1.7 0.2-3.2-0.2-4.3-1-0.8 0.6-1.7 1.1-2.5 1.2q-0.3 0-0.7 0zm-1.7-9.5c-1 0-3.5 0.3-3.9 3.4q-0.2 1.3 0.9 2.5c1.2 1.4 3.5 2.3 5.2 2.1 0.7-0.1 1.5-0.6 2.1-1.3l0.6-0.6 0.5 0.6c0.8 0.9 2.1 1.3 3.6 1.1 1.8-0.3 3.7-1.7 4.3-3.3 0.5-1.3 0.2-2.6-0.8-3.7q-0.9-1.1-2.5-1.1c-1.7 0-3.6 0.9-4.7 2.1l-0.6 0.6-0.5-0.6q-0.3-0.3-0.6-0.5c-0.9-0.8-2.3-1.3-3.6-1.3z"/>
				</g>
				<g>
					<path class="s0" d="m378.1 195.7q0 0 0 0c-0.8 0-1.5-0.2-2.1-0.5-1.8-0.9-3.4-3.1-3.8-5.4-0.4-1.6 0-3.1 1-4.2 1.1-1.2 2.4-1.8 3.8-1.8 3 0 5.5 2.6 6.1 5 0.6 2.3 0.1 4.3-1.4 5.6-0.9 0.8-2.3 1.3-3.6 1.3zm-1.1-10.4q-1.5 0-2.7 1.3c-0.8 1-0.8 2.1-0.7 3 0.4 1.7 1.7 3.6 3.1 4.3q0.6 0.3 1.4 0.3 0 0 0 0c1 0 2-0.4 2.6-0.9 1.1-1 1.5-2.4 1-4.2-0.5-1.8-2.5-3.8-4.7-3.8z"/>
				</g>
			</g>
		</g>
		<g>
			<path class="s0" d="m329.1 137q-0.1 0.9-0.4 1.7l33.6-6.1q-1.7-0.5-3.4-1.1z"/>
		</g>
		<g>
			<path class="s0" d="m326.9 150l55.6-10.1q0.1-0.3 0.2-0.5c0-0.4 0.1-0.9 0.2-1.3l-56.3 10.3z"/>
		</g>
		<g>
			<path class="s0" d="m325.1 160.3l53.7-9.9q0.3-0.5 0.5-1 0.1-0.4 0.3-0.8l-54.1 9.9z"/>
		</g>
		<g>
			<path class="s0" d="m323.1 171.3l52.2-9.5q0.3-0.7 0.6-1.3 0.1-0.3 0.2-0.5l-53.3 9.7z"/>
		</g>
		<g>
			<path class="s0" d="m339.6 178.2l32.3-5.8q0.3-1 0.8-1.9l-36.8 6.7c1.3 0.3 2.5 0.6 3.7 1z"/>
		</g>
	</g>
	<g>
		<g>
			<g>
				<g>
					<g>
						<path class="s0" d="m231 262.8l-1.7 0.4 8.4 36.6c0 0.1-0.1 0.3-0.3 0.4l-70.5 16.1c-0.2 0-0.4-0.1-0.5-0.3l-8.3-36.6-1.7 0.4 8.4 36.6c0.2 1.1 1.3 1.8 2.5 1.5l70.5-16c1.1-0.3 1.8-1.4 1.6-2.5z"/>
					</g>
				</g>
			</g>
			<g>
				<g>
					<path class="s0" d="m155.2 268.7q0.3 0.8 0.3 1.7l74.4-17 1.9 8.5-76.9 17.5-1.3-5.5q-0.4 0.3-1 0.5-0.3 0.1-0.6 0.1l1.6 7 80.2-18.3-2.6-11.8z"/>
				</g>
				<g>
					<g>
						<path class="s0" d="m143.8 262.7l5.3 5.7q0.1-0.2 0.2-0.3c-0.2-0.2-0.2-0.4-0.1-0.6q0.3-0.4 0.7-0.6l-3.7-4.1 57.8-53.7 5.9 6.4-55.9 51.9c0.5 0.4 0.8 0.9 0.9 1.5l57.4-53.3-8.2-8.9z"/>
					</g>
				</g>
				<g>
					<path class="s0" d="m150.9 265.9c-2.4 0.6-4 3-3.4 5.5 0.5 2.4 3 4 5.4 3.4 2.5-0.6 4-3 3.5-5.4-0.6-2.5-3-4-5.5-3.5zm1.7 7.2c-1.6 0.4-3.1-0.6-3.5-2.1-0.3-1.5 0.7-3.1 2.2-3.4 1.5-0.4 3 0.6 3.4 2.1 0.4 1.6-0.6 3.1-2.1 3.4z"/>
				</g>
			</g>
		</g>
		<g>
			<path fill-rule="evenodd" class="s0" d="m170 287.6l52.2-11.9 0.4 1.6-52.2 11.9z"/>
		</g>
		<g>
			<path fill-rule="evenodd" class="s0" d="m171.8 295.6l52.2-11.9 0.4 1.6-52.2 12z"/>
		</g>
		<g>
			<path fill-rule="evenodd" class="s0" d="m173.6 303.5l52.2-12 0.4 1.7-52.2 11.9z"/>
		</g>
		<g>
			<path fill-rule="evenodd" class="s0" d="m157.1 279.2l7-12.2 1.5 0.8-7 12.2z"/>
		</g>
		<g>
			<path fill-rule="evenodd" class="s0" d="m169.9 276.3l7-12.2 1.5 0.8-7 12.2z"/>
		</g>
		<g>
			<path fill-rule="evenodd" class="s0" d="m182.6 273.4l7-12.2 1.4 0.8-6.9 12.2z"/>
		</g>
		<g>
			<path fill-rule="evenodd" class="s0" d="m195.3 270.5l7-12.2 1.5 0.8-7 12.2z"/>
		</g>
		<g>
			<path fill-rule="evenodd" class="s0" d="m208.1 267.6l7-12.2 1.4 0.8-6.9 12.2z"/>
		</g>
		<g>
			<path fill-rule="evenodd" class="s0" d="m221 264.6l7-12.2 1.5 0.8-7 12.2z"/>
		</g>
		<g>
			<path fill-rule="evenodd" class="s0" d="m154.1 253.2h1.7l0.1 14.1h-1.7z"/>
		</g>
		<g>
			<path fill-rule="evenodd" class="s0" d="m163.7 244.3h1.7l0.1 14h-1.7z"/>
		</g>
		<g>
			<path fill-rule="evenodd" class="s0" d="m173.2 235.4h1.7l0.1 14.1h-1.7z"/>
		</g>
		<g>
			<path fill-rule="evenodd" class="s0" d="m182.8 226.5h1.7l0.1 14.1h-1.7z"/>
		</g>
		<g>
			<path fill-rule="evenodd" class="s0" d="m192.4 217.6h1.7l0.1 14-1.7 0.1z"/>
		</g>
		<g>
			<path fill-rule="evenodd" class="s0" d="m202.1 208.6l1.7-0.1 0.1 14.1h-1.7z"/>
		</g>
	</g>
	<g>
		<g>
			<g>
				<g>
					<g>
						<path class="s0" d="m10.5 141.8l16.1-33.9-1.5-0.7-16.1 33.9c-0.1 0.2-0.3 0.3-0.5 0.2l-8.5-4v1.9l7.8 3.6c1 0.5 2.2 0.1 2.7-1z"/>
					</g>
				</g>
			</g>
			<g>
				<g>
					<path fill-rule="evenodd" class="s0" d="m33.8 99.1l-33.8-16v1.9l31.5 14.9-3.7 7.8-27.8-13.2v1.9l28.6 13.6z"/>
				</g>
				<g>
					<g>
						<path fill-rule="evenodd" class="s0" d="m40.2 47.3l-40.2 3.2v1.7l38.6-3.1 0.7 8.6-39.3 3.2v1.7l41.2-3.3z"/>
					</g>
				</g>
			</g>
		</g>
		<g>
			<path fill-rule="evenodd" class="s0" d="m11.7 112.6l-11.7-5.5v1.8l11 5.2z"/>
		</g>
		<g>
			<path fill-rule="evenodd" class="s0" d="m8.2 120l-8.2-3.8v1.9l7.4 3.5z"/>
		</g>
		<g>
			<path fill-rule="evenodd" class="s0" d="m4.7 127.3l-4.7-2.2v1.9l4 1.9z"/>
		</g>
		<g>
			<path fill-rule="evenodd" class="s0" d="m6.8 86.6l-6.8 2.8v1.8l7.5-3z"/>
		</g>
		<g>
			<path fill-rule="evenodd" class="s0" d="m5.6 97.5l13.1-5.3 0.6 1.6-13 5.3z"/>
		</g>
		<g>
			<path fill-rule="evenodd" class="s0" d="m17.6 103.2l13.1-5.3 0.6 1.6-13 5.3z"/>
		</g>
		<g>
			<path fill-rule="evenodd" class="s0" d="m2.5 60.7l8.7-11.1 1.3 1.1-8.6 11.1z"/>
		</g>
		<g>
			<path fill-rule="evenodd" class="s0" d="m15.6 59.6l8.6-11.1 1.3 1.1-8.6 11.1z"/>
		</g>
		<g>
			<path fill-rule="evenodd" class="s0" d="m28.8 58.5l8.6-11.1 1.4 1.1-8.6 11.1z"/>
		</g>
	</g>
	<g>
		<g>
			<g>
				<g>
					<g>
						<path fill-rule="evenodd" class="s0" d="m441.4 276.4l-1.7 0.9 4.1 8.2 6.2-3.1v-2l-5.4 2.6z"/>
					</g>
				</g>
				<g>
					<g>
						<path class="s0" d="m436.6 276.9l-0.9-1.8-1.6 0.8 0.9 1.8c0.5 1 1.7 1.4 2.7 1l12.3-6.1v-2.1l-13.1 6.5c-0.1 0-0.2 0-0.3-0.1z"/>
					</g>
				</g>
			</g>
			<g>
				<g>
					<path class="s0" d="m397.3 245.6l18.3 37.2c0.6 1.3 2.3 1.9 3.6 1.2l30.8-15.1v-2.1l-31.6 15.6c-0.4 0.2-1 0-1.2-0.4l-18.2-37.2c-0.3-0.4-0.1-1 0.4-1.2l50.6-24.9v-2l-51.4 25.3c-1.4 0.6-2 2.3-1.3 3.6z"/>
				</g>
				<g>
					<path class="s0" d="m433.5 217.6l-22.4 11.1c-1 0.5-1.5 1.7-1 2.7l2.8 5.6 26-12.8-2.7-5.6c-0.5-1-1.7-1.4-2.7-1zm-19.8 16.9l-1.9-3.9c0-0.1 0-0.2 0.1-0.3l22.4-11c0.1 0 0.2 0 0.2 0.1l2 3.9z"/>
				</g>
				<g>
					<g>
						<path class="s0" d="m413.7 202.7l-3.8 1.9q0.6 0.7 1.2 1.4l3-1.4q0-0.1-0.1-0.2-0.3-0.8-0.3-1.7z"/>
					</g>
					<g>
						<path class="s0" d="m419.6 211.5c-1.2-0.6-2.3-1.3-3.1-2.2l7 14.4 1.7-0.9-5.5-11.3q-0.1 0-0.1 0z"/>
					</g>
					<g>
						<path class="s0" d="m413 214.8l5.5 11.3 1.7-0.8-7.3-14.8c0.3 1.4 0.2 2.9 0.1 4.3z"/>
					</g>
				</g>
			</g>
			<g>
				<g>
					<path class="s0" d="m390 199.3c-8.3 4.1-11.7 14.2-7.6 22.5 4.1 8.3 14.1 11.7 22.4 7.6 8.3-4.1 11.7-14.1 7.7-22.4-4.1-8.3-14.2-11.7-22.5-7.7zm14 28.4c-7.4 3.7-16.3 0.6-19.9-6.8-3.7-7.3-0.6-16.3 6.8-19.9 7.3-3.6 16.3-0.6 19.9 6.8 3.6 7.4 0.6 16.3-6.8 19.9z"/>
				</g>
			</g>
			<g>
				<path class="s0" d="m439.7 246.2c-0.5-1-1.7-1.4-2.7-0.9l-24.3 11.9c-0.9 0.5-1.4 1.7-0.9 2.7l8.1 16.5c0.5 1 1.7 1.4 2.7 0.9l24.3-11.9c1-0.5 1.4-1.7 0.9-2.7zm6.4 17.5l-24.3 11.9c-0.1 0.1-0.2 0-0.2-0.1l-8.1-16.4c0-0.1 0-0.2 0.1-0.2l24.2-12c0.1 0 0.2 0 0.3 0.1l8.1 16.5c0 0 0 0.1-0.1 0.2z"/>
			</g>
			<g>
				<path class="s0" d="m434.3 231c-2 0.9-2.8 3.3-1.8 5.3 1 2 3.4 2.8 5.4 1.9 1.9-1 2.8-3.4 1.8-5.4-1-2-3.4-2.8-5.4-1.8zm2.7 5.5c-1 0.5-2.3 0.1-2.8-1-0.6-1.1-0.1-2.4 0.9-2.9 1.1-0.5 2.4-0.1 2.9 1 0.6 1.1 0.1 2.4-1 2.9z"/>
			</g>
			<g>
				<path class="s0" d="m444.3 226.1c-2 0.9-2.8 3.4-1.9 5.3 1 2 3.4 2.8 5.4 1.9 1.2-0.6 2-1.8 2.2-3v-1.1q-0.1-0.7-0.4-1.3c-0.9-2-3.3-2.8-5.3-1.8zm2.7 5.5c-1.1 0.5-2.4 0.1-2.9-1-0.5-1-0.1-2.3 1-2.9 1.1-0.5 2.4 0 2.9 1 0.5 1.1 0.1 2.4-1 2.9z"/>
			</g>
			<g>
				<g>
					<path class="s0" d="m392.6 204.5c-5.5 2.7-7.8 9.3-5.1 14.7 2.7 5.5 9.3 7.7 14.8 5.1 5.5-2.7 7.7-9.3 5-14.8-2.7-5.5-9.3-7.7-14.7-5zm8.9 18.1c-4.6 2.2-10.1 0.4-12.3-4.2-2.2-4.5-0.4-10 4.2-12.3 4.5-2.2 10-0.3 12.3 4.2 2.2 4.6 0.3 10.1-4.2 12.3z"/>
				</g>
			</g>
			<g>
				<g>
					<path class="s0" d="m421.9 184.4c-8.3 4.1-11.8 14.1-7.7 22.4 4.1 8.3 14.1 11.7 22.4 7.6 8.3-4.1 11.8-14.1 7.7-22.4-4.1-8.3-14.1-11.7-22.4-7.6zm13.9 28.4c-7.3 3.6-16.3 0.5-19.9-6.8-3.6-7.4-0.6-16.3 6.8-20 7.4-3.6 16.3-0.5 19.9 6.8 3.6 7.4 0.6 16.3-6.8 20z"/>
				</g>
			</g>
			<g>
				<g>
					<path class="s0" d="m424.4 189.5c-5.5 2.7-7.7 9.3-5 14.8 2.6 5.4 9.3 7.7 14.7 5 5.5-2.7 7.7-9.3 5.1-14.8-2.7-5.4-9.4-7.7-14.8-5zm8.9 18.1c-4.5 2.3-10 0.4-12.3-4.1-2.2-4.6-0.3-10.1 4.2-12.3 4.5-2.3 10.1-0.4 12.3 4.2 2.2 4.5 0.4 10-4.2 12.2z"/>
				</g>
			</g>
		</g>
		<g>
			<g>
				<path class="s0" d="m396.5 230.4q-0.8 0.1-1.5 0.1l15.6 7.2 0.8-1.7-12.8-5.9c-0.8 0.2-1.6 0.3-2.1 0.3z"/>
			</g>
		</g>
		<g>
			<g>
				<path class="s0" d="m443.3 204.9l-1.2 16.2 1.8 0.1 1.3-17.5-0.5-0.1q-0.7 0.6-1.4 1.3z"/>
			</g>
		</g>
	</g>
	<g>
		<g>
			<g>
				<g>
					<g>
						<path class="s0" d="m392.9 109.8l16.1-33.9-1.5-0.8-16.1 34c-0.5 1 0 2.2 1 2.7l57.6 27.4v-1.9l-56.9-27c-0.2-0.1-0.2-0.3-0.2-0.5z"/>
					</g>
				</g>
			</g>
			<g>
				<g>
					<path class="s0" d="m412.5 67.2l37.5 17.8v-1.9l-36.6-17.4q-0.3 0.9-0.9 1.5z"/>
					<path class="s0" d="m408.9 68.8q-0.5 0-1.1-0.3-0.3-0.1-0.5-0.3l-3.1 6.5 45.8 21.7v-1.9l-43.5-20.6z"/>
				</g>
				<g>
					<g>
						<path class="s0" d="m413 65.6l37-3v-1.7l-36.7 3c0.1 0.6 0 1.2-0.3 1.7z"/>
						<path class="s0" d="m408.8 61.7q0.1-0.1 0.3-0.2c0-0.2 0.1-0.4 0.3-0.5q0.5-0.2 1 0l-0.4-5.5 40-3.3v-1.7l-41.9 3.4z"/>
					</g>
				</g>
				<g>
					<path class="s0" d="m411.7 60.8c-2.2-1-5-0.1-6 2.2-1.1 2.3-0.1 5 2.1 6.1 2.3 1 5 0.1 6.1-2.2 1.1-2.3 0.1-5-2.2-6.1zm0.7 5.4c-0.7 1.4-2.4 2-3.8 1.3-1.5-0.6-2.1-2.3-1.4-3.8 0.7-1.4 2.4-2 3.8-1.3 1.4 0.7 2 2.4 1.4 3.8z"/>
				</g>
			</g>
		</g>
		<g>
			<path fill-rule="evenodd" class="s0" d="m412.6 91.2l37.4 17.7v-1.8l-36.7-17.5z"/>
		</g>
		<g>
			<path fill-rule="evenodd" class="s0" d="m409.1 98.6l40.9 19.5v-1.9l-40.2-19.1z"/>
		</g>
		<g>
			<path fill-rule="evenodd" class="s0" d="m405.6 105.9l44.4 21.1v-1.9l-43.7-20.7z"/>
		</g>
		<g>
			<path fill-rule="evenodd" class="s0" d="m408.4 75.1l13-5.3 0.6 1.6-13 5.3z"/>
		</g>
		<g>
			<path fill-rule="evenodd" class="s0" d="m420.2 80.7l13.1-5.2 0.6 1.5-13 5.3z"/>
		</g>
		<g>
			<path fill-rule="evenodd" class="s0" d="m432 86.3l13-5.2 0.6 1.5-13 5.3z"/>
		</g>
		<g>
			<path fill-rule="evenodd" class="s0" d="m444.4 93.5l5.6-2.3v-1.8l-6.2 2.5z"/>
		</g>
		<g>
			<path fill-rule="evenodd" class="s0" d="m413.4 63.9l8.7-11.1 1.3 1.1-8.6 11.1z"/>
		</g>
		<g>
			<path fill-rule="evenodd" class="s0" d="m426.6 62.9l8.6-11.1 1.3 1-8.6 11.1z"/>
		</g>
		<g>
			<path fill-rule="evenodd" class="s0" d="m439.5 61.8l8.6-11.1 1.4 1-8.7 11.1z"/>
		</g>
	</g>
	<g>
		<g>
			<g>
				<path class="s0" d="m237 14.3l4-9.8-11.1-4.5h-4.6l13.4 5.5-3.3 8.1c-0.6 1.4-2.2 2.1-3.6 1.5l-37-15.1h-4.5l40.8 16.7c2.3 1 5-0.1 5.9-2.4z"/>
			</g>
			<g>
				<path class="s0" d="m212.3 62.6l-41.1-16.8c-2.3-1-4.9 0.1-5.9 2.4l-4 9.8 24.8 10.1 24.7 10.2 4-9.8c0.9-2.3-0.2-4.9-2.5-5.9zm0.9 5.2l-3.4 8.2-23-9.5-23.2-9.4 3.3-8.2c0.6-1.4 2.2-2.1 3.7-1.5l41.1 16.8c1.4 0.6 2.1 2.2 1.5 3.6z"/>
			</g>
			<g>
				<path class="s0" d="m227.1 26.4l-41.1-16.8c-2.3-0.9-4.9 0.2-5.8 2.5l-7.9 19.3c-1 2.3 0.1 4.9 2.4 5.8l41.1 16.9c2.3 0.9 5-0.2 5.9-2.5l7.9-19.3c0.9-2.3-0.2-4.9-2.5-5.9zm0.9 5.3l-7.9 19.3c-0.6 1.4-2.2 2.1-3.6 1.5l-41.1-16.9c-1.4-0.5-2.1-2.2-1.5-3.6l7.9-19.3c0.5-1.4 2.2-2.1 3.6-1.5l41.1 16.8c1.4 0.6 2.1 2.3 1.5 3.7z"/>
			</g>
		</g>
		<g>
			<path fill-rule="evenodd" class="s0" d="m224.9 84l30.2-73.7-25.2-10.3h-4.5l27.4 11.3-28.8 70.5-74.4-30.5 21-51.3h-1.8l-21.4 52.3z"/>
		</g>
		<g>
			<g>
				<g>
					<path class="s0" d="m239.2 16.2l6.8 2.8 2.3-5.6-6.8-2.8zm6.9-1.9l-1 2.4-3.7-1.4 1-2.5z"/>
				</g>
			</g>
			<g>
				<g>
					<path fill-rule="evenodd" class="s0" d="m180.4 3.5l1.5-3.5h-1.9l-0.5 1.3-3.1-1.3h-2.5l-0.3 0.7z"/>
				</g>
			</g>
			<g>
				<g>
					<path class="s0" d="m235.2 26l6.8 2.8 2.3-5.7-6.8-2.8zm6.9-1.9l-1 2.5-3.6-1.5 1-2.5z"/>
				</g>
			</g>
		</g>
		<g>
			<g>
				<g>
					<path class="s0" d="m169.6 10.4l6.9 2.8 2.3-5.6-6.9-2.8zm6.9-1.9l-1 2.4-3.6-1.5 1-2.4z"/>
				</g>
			</g>
			<g>
				<g>
					<path class="s0" d="m231.2 35.7l6.9 2.8 2.3-5.7-6.9-2.8zm6.9-1.9l-1 2.5-3.6-1.5 1-2.5z"/>
				</g>
			</g>
			<g>
				<g>
					<path class="s0" d="m165.6 20.1l6.9 2.8 2.3-5.6-6.9-2.8zm7-1.9l-1.1 2.4-3.6-1.5 1-2.4z"/>
				</g>
			</g>
			<g>
				<g>
					<path class="s0" d="m227.2 45.4l6.9 2.8 2.3-5.7-6.8-2.8zm6.9-1.9l-1 2.5-3.7-1.5 1-2.5z"/>
				</g>
			</g>
		</g>
		<g>
			<g>
				<g>
					<path class="s0" d="m161.6 29.9l6.9 2.8 2.3-5.7-6.8-2.8zm6.9-1.9l-1.1 2.5-3.6-1.5 1-2.5z"/>
				</g>
			</g>
			<g>
				<g>
					<path class="s0" d="m223.2 55.1l6.9 2.8 2.3-5.6-6.8-2.8zm6.9-1.9l-1 2.4-3.7-1.5 1-2.4z"/>
				</g>
			</g>
			<g>
				<g>
					<path class="s0" d="m157.7 39.6l6.8 2.8 2.3-5.7-6.8-2.8zm6.9-1.9l-1 2.5-3.7-1.5 1-2.5z"/>
				</g>
			</g>
			<g>
				<g>
					<path class="s0" d="m219.3 64.8l6.8 2.8 2.3-5.6-6.8-2.8zm6.9-1.9l-1 2.4-3.7-1.5 1-2.4z"/>
				</g>
			</g>
			<g>
				<g>
					<path class="s0" d="m153.7 49.3l6.8 2.8 2.3-5.6-6.8-2.8zm6.9-1.9l-1 2.4-3.7-1.5 1-2.4z"/>
				</g>
			</g>
			<g>
				<g>
					<path class="s0" d="m215.3 74.6l6.8 2.8 2.3-5.7-6.8-2.8zm6.9-1.9l-1 2.5-3.7-1.5 1.1-2.5z"/>
				</g>
			</g>
		</g>
	</g>
	<g>
		<g>
			<g>
				<g>
					<path fill-rule="evenodd" class="s0" d="m25 391.1l6.8 38 1.8-0.3-6.4-36.2 3.1-0.6 6.5 36.2 1.8-0.3-6.8-38z"/>
				</g>
				<g>
					<path fill-rule="evenodd" class="s0" d="m14.8 436.5l-1.8 0.3 0.2 1.3 4.7 11.9h1.9l-4.8-12.4z"/>
					<path fill-rule="evenodd" class="s0" d="m58.9 428.7l-1.8 0.3 0.2 1.1-0.4 19.9h1.9l0.3-19.9z"/>
				</g>
			</g>
			<g>
				<path class="s0" d="m10.6 431.8l1.2 6.7 48.8-8.7-1.2-6.7zm2.7 4.6l-0.6-3.1 45.2-8 0.5 3z"/>
			</g>
		</g>
		<g>
			<g>
				<path class="s0" d="m57.9 429.8c-0.2-0.7-0.5-0.8-0.9-0.9l-31.6 21.1h3.4l29.2-19.6q0-0.3-0.1-0.6z"/>
			</g>
		</g>
		<g>
			<g>
				<path class="s0" d="m58.1 444q0-0.8 0-1.7l-11.5 7.7h3.3l8.1-5.4q0-0.3 0.1-0.6z"/>
			</g>
		</g>
	</g>
	<g>
		<g>
			<g>
				<g>
					<g>
						<path class="s0" d="m366.9 431.6l3.3 0.1q0 0 0.1-0.1 0.1-0.9 0.5-1.7l-4.2-0.2q0.2 0.9 0.3 1.9z"/>
					</g>
					<g>
						<path class="s0" d="m371.6 440.5c-0.7-1.2-1.3-2.3-1.6-3.5l-0.7 13h1.9l0.5-9.4q-0.1-0.1-0.1-0.1z"/>
					</g>
					<g>
						<path class="s0" d="m364.3 440.1l-0.6 9.9h1.9l0.7-13.6c-0.4 1.3-1.2 2.5-2 3.7z"/>
					</g>
				</g>
			</g>
			<g>
				<g>
					<path class="s0" d="m351.8 415.4c-9.2-0.5-17.1 6.6-17.6 15.8-0.5 9.3 6.6 17.2 15.8 17.7 9.2 0.5 17.1-6.6 17.6-15.9 0.5-9.2-6.6-17.1-15.8-17.6zm14 17.5c-0.5 8.2-7.5 14.6-15.7 14.1-8.2-0.4-14.5-7.5-14.1-15.7 0.5-8.2 7.5-14.5 15.7-14 8.2 0.4 14.5 7.4 14.1 15.6z"/>
				</g>
			</g>
			<g>
				<g>
					<path class="s0" d="m351.5 421.1c-6.1-0.3-11.3 4.4-11.6 10.5-0.3 6 4.3 11.2 10.4 11.6 6.1 0.3 11.3-4.4 11.6-10.5 0.3-6-4.3-11.2-10.4-11.6zm8.6 11.5c-0.3 5.1-4.6 9-9.7 8.7-5-0.3-8.9-4.6-8.7-9.6 0.3-5.1 4.6-9 9.7-8.7 5 0.2 8.9 4.6 8.7 9.6z"/>
				</g>
			</g>
			<g>
				<g>
					<path class="s0" d="m402.7 435.5c0.5-9.2-6.6-17.1-15.8-17.6-9.3-0.5-17.1 6.6-17.6 15.8-0.4 7.2 3.8 13.6 10 16.3h13.3c5.7-2.4 9.8-7.9 10.1-14.5zm-17.5 14c-8.2-0.4-14.5-7.5-14.1-15.7 0.5-8.2 7.5-14.5 15.7-14 8.2 0.4 14.5 7.4 14.1 15.6-0.5 8.2-7.5 14.6-15.7 14.1z"/>
				</g>
			</g>
			<g>
				<g>
					<path class="s0" d="m386.6 423.6c-6.1-0.3-11.3 4.4-11.6 10.5-0.4 6 4.3 11.2 10.4 11.6 6.1 0.3 11.3-4.4 11.6-10.5 0.3-6-4.4-11.2-10.4-11.6zm8.6 11.5c-0.3 5.1-4.7 9-9.7 8.7-5.1-0.3-9-4.6-8.7-9.6 0.3-5.1 4.6-9 9.7-8.7 5 0.2 8.9 4.6 8.7 9.6z"/>
				</g>
			</g>
		</g>
		<g>
			<g>
				<path class="s0" d="m342.2 445.7q-0.6-0.3-1.3-0.7l3.6 5h2.3l-2.5-3.5c-0.9-0.3-1.6-0.6-2.1-0.8z"/>
			</g>
		</g>
		<g>
			<g>
				<path class="s0" d="m397.4 445.9q-0.9 0.2-1.9 0.4l-2.4 3.7h2.2l2.6-3.8z"/>
			</g>
		</g>
	</g>
	<g>
		<g>
			<g>
				<path class="s0" d="m217.2 444.7l-25.7-10.4-3.9 9.7c-1 2.3 0.1 5 2.4 5.9l0.3 0.1h4.5l-4.1-1.7c-1.5-0.6-2.1-2.2-1.6-3.6l3.4-8.2 22.4 9.2 10.4 4.3h4.6l-12.8-5.2z"/>
			</g>
		</g>
		<g>
			<path fill-rule="evenodd" class="s0" d="m168.8 450h1.8l7.9-19.2 46.9 19.2h4.5l-52.3-21.5z"/>
		</g>
		<g>
			<g>
				<g>
					<path class="s0" d="m177.6 441l6.8 2.8 2.3-5.6-6.8-2.9zm6.9-1.9l-1 2.5-3.7-1.5 1-2.5z"/>
				</g>
			</g>
			<g>
				<g>
					<path fill-rule="evenodd" class="s0" d="m175.9 445.1l-2 4.9h2.5l-0.6-0.2 1-2.5 3.7 1.5-0.5 1.2h1.9l0.8-2.1z"/>
				</g>
			</g>
		</g>
	</g>
	<g>
		<g>
			<g>
				<g>
					<g>
						<path class="s0" d="m160.1 404.7c-6.9-20.3-29-31.2-49.3-24.3-20.3 6.9-31.2 29-24.3 49.3 2.9 8.7 8.7 15.7 16 20.3h4c-8.3-4.2-15-11.5-18.2-21-6.5-19.2 3.9-40.2 23.1-46.8 19.3-6.5 40.3 3.8 46.8 23.1 6 17.5-2.1 36.5-18.1 44.7h4c14.8-9.4 21.9-28 16-45.3z"/>
					</g>
					<g>
						<g>
							<g>
								<path class="s0" d="m113.4 388c-16.1 5.5-24.8 23-19.3 39.1 5.5 16.1 23 24.7 39.1 19.2 16.1-5.4 24.7-22.9 19.2-39-5.4-16.1-22.9-24.8-39-19.3zm19.1 56.5c-15 5.1-31.4-3-36.5-18.1-5.1-15 3-31.4 18-36.5 15.1-5.1 31.5 2.9 36.6 18 5.1 15.1-3 31.5-18.1 36.6z"/>
								<path class="s0" d="m124 390.2c-2.7 0.9-4.9 3.1-5.7 5.9q-0.4 1.3-0.4 2.7 0 1.5 0.4 2.9c1.6 4.7 6.8 7.3 11.5 5.7 2.5-0.9 4.5-2.7 5.5-5.2q0.5-1.2 0.7-2.6 0.1-1.9-0.5-3.7c-1.6-4.8-6.8-7.3-11.5-5.7zm10 9.2q-0.1 1.1-0.5 2.1c-0.8 1.9-2.4 3.4-4.3 4-3.7 1.3-7.7-0.7-9-4.4q-0.4-1.1-0.4-2.3 0-1.1 0.4-2.2c0.6-2.1 2.3-3.8 4.4-4.5 3.8-1.3 7.8 0.7 9.1 4.4q0.4 1.4 0.3 2.9z"/>
								<path class="s0" d="m121.4 411.9c-2.8 1-4.4 4.1-3.4 7 1 2.9 4.1 4.4 7 3.4 2.8-0.9 4.4-4.1 3.4-6.9-1-2.9-4.1-4.4-7-3.5zm2.9 8.6c-1.8 0.6-3.8-0.4-4.4-2.2-0.6-1.9 0.3-3.9 2.2-4.5 1.8-0.6 3.8 0.4 4.4 2.2 0.6 1.8-0.3 3.8-2.2 4.5z"/>
								<path class="s0" d="m116.1 399.4q-0.8-1.1-2-1.9c-2.3-1.7-5.4-2.1-8.1-1.2-4.7 1.6-7.3 6.8-5.7 11.5q0.7 1.9 2.1 3.4 1 1 2.2 1.7c2.2 1.2 4.8 1.4 7.2 0.6 4.8-1.6 7.3-6.8 5.7-11.5q-0.5-1.4-1.4-2.6zm-4.9 12.2c-1.9 0.7-3.9 0.5-5.7-0.5q-0.9-0.5-1.7-1.3-1.1-1.1-1.6-2.6c-1.3-3.7 0.7-7.8 4.4-9 2.2-0.8 4.6-0.4 6.4 0.9q0.9 0.6 1.6 1.5 0.7 0.9 1 2c1.3 3.7-0.7 7.8-4.4 9z"/>
								<path class="s0" d="m139 402.2c-0.9 0.2-1.7 0.6-2.5 1.1-3.6 2.2-5.3 6.6-3.9 10.6 1.3 4.1 5.4 6.6 9.6 6.1q1-0.1 1.9-0.4 0.4-0.1 0.8-0.3c4.3-1.9 6.4-6.7 4.9-11.2-1.5-4.4-6.3-7-10.8-5.9zm5.1 15.3q-1 0.5-2.1 0.6c-3.3 0.4-6.5-1.6-7.6-4.8-1-3.1 0.3-6.6 3.1-8.3q0.7-0.4 1.4-0.7 0.3-0.1 0.6-0.2c3.5-0.8 7.2 1.2 8.4 4.6 1.2 3.6-0.5 7.3-3.8 8.8z"/>
								<path class="s0" d="m144.1 423.4q-1-1.1-2.2-1.8c-2.2-1.3-5-1.6-7.5-0.8-4.7 1.6-7.3 6.8-5.7 11.5q0.5 1.5 1.5 2.8 0.9 1.1 2.1 1.8c2.3 1.6 5.2 2 7.9 1.1 4.8-1.6 7.3-6.8 5.7-11.5q-0.6-1.7-1.8-3.1zm-4.5 12.8c-2.1 0.7-4.4 0.4-6.2-0.9q-1-0.6-1.6-1.5-0.8-0.9-1.2-2.1c-1.3-3.7 0.7-7.7 4.4-9 2-0.7 4.2-0.4 5.9 0.6q1 0.6 1.7 1.4 1 1.1 1.5 2.4c1.2 3.7-0.8 7.8-4.5 9.1z"/>
								<path class="s0" d="m104.3 414.2q-1.3 0.1-2.6 0.7c-4.3 1.9-6.5 6.8-5 11.2 1.6 4.5 6.2 7 10.8 5.9q0.4-0.1 0.8-0.2 0.9-0.3 1.7-0.8c3.6-2.2 5.3-6.7 3.9-10.7-1.3-4-5.4-6.6-9.6-6.1zm4.7 15.1q-1 0.5-2 0.8c-3.6 0.9-7.2-1.1-8.4-4.6-1.2-3.5 0.5-7.3 3.9-8.8q0.3-0.1 0.6-0.2 0.7-0.3 1.5-0.4c3.2-0.3 6.4 1.7 7.5 4.8 1 3.2-0.3 6.7-3.1 8.4z"/>
								<path class="s0" d="m116.4 426.9c-2.4 0.9-4.4 2.7-5.4 5q-0.5 1.3-0.7 2.7-0.2 2 0.4 3.9c1.6 4.7 6.8 7.2 11.5 5.6 2.8-0.9 4.8-3 5.7-5.7q0.5-1.4 0.5-2.7 0-1.6-0.5-3.1c-1.6-4.7-6.8-7.3-11.5-5.7zm9.7 10.9c-0.7 2.1-2.4 3.7-4.5 4.5-3.7 1.2-7.8-0.8-9-4.5q-0.5-1.5-0.3-3 0.1-1.1 0.5-2.1c0.8-1.8 2.3-3.2 4.2-3.9 3.7-1.2 7.8 0.7 9 4.5q0.4 1.1 0.4 2.3 0 1.1-0.3 2.2z"/>
							</g>
						</g>
					</g>
				</g>
			</g>
		</g>
	</g>
	<g>
		<g>
			<g>
				<g>
					<g>
						<path class="s0" d="m145.2 124.3c-20.3 6.9-31.2 29-24.3 49.3 6.8 20.3 29 31.2 49.2 24.3 20.3-6.9 31.2-29 24.4-49.3-6.9-20.3-29-31.2-49.3-24.3zm24.3 71.7c-19.2 6.6-40.2-3.8-46.8-23-6.5-19.3 3.8-40.3 23.1-46.8 19.3-6.6 40.3 3.8 46.8 23 6.5 19.3-3.8 40.3-23.1 46.8z"/>
					</g>
					<g>
						<g>
							<g>
								<path class="s0" d="m155.8 155.9c-2.8 1-4.4 4.1-3.4 6.9 1 2.9 4.1 4.4 6.9 3.5 2.9-1 4.4-4.1 3.5-7-1-2.9-4.1-4.4-7-3.4zm2.9 8.5c-1.8 0.6-3.8-0.4-4.4-2.2-0.7-1.8 0.3-3.8 2.2-4.5 1.8-0.6 3.8 0.4 4.4 2.2 0.6 1.9-0.4 3.9-2.2 4.5z"/>
								<path class="s0" d="m158.4 134.1c-2.7 1-4.9 3.1-5.7 5.9q-0.5 1.3-0.5 2.7 0 1.5 0.5 2.9c1.6 4.8 6.8 7.3 11.5 5.7 2.5-0.8 4.5-2.7 5.5-5.1q0.5-1.3 0.6-2.7 0.2-1.9-0.4-3.7c-1.6-4.7-6.8-7.3-11.5-5.7zm10 9.2q-0.1 1.1-0.5 2.1c-0.8 1.9-2.4 3.4-4.3 4-3.7 1.3-7.8-0.7-9-4.4q-0.4-1.1-0.4-2.3 0-1.1 0.3-2.1c0.7-2.2 2.4-3.9 4.5-4.6 3.7-1.3 7.8 0.7 9 4.4q0.5 1.4 0.4 2.9z"/>
								<path class="s0" d="m178.5 167.3q-1-1-2.2-1.7c-2.3-1.4-5-1.7-7.5-0.8-4.7 1.6-7.3 6.7-5.7 11.5q0.5 1.5 1.5 2.7 0.9 1.1 2 1.9c2.4 1.6 5.3 2 8 1.1 4.8-1.7 7.3-6.8 5.7-11.6q-0.6-1.7-1.8-3.1zm-4.5 12.8c-2.1 0.7-4.4 0.4-6.3-0.9q-0.9-0.6-1.6-1.4-0.7-1-1.1-2.2c-1.3-3.7 0.7-7.7 4.4-9 2-0.6 4.1-0.4 5.9 0.6q1 0.6 1.7 1.4 1 1.1 1.4 2.5c1.3 3.7-0.7 7.7-4.4 9z"/>
								<path class="s0" d="m147.8 131.9c-16.1 5.5-24.8 23-19.3 39.1 5.4 16.1 23 24.7 39.1 19.3 16-5.5 24.7-23 19.2-39.1-5.4-16.1-23-24.7-39-19.3zm19.1 56.5c-15 5.1-31.4-3-36.5-18-5.2-15.1 2.9-31.5 18-36.6 15-5.1 31.5 3 36.6 18 5.1 15.1-3 31.5-18.1 36.6z"/>
								<path class="s0" d="m150.5 143.3q-0.8-1.1-2-1.9c-2.3-1.6-5.4-2.1-8.1-1.2-4.8 1.7-7.3 6.8-5.7 11.6q0.7 1.9 2.1 3.4 1 1 2.2 1.6c2.2 1.2 4.8 1.4 7.2 0.6 4.7-1.6 7.3-6.7 5.7-11.5q-0.5-1.4-1.4-2.6zm-4.9 12.3c-1.9 0.6-3.9 0.4-5.7-0.5q-0.9-0.5-1.7-1.3-1.1-1.2-1.6-2.7c-1.3-3.7 0.7-7.7 4.4-9 2.2-0.7 4.5-0.4 6.4 0.9q0.9 0.7 1.5 1.5 0.7 1 1.1 2.1c1.3 3.7-0.7 7.7-4.4 9z"/>
								<path class="s0" d="m138.7 158.1q-1.4 0.2-2.6 0.7c-4.3 1.9-6.5 6.8-5 11.3 1.5 4.4 6.2 7 10.7 5.9q0.4-0.1 0.8-0.3 0.9-0.3 1.8-0.8c3.6-2.2 5.3-6.7 3.9-10.7-1.3-4-5.4-6.5-9.6-6.1zm4.7 15.1q-1 0.6-2 0.8c-3.6 0.9-7.2-1.1-8.4-4.6-1.2-3.4 0.5-7.3 3.9-8.8q0.2-0.1 0.5-0.2 0.8-0.2 1.5-0.3c3.3-0.4 6.5 1.6 7.5 4.8 1.1 3.1-0.2 6.6-3 8.3z"/>
								<path class="s0" d="m150.8 170.9c-2.4 0.8-4.4 2.6-5.4 4.9q-0.6 1.3-0.7 2.7-0.2 2 0.4 3.9c1.6 4.7 6.8 7.3 11.5 5.7 2.7-1 4.8-3.1 5.7-5.8q0.4-1.3 0.5-2.7 0-1.6-0.5-3c-1.6-4.8-6.8-7.3-11.5-5.7zm9.6 10.8c-0.7 2.1-2.3 3.8-4.4 4.5-3.7 1.3-7.8-0.7-9-4.4q-0.5-1.5-0.4-3.1 0.2-1.1 0.6-2.1c0.8-1.8 2.3-3.2 4.2-3.9 3.7-1.2 7.8 0.8 9 4.5q0.4 1.1 0.4 2.4 0 1.1-0.4 2.1z"/>
								<path class="s0" d="m173.4 146.2c-0.9 0.2-1.8 0.5-2.5 1-3.7 2.2-5.3 6.7-3.9 10.7 1.3 4 5.4 6.6 9.6 6.1q1-0.1 1.9-0.4 0.4-0.2 0.7-0.3c4.4-2 6.5-6.8 5-11.2-1.6-4.5-6.3-7.1-10.8-5.9zm5 15.3q-0.9 0.4-2 0.5c-3.3 0.4-6.5-1.6-7.6-4.7-1-3.2 0.2-6.7 3.1-8.4q0.6-0.4 1.4-0.7 0.3-0.1 0.6-0.1c3.5-0.9 7.2 1.1 8.4 4.6 1.2 3.5-0.5 7.3-3.9 8.8z"/>
							</g>
						</g>
					</g>
				</g>
			</g>
		</g>
	</g>
	<g>
		<g>
			<g>
				<g>
					<g>
						<path class="s0" d="m135.8 4c2.9-1 5.7-2.4 8.3-4h-4q-2.4 1.2-5 2.1c-9.8 3.3-20 2.3-28.6-2.1h-4c9.6 6 21.7 7.9 33.3 4z"/>
					</g>
				</g>
			</g>
		</g>
	</g>
</svg>