<?xml version="1.0" encoding="utf-8"?>
<!-- Generator: Adobe Illustrator 27.5.0, SVG Export Plug-In . SVG Version: 6.00 Build 0)  -->
<svg version="1.1" id="Layer_1" xmlns="http://www.w3.org/2000/svg" xmlns:xlink="http://www.w3.org/1999/xlink" x="0px" y="0px"
	 viewBox="0 0 800 800" style="enable-background:new 0 0 800 800;" xml:space="preserve">
<g>
	<rect x="0.495" y="0.494" style="fill:#DB5252;" width="199.877" height="199.876"/>
	<polygon style="fill:#C60619;" points="200.372,65.709 158.21,23.549 39.558,68.291 34.493,177.314 57.548,200.37 200.372,200.37 	
		"/>
	<polygon style="fill:#043559;" points="87.668,86.863 97.184,102.885 115.251,102.885 105.734,86.863 	"/>
	<polygon style="fill:#043559;" points="136.49,86.863 121.077,86.863 130.594,102.885 146.006,102.885 	"/>
	<polygon style="fill:#043559;" points="168.608,102.885 168.608,86.863 151.833,86.863 161.349,102.885 	"/>
	<polygon style="fill:#FFFFFF;" points="72.324,86.863 81.841,102.885 97.184,102.885 87.668,86.863 	"/>
	<polygon style="fill:#FFFFFF;" points="105.734,86.863 115.251,102.885 130.594,102.885 121.077,86.863 	"/>
	<polygon style="fill:#FFFFFF;" points="161.349,102.885 151.833,86.863 136.49,86.863 146.006,102.885 	"/>
	<polygon style="fill:#043559;" points="59.154,78.025 60.116,60.539 77.021,54.164 73.771,72.512 	"/>
	<polygon style="fill:#043559;" points="88.127,67.1 91.379,48.75 108.283,42.375 105.033,60.723 	"/>
	<polygon style="fill:#043559;" points="133.811,49.873 119.39,55.312 122.641,36.962 137.061,31.524 	"/>
	<polygon style="fill:#043559;" points="158.21,23.549 163.865,38.54 148.166,44.459 151.42,26.11 	"/>
	<polygon style="fill:#FFFFFF;" points="73.771,72.512 77.021,54.164 91.379,48.75 88.127,67.1 	"/>
	<polygon style="fill:#FFFFFF;" points="105.033,60.723 108.283,42.375 122.641,36.962 119.39,55.312 	"/>
	<polygon style="fill:#FFFFFF;" points="151.42,26.11 148.166,44.459 133.811,49.873 137.061,31.524 	"/>
	<path style="fill:#043559;" d="M81.841,102.885l-9.517-16.022H66.46c2.75,4.796,4.398,10.24,4.644,16.022H81.841z"/>
	<path style="fill:#043559;" d="M45.759,65.951l-6.201,2.339c1.898,0.333,3.749,0.798,5.542,1.385L45.759,65.951z"/>
	<path style="fill:#FFFFFF;" d="M59.154,78.025l0.962-17.486l-14.357,5.413L45.1,69.675C49.611,71.155,55.188,74.06,59.154,78.025z"
		/>
	<path style="fill:#043559;" d="M62.52,86.863c-1.851-2.827-4.129-5.375-6.759-7.559c-3.272-2.717-7.081-4.869-11.25-6.296
		c-3.736-1.279-7.76-1.981-11.957-1.981c-0.065,0-0.132,0-0.198,0c-0.033,0.001-0.066,0.001-0.099,0.001l0.002,31.67h31.403h4.084
		C67.443,96.911,65.563,91.512,62.52,86.863z"/>
	<path style="fill:#FFFFFF;" d="M42.005,79.366c0,1.439-1.168,2.607-2.608,2.607c-1.44,0-2.609-1.168-2.609-2.608
		c0-1.441,1.167-2.608,2.609-2.608C40.837,76.756,42.005,77.924,42.005,79.366z"/>
	<path style="fill:#FFFFFF;" d="M42.005,94.269c-0.002,1.44-1.168,2.609-2.608,2.608c-1.44,0.001-2.609-1.168-2.609-2.608
		c0-1.44,1.167-2.607,2.609-2.607C40.837,91.662,42.005,92.829,42.005,94.269z"/>
	<path style="fill:#FFFFFF;" d="M59.801,94.269c0,1.44-1.167,2.609-2.609,2.609c-1.44-0.001-2.609-1.169-2.607-2.609
		c0-1.44,1.167-2.607,2.607-2.607C58.633,91.662,59.799,92.829,59.801,94.269z"/>
	<rect x="34.493" y="102.698" style="fill:#83ACC6;" width="65.804" height="74.616"/>
	<rect x="100.297" y="102.699" style="fill:#537F91;" width="65.803" height="74.616"/>
	<rect x="44.036" y="118.486" style="fill:#FFFFFF;" width="56.261" height="3.978"/>
	<rect x="44.036" y="138.02" style="fill:#FFFFFF;" width="56.261" height="3.975"/>
	<rect x="44.036" y="157.552" style="fill:#FFFFFF;" width="56.261" height="3.976"/>
	<rect x="100.297" y="118.486" style="fill:#D3D3D3;" width="56.262" height="3.978"/>
	<rect x="100.297" y="138.02" style="fill:#D3D3D3;" width="56.262" height="3.975"/>
	<rect x="100.297" y="157.552" style="fill:#D3D3D3;" width="56.262" height="3.976"/>
</g>
<g>
	<rect x="200.371" y="200.37" style="fill:#83ACC6;" width="199.876" height="199.877"/>
	<polygon style="fill:#537F91;" points="400.247,316.038 317.413,233.207 270.372,369.884 300.737,400.248 400.247,400.246 	"/>
	<path style="fill:#FFFFFF;" d="M264.121,281.481h-13.988c6.745,29.467,13.493,58.936,20.239,88.402h8.347
		C273.851,340.415,268.988,310.948,264.121,281.481z"/>
	<path style="fill:#DB5252;" d="M276.833,281.481h-12.676c4.862,29.467,9.723,58.936,14.585,88.402h7.56
		C283.147,340.418,279.99,310.948,276.833,281.481z"/>
	<path style="fill:#FFFFFF;" d="M276.833,281.481c3.157,29.467,6.314,58.936,9.469,88.402h7.103
		c-1.554-29.466-3.113-58.936-4.669-88.405L276.833,281.481z"/>
	<path style="fill:#DB5252;" d="M300.309,281.481h-11.54c1.551,29.467,3.104,58.936,4.659,88.402h6.884
		C300.309,340.415,300.312,310.95,300.309,281.481z"/>
	<path style="fill:#D3D3D3;" d="M300.309,281.481c0.003,29.468,0,58.933,0.003,88.402h6.883c1.552-29.468,3.104-58.936,4.653-88.402
		H300.309z"/>
	<path style="fill:#D3D3D3;" d="M300.312,369.884c-0.003-29.469,0-58.934-0.003-88.402
		C300.312,310.95,300.309,340.415,300.312,369.884z"/>
	<path style="fill:#C60619;" d="M323.787,281.481h-11.902c-1.558,29.467-3.113,58.936-4.669,88.402h7.1
		C317.47,340.415,320.63,310.948,323.787,281.481z"/>
	<path style="fill:#D3D3D3;" d="M323.787,281.481c-3.157,29.467-6.317,58.934-9.472,88.402h7.564
		c4.859-29.468,9.723-58.936,14.585-88.402H323.787z"/>
	<path style="fill:#D3D3D3;" d="M314.315,369.884c3.154-29.468,6.314-58.936,9.472-88.402
		C320.63,310.948,317.47,340.415,314.315,369.884z"/>
	<path style="fill:#C60619;" d="M336.502,281.479c-4.869,29.469-9.735,58.936-14.601,88.405h8.347
		c6.747-29.466,13.492-58.936,20.241-88.402L336.502,281.479z"/>
	<rect x="246.576" y="275.005" style="fill:#FFFFFF;" width="53.732" height="6.477"/>
	<rect x="300.309" y="275.005" style="fill:#D3D3D3;" width="53.729" height="6.477"/>
	<path style="fill:#FFEB99;" d="M271.382,264.609c-2.729,0.235-5.027,1.782-6.336,3.966c-1.222-2.151-3.613-3.518-6.238-3.291
		c-3.601,0.306-6.271,3.475-5.961,7.072c0.309,3.598,3.473,6.268,7.072,5.959c1.864-0.158,3.476-1.089,4.553-2.444
		c1.319,3.248,4.63,5.407,8.308,5.091c4.517-0.382,7.863-4.357,7.477-8.873C279.873,267.572,275.898,264.224,271.382,264.609z"/>
	<path style="fill:#FFFFFF;" d="M275.742,261.093c0.436,5.105-3.348,9.594-8.452,10.031c-5.105,0.434-9.6-3.35-10.033-8.456
		c-0.434-5.102,3.351-9.594,8.456-10.029C270.816,252.203,275.307,255.99,275.742,261.093z"/>
	<path style="fill:#FFEB99;" d="M290.984,242.74c-2.727,0.23-5.026,1.781-6.335,3.962c-1.225-2.149-3.614-3.513-6.241-3.288
		c-3.596,0.306-6.265,3.472-5.961,7.071c0.308,3.6,3.475,6.266,7.073,5.959c1.865-0.158,3.476-1.087,4.556-2.444
		c1.316,3.247,4.629,5.404,8.304,5.092c4.516-0.386,7.863-4.36,7.478-8.873C299.474,245.702,295.499,242.353,290.984,242.74z"/>
	<path style="fill:#FFFFFF;" d="M304.778,238.262c0.48,5.651-3.711,10.624-9.364,11.107c-5.653,0.483-10.626-3.709-11.111-9.361
		c-0.479-5.656,3.711-10.626,9.366-11.11C299.319,228.416,304.295,232.608,304.778,238.262z"/>
	<path style="fill:#FFEB99;" d="M334.768,264.683c-1.615,1.607-2.248,3.819-1.92,5.911c-1.927-0.716-4.182-0.309-5.734,1.235
		c-2.132,2.118-2.139,5.561-0.024,7.693c2.12,2.127,5.563,2.141,7.691,0.021c1.105-1.097,1.636-2.549,1.596-3.991
		c2.576,1.369,5.844,0.976,8.02-1.19c2.674-2.655,2.681-6.977,0.023-9.649C341.764,262.04,337.442,262.026,334.768,264.683z"/>
	<path style="fill:#FFFFFF;" d="M337.954,258.351c2.689,3.299,2.201,8.159-1.097,10.853c-3.299,2.693-8.16,2.206-10.856-1.095
		c-2.694-3.301-2.202-8.161,1.097-10.854C330.399,254.561,335.256,255.05,337.954,258.351z"/>
	<path style="fill:#FFEB99;" d="M293.528,260.217c-3.064,2.257-4.662,5.756-4.631,9.293c-3.008-1.661-6.831-1.543-9.778,0.627
		c-4.041,2.972-4.907,8.658-1.937,12.7c2.976,4.043,8.663,4.906,12.704,1.935c2.092-1.541,3.326-3.81,3.623-6.199
		c3.917,2.893,9.408,3.047,13.535,0.012c5.07-3.732,6.152-10.868,2.424-15.939C305.736,257.574,298.602,256.486,293.528,260.217z"/>
	<path style="fill:#FFFFFF;" d="M296.145,252.89c4.218,5.731,2.989,13.796-2.742,18.016c-5.734,4.217-13.8,2.989-18.017-2.744
		c-4.219-5.733-2.989-13.796,2.742-18.017C283.86,245.929,291.928,247.156,296.145,252.89z"/>
	<path style="fill:#FFEB99;" d="M312.415,264.484c1.69,2.159,4.239,3.24,6.784,3.146c-1.137,2.199-0.975,4.946,0.644,7.024
		c2.223,2.849,6.332,3.357,9.178,1.139c2.851-2.225,3.358-6.332,1.137-9.18c-1.148-1.477-2.808-2.317-4.532-2.48
		c2.002-2.877,2.002-6.832-0.262-9.741c-2.788-3.576-7.944-4.212-11.521-1.427C310.271,255.753,309.631,260.91,312.415,264.484z"/>
	<path style="fill:#FFFFFF;" d="M307.094,262.749c4.036-3.148,9.87-2.425,13.02,1.613c3.149,4.042,2.424,9.869-1.614,13.019
		c-4.04,3.149-9.869,2.428-13.018-1.612C302.335,271.73,303.054,265.899,307.094,262.749z"/>
	<path style="fill:#FFECC0;" d="M299.866,257.754c2.284-1.52,3.555-3.979,3.656-6.524c2.104,1.301,4.856,1.348,7.051-0.109
		c3.009-1.994,3.829-6.054,1.831-9.064c-1.999-3.008-6.055-3.829-9.061-1.831c-1.56,1.034-2.525,2.624-2.822,4.329
		c-2.715-2.213-6.657-2.518-9.732-0.477c-3.775,2.507-4.803,7.602-2.295,11.376C290.997,259.23,296.09,260.26,299.866,257.754z"/>
	<path style="fill:#FFFFFF;" d="M297.732,262.93c-2.833-4.267-1.671-10.025,2.597-12.859c4.271-2.835,10.025-1.669,12.858,2.6
		c2.835,4.267,1.671,10.022-2.599,12.857C306.326,268.36,300.565,267.197,297.732,262.93z"/>
	<path style="fill:#FFEB99;" d="M305.919,250.004c2.244-1.571,3.458-4.061,3.498-6.606c2.134,1.249,4.888,1.231,7.045-0.275
		c2.964-2.073,3.686-6.15,1.615-9.112c-2.067-2.959-6.143-3.684-9.106-1.613c-1.534,1.069-2.459,2.682-2.714,4.396
		c-2.769-2.148-6.718-2.354-9.738-0.242c-3.717,2.597-4.622,7.712-2.027,11.427C297.088,251.691,302.205,252.601,305.919,250.004z"
		/>
	<path style="fill:#FFFFFF;" d="M303.909,255.232c-2.934-4.197-1.907-9.982,2.286-12.917c4.201-2.937,9.984-1.909,12.919,2.288
		c2.936,4.201,1.909,9.985-2.288,12.919C312.625,260.455,306.845,259.431,303.909,255.232z"/>
</g>
<g>
	<rect x="400.247" y="400.247" style="fill:#83ACC6;" width="199.88" height="199.876"/>
	<polygon style="fill:#537F91;" points="600.127,517.001 542.361,459.237 470.66,549.254 435.328,545.287 418.689,555.044 
		463.771,600.123 600.127,600.123 	"/>
	<path style="fill:#043559;" d="M501.416,557.924c-9.862,0-20.004-1.743-29.872-3.866c-17.749-3.814-36.1-7.766-52.855,0.986
		l-3.25-6.223c19.001-9.922,38.615-5.701,57.58-1.623c16.299,3.503,31.695,6.814,45.486,0.905l2.765,6.197
		C514.813,557.068,508.199,557.924,501.416,557.924z"/>
	<path style="fill:#FFFFFF;" d="M559.323,500.185c0,31.98-25.93,57.907-57.907,57.907c-31.981-0.001-57.907-25.928-57.907-57.907
		c0-31.983,25.926-57.908,57.907-57.908C533.398,442.276,559.323,468.201,559.323,500.185z"/>
	<g>
		<path style="fill:#043559;" d="M498.296,531.412c0,8.237-6.677,14.911-14.913,14.912c-8.237-0.001-14.909-6.675-14.909-14.91
			c0.003-8.235,6.677-14.91,14.912-14.911C491.619,516.504,498.296,523.176,498.296,531.412z"/>
	</g>
	<g>
		<path style="fill:#043559;" d="M472.808,513.1c-7.13,4.112-16.248,1.67-20.366-5.461c-4.116-7.134-1.676-16.254,5.461-20.366
			c7.129-4.114,16.243-1.675,20.365,5.455C482.388,499.86,479.939,508.98,472.808,513.1z"/>
	</g>
	<g>
		<path style="fill:#043559;" d="M475.931,481.868c-7.132-4.118-9.577-13.238-5.458-20.371c4.118-7.131,13.238-9.57,20.365-5.452
			c7.134,4.114,9.578,13.234,5.459,20.366C492.178,483.541,483.059,485.982,475.931,481.868z"/>
	</g>
	<g>
		<path style="fill:#043559;" d="M504.538,468.956c0-8.239,6.672-14.911,14.907-14.913c8.232,0.002,14.91,6.678,14.91,14.913
			c0,8.231-6.678,14.909-14.91,14.907C511.21,483.863,504.538,477.19,504.538,468.956z"/>
	</g>
	<g>
		<path style="fill:#043559;" d="M530.021,487.272c7.129-4.114,16.249-1.675,20.368,5.455c4.117,7.138,1.675,16.253-5.459,20.37
			c-7.132,4.118-16.247,1.672-20.366-5.459C520.445,500.505,522.89,491.389,530.021,487.272z"/>
	</g>
	<g>
		<path style="fill:#043559;" d="M526.897,518.5c7.133,4.119,9.578,13.239,5.458,20.366c-4.119,7.135-13.232,9.575-20.365,5.462
			c-7.13-4.119-9.572-13.238-5.458-20.37C510.65,516.827,519.767,514.384,526.897,518.5z"/>
	</g>
	<g>
		<path style="fill:#043559;" d="M509.663,501.721c1.783-0.002,3.229,1.443,3.229,3.224c0,1.785-1.446,3.229-3.229,3.229
			c-1.78,0-3.226-1.442-3.226-3.229C506.438,503.167,507.883,501.722,509.663,501.721z"/>
	</g>
	<g>
		<path style="fill:#043559;" d="M504.21,508.097c0.891,1.54,0.363,3.52-1.18,4.409c-1.545,0.89-3.517,0.358-4.406-1.188
			c-0.895-1.538-0.363-3.513,1.178-4.406C501.344,506.023,503.32,506.553,504.21,508.097z"/>
	</g>
	<g>
		<path style="fill:#043559;" d="M495.956,506.56c-0.886,1.541-2.86,2.072-4.402,1.179c-1.543-0.89-2.074-2.864-1.184-4.406
			c0.89-1.541,2.866-2.07,4.412-1.18C496.324,503.044,496.851,505.02,495.956,506.56z"/>
	</g>
	<g>
		<path style="fill:#043559;" d="M493.171,498.648c-1.786,0-3.229-1.443-3.233-3.225c0.004-1.784,1.447-3.228,3.233-3.23
			c1.78,0,3.224,1.445,3.224,3.23C496.395,497.205,494.951,498.648,493.171,498.648z"/>
	</g>
	<g>
		<path style="fill:#043559;" d="M498.624,492.272c-0.895-1.542-0.363-3.517,1.178-4.405c1.542-0.894,3.518-0.364,4.408,1.182
			c0.895,1.537,0.363,3.517-1.18,4.407C501.485,494.345,499.514,493.815,498.624,492.272z"/>
	</g>
	<g>
		<path style="fill:#043559;" d="M506.872,493.81c0.89-1.543,2.861-2.076,4.403-1.183c1.546,0.891,2.074,2.866,1.184,4.408
			c-0.89,1.542-2.867,2.071-4.407,1.18C506.51,497.324,505.981,495.352,506.872,493.81z"/>
	</g>
</g>
<g>
	<rect x="0.494" y="400.247" style="fill:#FFEB99;" width="199.876" height="199.876"/>
	<polygon style="fill:#F2CB4E;" points="200.37,474.246 156.73,430.605 122.756,485.584 81.621,444.448 51.188,474.882 
		99.511,523.202 91.543,536.096 78.831,523.385 51.584,550.629 66.13,565.176 51.584,580.396 71.313,600.123 200.37,600.123 	"/>
	<polygon style="fill:#043559;" points="103.352,523.632 103.527,523.385 102.814,522.876 99.354,518.017 97.67,519.217 
		95.983,518.017 92.522,522.88 91.811,523.387 91.985,523.632 51.584,580.396 62.951,580.396 97.668,531.617 132.387,580.396 
		143.752,580.396 	"/>
	<rect x="51.585" y="478.756" style="fill:#DB5252;" width="92.169" height="35.936"/>
	<rect x="51.584" y="514.691" style="fill:#C60619;" width="92.17" height="35.938"/>
	<rect x="40.347" y="501.158" style="fill:#FFFFFF;" width="7.224" height="13.533"/>
	<rect x="40.347" y="514.691" style="fill:#043559;" width="7.223" height="13.534"/>
	<path style="fill:#FFFFFF;" d="M153.219,505.113l-6.81,9.565c0.019,0.013,6.812,0.013,6.812,0.013L153.219,505.113z"/>
	<path style="fill:#043559;" d="M153.221,524.274v-9.583h-6.793C146.409,514.705,153.221,524.274,153.221,524.274z"/>
	<polygon style="fill:#FFFFFF;" points="166.707,514.691 166.708,486.16 159.899,495.729 159.899,514.691 	"/>
	<polygon style="fill:#043559;" points="159.899,533.657 166.708,543.225 166.707,514.691 159.899,514.691 	"/>
	<polygon style="fill:#DB5252;" points="159.899,514.691 159.899,495.729 153.219,505.113 153.221,514.691 	"/>
	<polygon style="fill:#C60619;" points="153.221,514.691 153.221,524.274 159.899,533.657 159.899,514.691 	"/>
	<path style="fill:#043559;" d="M89.878,464.378c0,15.566-12.621,28.186-28.189,28.186c-15.565,0-28.184-12.619-28.184-28.185
		c0-15.568,12.619-28.188,28.186-28.188C77.259,436.191,89.876,448.81,89.878,464.378z"/>
	<g>
		<path style="fill:#FFFFFF;" d="M60.172,479.576c0,4.012-3.25,7.258-7.262,7.26c-4.006-0.002-7.254-3.248-7.255-7.26
			c0.003-4.006,3.25-7.256,7.259-7.256C56.922,472.32,60.17,475.57,60.172,479.576z"/>
	</g>
	<g>
		<path style="fill:#FFFFFF;" d="M47.765,470.662c-3.47,2.004-7.907,0.814-9.912-2.657c-2.003-3.472-0.817-7.909,2.657-9.913
			c3.471-2.002,7.908-0.816,9.913,2.656C52.429,464.219,51.237,468.658,47.765,470.662z"/>
	</g>
	<g>
		<path style="fill:#FFFFFF;" d="M49.285,455.463c-3.472-2.004-4.66-6.446-2.656-9.916c2.005-3.47,6.445-4.659,9.914-2.654
			c3.472,2.004,4.661,6.442,2.657,9.914C57.195,456.274,52.754,457.465,49.285,455.463z"/>
	</g>
	<g>
		<path style="fill:#FFFFFF;" d="M63.21,449.175c0-4.007,3.25-7.255,7.256-7.257c4.008,0,7.257,3.25,7.256,7.257
			c0.001,4.009-3.248,7.258-7.256,7.258C66.46,456.433,63.21,453.184,63.21,449.175z"/>
	</g>
	<g>
		<path style="fill:#FFFFFF;" d="M75.614,458.092c3.472-2.004,7.909-0.816,9.913,2.654c2.005,3.475,0.814,7.912-2.656,9.914
			c-3.472,2.006-7.91,0.816-9.914-2.655C70.952,464.533,72.142,460.096,75.614,458.092z"/>
	</g>
	<g>
		<path style="fill:#FFFFFF;" d="M74.094,473.292c3.472,2.004,4.662,6.441,2.657,9.914c-2.004,3.474-6.441,4.66-9.913,2.657
			c-3.47-2.005-4.66-6.445-2.657-9.913C66.186,472.478,70.622,471.29,74.094,473.292z"/>
	</g>
	<path style="fill:#043559;" d="M167.361,456.27c0,20.045-16.252,36.294-36.297,36.294c-20.043,0-36.293-16.252-36.291-36.292
		c0-20.047,16.249-36.298,36.293-36.298C151.111,419.974,167.361,436.225,167.361,456.27z"/>
	<g>
		<path style="fill:#FFFFFF;" d="M129.11,475.842c0,5.164-4.185,9.346-9.347,9.347c-5.16-0.001-9.345-4.183-9.345-9.347
			c0.002-5.159,4.185-9.342,9.347-9.342C124.927,466.5,129.108,470.679,129.11,475.842z"/>
	</g>
	<g>
		<path style="fill:#FFFFFF;" d="M113.136,464.363c-4.469,2.581-10.184,1.049-12.766-3.421c-2.578-4.473-1.05-10.189,3.423-12.767
			c4.468-2.578,10.181-1.05,12.765,3.421C119.141,456.067,117.605,461.783,113.136,464.363z"/>
	</g>
	<g>
		<path style="fill:#FFFFFF;" d="M115.092,444.792c-4.468-2.585-6.002-8.301-3.42-12.768c2.58-4.471,8.297-6.002,12.765-3.42
			c4.469,2.579,6.002,8.293,3.421,12.767C125.276,445.837,119.561,447.368,115.092,444.792z"/>
	</g>
	<g>
		<path style="fill:#FFFFFF;" d="M133.023,436.697c0-5.164,4.182-9.344,9.344-9.349c5.162,0.003,9.343,4.185,9.345,9.349
			c0.002,5.161-4.185,9.345-9.345,9.345C137.205,446.042,133.023,441.858,133.023,436.697z"/>
	</g>
	<g>
		<path style="fill:#FFFFFF;" d="M148.994,448.176c4.47-2.581,10.185-1.05,12.769,3.42c2.578,4.475,1.048,10.188-3.422,12.768
			c-4.469,2.581-10.187,1.049-12.766-3.421C142.994,456.47,144.525,450.754,148.994,448.176z"/>
	</g>
	<g>
		<path style="fill:#FFFFFF;" d="M147.038,467.749c4.47,2.579,6.002,8.296,3.42,12.764c-2.581,4.476-8.293,6.004-12.765,3.426
			c-4.469-2.582-5.998-8.301-3.42-12.767C136.852,466.702,142.567,465.171,147.038,467.749z"/>
	</g>
	<rect x="73.096" y="531.617" style="fill:#043559;" width="49.145" height="8.422"/>
</g>
<g>
	<rect x="0.494" y="600.123" style="fill:#83ACC6;" width="199.876" height="199.877"/>
	<polygon style="fill:#537F91;" points="200.37,701.354 131.206,632.188 32.561,730.835 101.724,800 200.37,800 	"/>
	<path style="fill:#FFEB99;" d="M168.308,669.289L165.017,666c-2.205,2.201-5.778,2.201-7.983-0.004
		c-2.202-2.199-2.2-5.778,0.001-7.977l-3.288-3.289c-2.202,2.201-5.78,2.202-7.981-0.001c-2.201-2.205-2.205-5.776,0-7.981
		l-3.288-3.289c-2.204,2.204-5.776,2.204-7.976-0.001c-2.208-2.202-2.208-5.774-0.004-7.977l-3.293-3.293
		c-7.309,7.31-19.16,7.31-26.471,0l-72.174,72.177c7.308,7.31,7.31,19.159,0,26.471l3.293,3.294c2.204-2.207,5.775-2.207,7.983,0
		c2.202,2.202,2.202,5.773-0.007,7.979l3.291,3.285c2.202-2.203,5.78-2.201,7.979,0c2.202,2.204,2.206,5.779,0,7.981l3.288,3.289
		c2.205-2.203,5.777-2.203,7.982,0c2.204,2.204,2.202,5.776,0,7.981l3.291,3.292c7.311-7.309,19.161-7.309,26.469,0l72.177-72.176
		C160.997,688.45,160.999,676.602,168.308,669.289z"/>
	<polygon style="fill:#C60619;" points="112.981,648.156 69.762,691.374 72.523,694.134 112.981,653.679 146.818,687.518 
		106.361,727.976 109.123,730.736 152.341,687.518 	"/>
	<polygon style="fill:#C60619;" points="87.89,746.444 54.051,712.606 62.629,704.029 59.867,701.266 48.526,712.606 87.89,751.97 
		99.229,740.629 96.467,737.867 	"/>
	
		<rect x="53.047" y="683.232" transform="matrix(0.707 -0.7073 0.7073 0.707 -469.342 240.0432)" style="fill:#C60619;" width="3.905" height="6.33"/>
	
		<rect x="112.144" y="742.33" transform="matrix(0.7072 -0.707 0.707 0.7072 -493.6816 298.9681)" style="fill:#C60619;" width="3.907" height="6.33"/>
	
		<rect x="103.702" y="733.888" transform="matrix(0.7073 -0.7069 0.7069 0.7073 -490.1295 290.4541)" style="fill:#C60619;" width="3.906" height="6.329"/>
	
		<rect x="95.261" y="725.445" transform="matrix(0.7072 -0.707 0.707 0.7072 -486.6622 282.0539)" style="fill:#C60619;" width="3.906" height="6.331"/>
	
		<rect x="86.818" y="717.003" transform="matrix(0.7074 -0.7068 0.7068 0.7074 -483.0452 273.4591)" style="fill:#C60619;" width="3.905" height="6.329"/>
	
		<rect x="78.374" y="708.56" transform="matrix(0.707 -0.7072 0.7072 0.707 -479.7882 265.3223)" style="fill:#C60619;" width="3.907" height="6.33"/>
	
		<rect x="69.932" y="700.116" transform="matrix(0.7071 -0.7071 0.7071 0.7071 -476.2156 256.7865)" style="fill:#C60619;" width="3.907" height="6.331"/>
	
		<rect x="61.49" y="691.676" transform="matrix(0.7071 -0.7071 0.7071 0.7071 -472.7441 248.3754)" style="fill:#C60619;" width="3.907" height="6.328"/>
	<polygon style="fill:#C60619;" points="96.584,680.621 108.37,686.629 117.723,677.275 115.656,690.342 127.443,696.347 
		114.378,698.418 112.309,711.482 106.301,699.693 93.235,701.766 102.589,692.41 	"/>
</g>
<g>
	<rect x="200.371" y="400.247" style="fill:#DB5252;" width="199.877" height="199.876"/>
	<polygon style="fill:#C60619;" points="400.249,476.912 370.135,446.8 232.066,532.249 299.939,600.123 400.249,600.123 	"/>
	<path style="fill:#005F89;" d="M250.846,527.151v-76.829h49.462v-9.493l-57.796-0.001c-8.081,0-14.632,6.553-14.634,14.635
		l0.002,66.55c0,8.078,6.55,14.633,14.632,14.633l57.796-0.003v-9.49L250.846,527.151z"/>
	<rect x="250.846" y="450.322" style="fill:#FFFFFF;" width="49.462" height="76.83"/>
	<path style="fill:#043559;" d="M372.738,522.013l0.001-66.552c0-8.08-6.555-14.632-14.633-14.633l-57.797,0.001v9.493h49.462
		l-0.002,76.83h-49.46v9.49l57.796,0.003C366.189,536.643,372.739,530.092,372.738,522.013z"/>
	<rect x="300.309" y="450.322" style="fill:#D3D3D3;" width="49.461" height="76.83"/>
	<path style="fill:#005F89;" d="M296.327,474.479l-0.321-0.236c-1.057-0.78-2.005-0.964-2.942-0.409
		c-0.587,0.35-0.754,1.073-0.754,1.663v26.515c0,0.589,0.254,1.359,0.859,1.699c0.87,0.472,1.992,0.246,3.051-0.533l4.089-3.205
		v-22.389L296.327,474.479z"/>
	<path style="fill:#005F89;" d="M300.309,512.896c-13.612,0-24.645-10.816-24.645-24.165c0-13.347,11.035-24.16,24.645-24.16
		c0-0.002,0-3.722,0-3.722c-15.709,0-28.439,12.476-28.439,27.882c0,15.409,12.73,27.898,28.439,27.898V512.896z"/>
	<path style="fill:#043559;" d="M312.727,487.261l-12.418-9.677v22.389l12.418-9.724C313.597,489.39,313.597,488.12,312.727,487.261
		z"/>
	<path style="fill:#043559;" d="M328.751,488.73c0-15.403-12.73-27.88-28.442-27.882v3.72c13.608,0.002,24.641,10.815,24.641,24.16
		c0,13.349-11.033,24.165-24.641,24.167v3.733C316.021,516.626,328.751,504.138,328.751,488.73z"/>
	<path style="fill:#F2CB4E;" d="M350.109,542.871c-3.661-3.283-8.85-2.932-12.105,1.167l-13.713,18.583l-0.009-11.207v-8.182
		l0.001-40.708c-0.001-4.6-3.722-8.318-8.315-8.318c-3.262,0-7.379,2.559-7.442,7.69l-0.007,32.729
		c-0.027,0.746-0.295,0.959-0.664,0.96c-0.366,0-0.66-0.33-0.66-0.929l0.007-1.786c-0.125-4.31-4.215-7.214-7.87-7.214
		c-3.707,0-7.87,2.441-7.912,7.364l-0.208,6.552c0,0.289-0.097,0.582-0.463,0.582c-0.364,0-0.434-0.184-0.551-0.375l-0.113-0.587
		c-0.356-3.911-3.533-6.995-6.897-7.028c-4.455-0.063-7.82,3.486-7.818,7.812l-0.002,5.3c0,0.266-0.125,0.753-0.491,0.753
		c-0.368,0.004-0.536-0.271-0.648-0.422l-0.187-0.331c-1.404-2.566-2.811-3.977-6.053-3.743c-4.066,0.299-7.377,3.305-7.377,7.391
		v7.452v14.803c0,0.108,0.009,0.211,0.007,0.325c18.123,11.643,39.588,18.517,62.637,18.874l27.559-34.939
		C354.091,551.778,353.775,546.15,350.109,542.871z"/>
	<path style="fill:#FFEB99;" d="M315.44,600.123l35.372-44.659c3.279-3.671,2.962-9.3-0.701-12.569
		c-3.663-3.28-8.85-2.94-12.107,1.18l-13.713,18.58l-0.005-4.668l-0.003-6.541v-6.659c-1.888-2.225-4.704-3.686-7.891-3.776
		c-2.943-0.076-5.628,1.02-7.596,2.863c-1.976-2.605-5.159-4.271-8.72-4.195c-3.713,0.077-6.929,2.002-8.77,4.86
		c-2.004-1.313-4.503-1.977-7.13-1.693c-3.987,0.415-7.235,2.889-8.694,6.168c-2.198-1.222-4.969-1.688-7.808-1.104
		c-3.029,0.617-5.528,2.292-7.062,4.467l-0.001,4.021l0.001,5.925v8.885c0,0.091-0.001,24.81,0,28.918H315.44z"/>
</g>
<g>
	<rect x="0.495" y="200.37" style="fill:#005F89;" width="199.877" height="199.877"/>
	<polygon style="fill:#043559;" points="200.372,276.9 160.912,237.44 139.278,285.072 107.818,307.695 90.308,290.184 
		61.723,318.769 74.563,331.61 42.385,354.747 87.885,400.247 200.372,400.247 	"/>
	<path style="fill:#537F91;" d="M70.968,282.337c-0.649-0.562-1.311-1.088-1.973-1.598c-0.087,3.776-0.228,7.589-0.448,11.444
		c-0.835,14.558-2.594,28.47-5.06,41.463c8.493,1.079,15.131,5.637,16.396,10.819c-4.433-1.821-10.252-3.3-16.719-4.086
		c-0.338-0.04-0.671-0.067-1.006-0.104c-1.664,7.774-3.577,15.195-5.736,22.123c1.016,0.241,2.045,0.445,3.095,0.573
		c20.534,2.485,40.251-17.868,46.898-46.789c-6.457-7.104-12.021-15.95-16.108-25.997C83.942,290.157,77.382,287.879,70.968,282.337
		z M98.214,312.151c0,0-6.735,3.354-13.683,1.719c-6.945-1.635-11.476-7.643-11.476-7.643s6.831-3.766,13.78-2.13
		C93.78,305.731,98.214,312.151,98.214,312.151z"/>
	<path style="fill:#FFFFFF;" d="M44.404,340.624c2.24-5.025,10.069-8.076,18.905-7.006c0.06,0.006,0.118,0.017,0.179,0.027
		c2.465-12.993,4.225-26.905,5.06-41.463c0.22-3.855,0.36-7.667,0.448-11.444c-11.46-8.847-24.593-10.1-35.544-10.966
		c-3.758,7.915-6.449,17.013-7.643,26.865c-3.914,32.307,9.657,60.806,30.615,65.76c2.159-6.927,4.072-14.349,5.736-22.123
		C55.359,339.536,49.111,339.712,44.404,340.624z M34.131,303.972c0,0,5.831-4.753,12.966-4.681
		c7.14,0.068,12.877,4.935,12.877,4.935s-5.837,5.178-12.975,5.106C39.862,309.264,34.131,303.972,34.131,303.972z"/>
	<path style="fill:#537F91;" d="M59.974,304.227c0,0-5.737-4.867-12.877-4.935c-7.134-0.072-12.966,4.681-12.966,4.681
		s5.731,5.292,12.869,5.36C54.137,309.404,59.974,304.227,59.974,304.227z"/>
	<path style="fill:#FFFFFF;" d="M73.056,306.227c0,0,4.531,6.008,11.476,7.643c6.948,1.635,13.683-1.719,13.683-1.719
		s-4.435-6.42-11.378-8.055C79.887,302.46,73.056,306.227,73.056,306.227z"/>
	<path style="fill:#FFFFFF;" d="M63.165,340.379c6.466,0.786,12.286,2.265,16.719,4.086c-1.265-5.182-7.903-9.74-16.396-10.819
		c-0.423,2.237-0.862,4.45-1.329,6.629C62.494,340.312,62.827,340.338,63.165,340.379z"/>
	<path style="fill:#537F91;" d="M44.404,340.624c4.708-0.912,10.955-1.088,17.755-0.35c0.467-2.179,0.906-4.392,1.329-6.629
		c-0.061-0.01-0.119-0.022-0.179-0.027C54.473,332.548,46.644,335.599,44.404,340.624z"/>
	<path style="fill:#C60619;" d="M170.621,257.026c-2.548-7.206-5.848-13.792-9.709-19.586c-7.011,11.04-18.102,18.532-34.33,14.345
		c-0.796-0.205-1.577-0.372-2.361-0.531c6.063,15.536,11.157,33.353,14.789,52.591c0.97-0.289,1.941-0.597,2.922-0.944
		c6.142-2.172,11.418-5.12,15.212-8.253c0.432,6.907-3.822,17.297-12.067,19.671c-1.377,0.396-2.778,0.588-4.173,0.633
		c0.819,5.315,1.509,10.577,2.061,15.761c3.127-0.043,6.205-0.551,9.187-1.607C173.745,321.469,181.998,289.198,170.621,257.026z
		 M152.044,273.644c-6.427,3.109-13.913,0.917-13.913,0.917s3.115-6.847,9.539-9.956c6.425-3.109,13.726-1.301,13.726-1.301
		S158.469,270.533,152.044,273.644z"/>
	<path style="fill:#FFFFFF;" d="M123.3,305.986c4.454,0.28,9.938-0.422,15.711-2.141c-3.632-19.238-8.726-37.055-14.789-52.591
		c-14.25-2.879-26.612,1.845-36.835,5.946c0.151,8.763,1.784,18.112,5.092,27.463c9.805,27.724,31.014,46.314,50.488,46.05
		c-0.552-5.184-1.242-10.447-2.061-15.761C133.646,315.19,126.526,311.033,123.3,305.986z M100.628,285.233
		c0,0,4.445-6.41,11.396-8.032c6.952-1.624,13.772,2.161,13.772,2.161s-4.539,5.997-11.489,7.619
		C107.355,288.603,100.628,285.233,100.628,285.233z"/>
	<path style="fill:#C60619;" d="M125.796,279.362c0,0-6.82-3.785-13.772-2.161c-6.951,1.622-11.396,8.032-11.396,8.032
		s6.727,3.37,13.679,1.748C121.258,285.359,125.796,279.362,125.796,279.362z"/>
	<path style="fill:#FFFFFF;" d="M147.67,264.604c-6.425,3.109-9.539,9.956-9.539,9.956s7.486,2.192,13.913-0.917
		c6.425-3.11,9.352-10.34,9.352-10.34S154.095,261.495,147.67,264.604z"/>
	<path style="fill:#FFFFFF;" d="M140.905,314.952c1.395-0.044,2.795-0.236,4.173-0.633c8.245-2.374,12.499-12.765,12.067-19.671
		c-3.794,3.133-9.071,6.081-15.212,8.253c-0.98,0.347-1.952,0.656-2.922,0.944c0.582,3.081,1.133,6.188,1.636,9.336
		C140.744,313.775,140.814,314.36,140.905,314.952z"/>
	<path style="fill:#C60619;" d="M123.3,305.986c3.227,5.046,10.346,9.204,17.606,8.966c-0.091-0.592-0.161-1.177-0.258-1.771
		c-0.503-3.148-1.055-6.255-1.636-9.336C133.238,305.565,127.754,306.266,123.3,305.986z"/>
</g>
<g>
	<rect x="200.371" y="0.494" style="fill:#FFEB99;" width="199.877" height="199.876"/>
	<polygon style="fill:#F2CB4E;" points="400.249,130.501 363.303,94.368 355.111,93.227 331.585,69.699 317.288,84.241 
		333.524,100.36 315.504,106.31 282.521,73.355 267.546,69.26 251.294,88.339 238.595,117.335 249.4,128.143 236.702,132.338 
		304.733,200.37 400.249,200.37 	"/>
	<path style="fill:#E57957;" d="M319.586,129.79l34.332,0.002c4.407,0,7.991-3.587,7.991-7.992l0.004-14.345
		c-0.004-0.285-0.016-0.566-0.047-0.845l-6.083-6.921c-0.601-0.145-1.225-0.228-1.865-0.228h-34.332
		c-2.889,0-5.418,1.547-6.824,3.851c-0.734,1.211-1.166,2.625-1.166,4.144v2.346v11.996
		C311.597,126.203,315.179,129.792,319.586,129.79z"/>
	<path style="fill:#005F89;" d="M294.88,102.944c-1.902-5.836-7.39-10.068-13.854-10.068h-30.203l16.793-19.101
		c0.89-1.012,2.41-1.088,3.397-0.17l10.969,10.21c0.988,0.915,1.831,0.57,1.886-0.777l0.254-6.023
		c0.059-1.345-0.778-3.082-1.866-3.882L271.2,65.036c-1.089-0.794-2.788-0.714-3.798,0.181l-30.087,29.151
		c-2.705,3.406-4.001,6.842-4.334,8.149c-0.546,1.581-0.859,3.223-0.862,4.938l0.003,14.345c0,8.038,6.536,14.577,14.578,14.577
		h34.33c8.038,0,14.578-6.539,14.578-14.579v-12.295c1.545-0.047,3.114-0.08,4.7-0.084v-6.581
		C298.475,102.84,296.669,102.88,294.88,102.944z M289.021,109.85l0.003,11.948c0,4.406-3.591,7.995-7.994,7.995h-34.33
		c-4.407,0-7.995-3.587-7.995-7.992v-14.347c0-0.282,0.016-0.564,0.044-0.84l6.085-6.924c0.602-0.146,1.218-0.228,1.867-0.227
		l34.326-0.001c2.911,0,5.454,1.571,6.855,3.899c0.718,1.201,1.14,2.598,1.143,4.095L289.021,109.85z"/>
	<path style="fill:#043559;" d="M305.011,109.481V121.8c0,8.038,6.539,14.577,14.576,14.579l34.332-0.002
		c8.038,0,14.581-6.539,14.581-14.577v-14.347c0-1.713-0.318-3.354-0.864-4.885c-0.331-1.358-1.628-4.794-4.333-8.2l-30.087-29.15
		c-1.012-0.896-2.708-0.976-3.799-0.182l-11.059,8.098c-1.086,0.799-1.92,2.537-1.866,3.882l0.253,6.023
		c0.059,1.348,0.906,1.692,1.89,0.777l10.967-10.21c0.987-0.919,2.505-0.842,3.398,0.17l16.796,19.099l-30.209,0.002
		c-6.453,0-11.933,4.221-13.846,10.045c-1.686-0.051-3.388-0.09-5.119-0.087c-0.105,0-0.211,0.002-0.315,0.004v6.581
		c0.104,0,0.21-0.004,0.315-0.006C302.103,109.414,303.562,109.442,305.011,109.481z M311.597,109.801v-2.346
		c0-1.519,0.432-2.932,1.166-4.144c1.405-2.304,3.935-3.851,6.824-3.851h34.332c0.64,0,1.265,0.083,1.865,0.228l6.083,6.921
		c0.031,0.279,0.043,0.561,0.047,0.845l-0.004,14.345c0,4.405-3.585,7.992-7.991,7.992l-34.332-0.002
		c-4.407,0.002-7.99-3.587-7.99-7.993V109.801z"/>
	<path style="fill:#83ACC6;" d="M281.025,99.46l-34.326,0.001c-4.407-0.001-7.995,3.586-7.995,7.991V121.8
		c0,4.405,3.588,7.992,7.995,7.992h34.33c4.403,0,7.994-3.589,7.994-7.995v-14.342C289.023,103.048,285.436,99.46,281.025,99.46z"/>
	<path style="fill:#DB5252;" d="M319.586,99.46h34.332c4.407,0,7.991,3.587,7.995,7.995l-0.004,14.345
		c0,4.405-3.585,7.992-7.991,7.992l-34.332-0.002c-4.407,0.002-7.99-3.587-7.99-7.993v-14.342
		C311.597,103.048,315.179,99.46,319.586,99.46z"/>
</g>
<g>
	<g>
		<rect x="600.125" y="200.37" style="fill:#FFEB99;" width="199.876" height="199.874"/>
		<polygon style="fill:#F2CB4E;" points="800,275.619 756.351,231.968 643.775,231.968 643.775,368.649 675.369,400.244 
			800,400.244 		"/>
		<path style="fill:#043559;" d="M735.878,231.968v136.686h20.473V231.968H735.878z M751.232,364.009H741v-8.469h10.232V364.009z
			 M751.232,350.746L741,350.744v-8.463l10.232,0.002V350.746z M751.232,337.485L741,337.482v-8.463l10.232,0.003V337.485z
			 M751.232,324.224L741,324.222v-8.463l10.232,0.002V324.224z M751.232,310.966H741v-8.47l10.232,0.002V310.966z M751.232,297.704
			h-10.233v-8.464h10.233V297.704z M751.232,284.443L741,284.442v-8.463l10.232,0.002V284.443z M751.232,271.183L741,271.18v-8.463
			l10.232,0.003V271.183z M751.232,257.922L741,257.925v-8.469l10.232,0.001V257.922z M751.232,244.664H741v-8.47l10.232,0.001
			V244.664z"/>
		<path style="fill:#005F89;" d="M664.247,262.113v-30.145h-20.472v136.681l20.472,0.004v-30.147V262.113z M659.131,364.009h-10.236
			l-0.001-8.469h10.237V364.009z M659.131,350.746l-10.237-0.002v-8.463l10.237,0.002V350.746z M659.131,337.485l-10.237-0.003
			v-8.463l10.237,0.003V337.485z M659.131,324.222h-10.237v-8.463h10.237V324.222z M659.131,310.966h-10.237v-8.47h10.237V310.966z
			 M659.131,297.704h-10.236v-8.464h10.236V297.704z M659.131,284.443l-10.237-0.001v-8.463l10.237,0.002V284.443z M659.131,271.183
			l-10.237-0.003v-8.463l10.237,0.003V271.183z M659.131,257.922l-10.237,0.002v-8.469h10.237V257.922z M659.131,244.664h-10.237
			v-8.47h10.237V244.664z"/>
		<rect x="664.247" y="231.968" style="fill:#DB5252;" width="35.816" height="30.145"/>
		<rect x="664.247" y="338.507" style="fill:#FFFFFF;" width="35.816" height="30.146"/>
		<rect x="664.247" y="262.113" style="fill:#83ACC6;" width="35.816" height="76.394"/>
		<rect x="700.063" y="231.968" style="fill:#C60619;" width="35.814" height="30.145"/>
		<rect x="700.063" y="338.506" style="fill:#D3D3D3;" width="35.814" height="30.147"/>
		<rect x="700.063" y="262.113" style="fill:#537F91;" width="35.814" height="76.393"/>
	</g>
	<path style="fill:#FFFFFF;" d="M696.079,286.052l-0.321-0.237c-1.057-0.781-2.005-0.962-2.941-0.408
		c-0.586,0.349-0.755,1.074-0.755,1.662v26.516c0,0.588,0.255,1.358,0.858,1.698c0.872,0.472,1.995,0.246,3.055-0.533l4.087-3.206
		v-22.388L696.079,286.052z"/>
	<path style="fill:#FFFFFF;" d="M700.061,324.469c-13.609,0-24.645-10.816-24.645-24.164c0-13.347,11.036-24.162,24.645-24.162
		c0-0.002,0-3.722,0-3.722c-15.709,0-28.441,12.477-28.441,27.884c0,15.408,12.732,27.896,28.441,27.896V324.469z"/>
	<path style="fill:#D3D3D3;" d="M712.48,298.835l-12.419-9.678v22.388l12.419-9.724C713.349,300.962,713.349,299.693,712.48,298.835
		z"/>
	<path style="fill:#D3D3D3;" d="M728.504,300.305c0-15.406-12.729-27.882-28.442-27.884v3.72
		c13.608,0.002,24.64,10.816,24.64,24.161c0,13.35-11.031,24.165-24.64,24.167v3.732
		C715.774,328.199,728.504,315.711,728.504,300.305z"/>
</g>
<g>
	<rect x="600.123" y="400.247" style="fill:#005F89;" width="199.876" height="199.876"/>
	<polygon style="fill:#043559;" points="799.999,531.176 746.028,477.203 678.34,577.607 700.854,600.123 799.999,600.123 	"/>
	<polygon style="fill:#FFFFFF;" points="675.521,490.258 667.56,490.258 694.715,577.607 700.061,577.607 700.061,569.206 	"/>
	<polygon style="fill:#FFFFFF;" points="678.34,577.607 683.954,577.607 670.067,532.933 	"/>
	<polygon style="fill:#FFFFFF;" points="700.061,508.985 694.24,490.258 686.28,490.256 700.061,534.588 	"/>
	<polygon style="fill:#D3D3D3;" points="700.061,534.588 713.435,577.607 721.394,577.607 700.061,508.985 	"/>
	<polygon style="fill:#D3D3D3;" points="700.061,577.607 702.674,577.607 700.061,569.206 	"/>
	<polygon style="fill:#D3D3D3;" points="705,490.258 725.654,556.703 728.626,540.66 712.96,490.258 	"/>
	<polygon style="fill:#D3D3D3;" points="731.674,490.258 723.717,490.258 732.643,518.966 735.612,502.922 	"/>
	<polygon style="fill:#DB5252;" points="662.164,490.256 670.067,532.933 683.954,577.607 694.715,577.607 667.56,490.258 	"/>
	<polygon style="fill:#DB5252;" points="700.061,534.588 686.28,490.256 675.521,490.258 700.061,569.206 	"/>
	<polygon style="fill:#C60619;" points="700.061,569.206 702.674,577.607 713.435,577.607 700.061,534.588 	"/>
	<polygon style="fill:#DB5252;" points="700.061,490.258 694.24,490.258 700.061,508.985 	"/>
	<polygon style="fill:#C60619;" points="700.061,490.258 700.061,508.985 721.394,577.607 721.781,577.607 725.654,556.703 
		705,490.258 	"/>
	<polygon style="fill:#C60619;" points="712.96,490.258 728.626,540.66 732.643,518.966 723.717,490.258 	"/>
	<polygon style="fill:#C60619;" points="737.958,490.258 731.674,490.258 735.612,502.922 	"/>
	<rect x="654.094" y="477.203" style="fill:#FFFFFF;" width="45.968" height="13.055"/>
	<rect x="700.061" y="477.203" style="fill:#D3D3D3;" width="45.967" height="13.055"/>
	<polygon style="fill:#FFFFFF;" points="668.226,422.764 685.144,477.203 688.136,477.203 671.211,422.764 	"/>
	<polygon style="fill:#DB5252;" points="671.211,422.764 688.136,477.203 691.644,477.203 674.721,422.764 	"/>
	<polygon style="fill:#D3D3D3;" points="691.644,477.203 694.715,477.203 677.794,422.763 674.721,422.764 	"/>
</g>
<g>
	<rect x="600.123" y="0.494" style="fill:#83ACC6;" width="199.876" height="199.877"/>
	<polygon style="fill:#537F91;" points="800,87.718 772.613,60.33 627.513,140.535 687.346,200.37 800,200.372 	"/>
	<path style="fill:#005F89;" d="M681.949,121.741c6.514-4.838,10.755-12.568,10.755-21.309c-0.003-8.739-4.241-16.468-10.756-21.307
		h18.113l-0.004-18.795h-72.545v80.205h72.549l-0.004-18.794H681.949z"/>
	<path style="fill:#043559;" d="M772.613,60.33h-72.556l0.004,18.795h18.114c-6.515,4.839-10.756,12.568-10.756,21.307
		c0,8.741,4.241,16.471,10.753,21.309h-18.115l0.004,18.794h72.552V60.33z"/>
	<path style="fill:#D3D3D3;" d="M692.704,100.432c-0.003-8.739-4.241-16.468-10.756-21.307h-31.604
		c-6.515,4.839-10.755,12.568-10.755,21.307c0,8.741,4.24,16.471,10.754,21.309h31.605
		C688.463,116.903,692.704,109.173,692.704,100.432z M666.146,115.983c-8.589-0.001-15.55-6.963-15.55-15.551
		c0-8.589,6.961-15.551,15.55-15.551c8.592,0,15.553,6.962,15.553,15.551C681.698,109.021,674.737,115.982,666.146,115.983z"/>
	<path style="fill:#043559;" d="M666.146,84.881c-8.589,0-15.55,6.962-15.55,15.551c0,8.588,6.961,15.55,15.55,15.551
		c8.592-0.001,15.553-6.963,15.553-15.551C681.698,91.843,674.737,84.881,666.146,84.881z"/>
	<path style="fill:#005F89;" d="M760.53,100.432c0-8.739-4.235-16.468-10.753-21.307h-31.602
		c-6.515,4.839-10.756,12.568-10.756,21.307c0,8.741,4.241,16.471,10.753,21.309h31.604
		C756.295,116.903,760.53,109.173,760.53,100.432z M733.974,115.983c-8.589,0-15.548-6.963-15.548-15.551
		c0-8.589,6.959-15.551,15.548-15.551c8.591,0,15.553,6.962,15.553,15.551C749.526,109.02,742.565,115.983,733.974,115.983z"/>
	<path style="fill:#043559;" d="M733.974,84.881c-8.589,0-15.548,6.962-15.548,15.551c0,8.588,6.959,15.551,15.548,15.551
		c8.591,0,15.553-6.964,15.553-15.551C749.526,91.843,742.565,84.881,733.974,84.881z"/>
	<path style="fill:#DB5252;" d="M692.704,100.432c0,8.741-4.241,16.471-10.755,21.309h18.108l0.004-42.616h-18.113
		C688.463,83.964,692.701,91.693,692.704,100.432z"/>
	<path style="fill:#C60619;" d="M718.173,121.741c-6.512-4.838-10.753-12.568-10.753-21.309c0-8.739,4.241-16.468,10.756-21.307
		h-18.114l-0.004,42.616H718.173z"/>
</g>
<g>
	<rect x="400.247" y="600.123" style="fill:#FFEB99;" width="199.876" height="199.877"/>
	<polygon style="fill:#F2CB4E;" points="600.123,681.516 571.089,652.481 429.282,721.087 450.495,742.302 444.857,747.938 
		496.921,800 600.123,800 	"/>
	<rect x="429.281" y="652.481" style="fill:#005F89;" width="70.904" height="68.605"/>
	<rect x="500.185" y="652.481" style="fill:#043559;" width="70.904" height="68.605"/>
	<polygon style="fill:#FFFFFF;" points="466.296,667.005 469.248,676.076 478.78,676.076 471.063,681.682 474.014,690.756 
		466.296,685.149 458.578,690.756 461.525,681.682 453.81,676.076 463.352,676.076 	"/>
	<path style="fill:#FFFFFF;" d="M497.241,676.075l-9.542,0.001l7.72,5.605l-2.947,9.074l7.713-5.607
		c0.004,0,0.004-18.137,0.004-18.137C500.185,667.005,497.241,676.075,497.241,676.075z"/>
	<polygon style="fill:#D3D3D3;" points="507.903,690.756 504.954,681.682 512.674,676.076 503.136,676.076 500.188,667.013 
		500.188,685.149 	"/>
	<polygon style="fill:#D3D3D3;" points="534.077,667.005 537.025,676.076 546.563,676.076 538.846,681.682 541.792,690.756 
		534.074,685.149 526.36,690.756 529.309,681.682 521.591,676.075 531.131,676.076 	"/>
	<path style="fill:#83ACC6;" d="M532.725,728.988c-9.831,0.293-16.467,5.412-19.712,13.017c-0.5,1.168-0.913,2.376-1.25,3.648
		c-0.206,0.792-0.394,1.551-0.549,2.285c3.849,2.099,12.319,3.584,22.148,3.584v-22.534
		C533.149,728.988,532.938,728.988,532.725,728.988z"/>
	<path style="fill:#537F91;" d="M554.964,745.655c-0.341-1.274-0.759-2.482-1.249-3.65c-3.248-7.604-9.891-12.724-19.72-13.017
		c-0.207,0-0.425,0-0.633,0v22.534c9.827,0,18.295-1.485,22.155-3.584C555.349,747.204,555.174,746.445,554.964,745.655z"/>
	<path style="fill:#C60619;" d="M488.614,745.653c-0.347-1.272-0.762-2.48-1.253-3.65c-3.248-7.603-9.885-12.722-19.719-13.015
		c-0.206,0-0.421-0.002-0.633,0v22.534c9.83,0,18.297-1.485,22.154-3.584C488.995,747.204,488.818,746.445,488.614,745.653z"/>
	<path style="fill:#DB5252;" d="M466.369,728.988c-9.825,0.293-16.463,5.412-19.709,13.017c-0.497,1.168-0.912,2.376-1.246,3.65
		c-0.215,0.79-0.396,1.548-0.557,2.283c3.853,2.099,12.323,3.584,22.152,3.584v-22.534
		C466.796,728.988,466.585,728.988,466.369,728.988z"/>
	<path style="fill:#D3D3D3;" d="M526.352,753.653c-0.188-0.861-0.402-1.75-0.652-2.692c-0.396-1.492-0.886-2.935-1.471-4.305
		c-3.834-9.004-11.681-15.033-23.291-15.383c-0.25,0-0.503-0.009-0.754-0.009v26.612
		C511.799,757.877,521.803,756.148,526.352,753.653z"/>
	<path style="fill:#FFFFFF;" d="M499.432,731.273c-11.606,0.35-19.452,6.379-23.291,15.385c-0.581,1.367-1.074,2.811-1.475,4.303
		c-0.245,0.942-0.458,1.828-0.652,2.692c4.552,2.495,14.557,4.224,26.171,4.224v-26.612
		C499.935,731.263,499.685,731.273,499.432,731.273z"/>
	<path style="fill:#FFEB99;" d="M467.01,703.076c-5.819,0-10.54,5.258-10.54,11.741s4.721,11.744,10.54,11.744
		c5.82,0,10.54-5.261,10.54-11.744S472.83,703.076,467.01,703.076z"/>
	<path style="fill:#FFEB99;" d="M533.362,703.076c-5.822,0-10.544,5.258-10.544,11.741s4.722,11.744,10.544,11.744
		c5.821,0,10.546-5.261,10.546-11.744C543.905,708.334,539.184,703.076,533.362,703.076z"/>
	<path style="fill:#FFEB99;" d="M500.188,700.062c-6.827,0-12.358,6.165-12.363,13.767c0.005,7.599,5.536,13.767,12.363,13.767
		c6.824,0,12.36-6.168,12.355-13.767C512.549,706.225,507.013,700.062,500.188,700.062z"/>
</g>
<g>
	<rect x="400.248" y="0.494" style="fill:#005F89;" width="199.878" height="199.875"/>
	<polygon style="fill:#043559;" points="600.126,95.298 534.313,29.488 526.888,44.25 468.804,50.04 471.083,101.82 
		499.831,126.586 459.023,167.394 491.999,200.368 600.126,200.37 	"/>
	<rect x="465.351" y="29.487" style="fill:#FFFFFF;" width="5.896" height="58.056"/>
	<rect x="528.42" y="29.488" style="fill:#D3D3D3;" width="5.893" height="58.056"/>
	
		<rect x="447.849" y="134.786" transform="matrix(0.7071 -0.7071 0.7071 0.7071 47.04 388.7661)" style="fill:#D3D3D3;" width="89.898" height="5.63"/>
	
		<rect x="504.05" y="92.653" transform="matrix(0.7068 -0.7075 0.7075 0.7068 51.2882 398.9362)" style="fill:#FFFFFF;" width="5.63" height="89.897"/>
	<path style="fill:#FFEB99;" d="M535.371,87.544H465c-6.993-0.002-12.668,5.67-12.668,12.663h95.703
		C548.035,93.214,542.365,87.544,535.371,87.544z"/>
	<path style="fill:#C60619;" d="M465.002,112.876h70.369c6.994,0,12.664-5.673,12.664-12.669h-95.703
		C452.332,107.203,458.007,112.876,465.002,112.876z"/>
	<rect x="471.246" y="36.523" style="fill:#83ACC6;" width="28.588" height="26.039"/>
	<rect x="499.834" y="36.524" style="fill:#537F91;" width="28.586" height="26.038"/>
</g>
<g>
	<rect x="400.248" y="200.37" style="fill:#DB5252;" width="199.878" height="199.877"/>
	<polygon style="fill:#C60619;" points="600.126,281.643 564.824,246.343 435.545,332.328 503.464,400.247 600.126,400.248 	"/>
	<rect x="452.383" y="263.18" style="fill:#83ACC6;" width="47.802" height="52.31"/>
	<polygon style="fill:#FFEB99;" points="500.185,315.49 452.383,315.49 452.383,263.18 500.185,263.18 500.185,246.342 
		435.545,246.343 435.545,332.328 490.263,332.329 500.185,332.329 	"/>
	<polygon style="fill:#FFFFFF;" points="490.263,346.157 459.597,346.158 459.597,354.276 500.185,354.276 500.186,346.158 	"/>
	<rect x="490.263" y="332.329" style="fill:#FFFFFF;" width="9.923" height="13.829"/>
	<rect x="500.185" y="263.18" style="fill:#537F91;" width="47.803" height="52.31"/>
	<polygon style="fill:#F2CB4E;" points="547.987,263.18 547.987,315.49 500.185,315.49 500.185,332.329 510.106,332.328 
		564.824,332.328 564.824,246.343 500.185,246.342 500.185,263.18 	"/>
	<polygon style="fill:#D3D3D3;" points="540.772,346.157 510.106,346.158 500.186,346.158 500.185,354.276 540.772,354.276 	"/>
	<rect x="500.186" y="332.328" style="fill:#D3D3D3;" width="9.921" height="13.83"/>
	<path style="fill:#005F89;" d="M496.063,323.89c0,2.276,1.847,4.123,4.122,4.122l0.002-8.245
		C497.909,319.767,496.063,321.615,496.063,323.89z"/>
	<path style="fill:#043559;" d="M504.308,323.89c0-2.275-1.847-4.122-4.121-4.122l-0.002,8.245
		C502.461,328.013,504.308,326.167,504.308,323.89z"/>
	<g>
		<path style="fill:#FFFFFF;" d="M472.77,290.703l-6.139,0.001v7.026h-3.286v-16.79h3.286v6.836h6.139v-6.837h3.288v16.791h-3.288
			V290.703z"/>
		<path style="fill:#FFFFFF;" d="M478.957,280.94c0.336-0.046,0.716-0.087,1.14-0.118c0.425-0.031,0.859-0.057,1.309-0.073
			c0.447-0.015,0.883-0.028,1.307-0.035c0.423-0.009,0.803-0.011,1.14-0.012c1.486,0,2.757,0.208,3.813,0.624
			c1.056,0.416,1.911,1,2.567,1.751c0.653,0.751,1.135,1.646,1.44,2.685c0.302,1.04,0.455,2.181,0.455,3.429
			c0,1.137-0.143,2.232-0.432,3.288c-0.287,1.055-0.768,1.99-1.438,2.806c-0.672,0.815-1.557,1.47-2.652,1.966
			c-1.094,0.496-2.449,0.744-4.064,0.745c-0.257-0.001-0.596-0.008-1.019-0.025c-0.425-0.014-0.863-0.035-1.32-0.059
			c-0.454-0.023-0.892-0.047-1.306-0.073c-0.417-0.023-0.728-0.05-0.938-0.083V280.94z M484.115,283.627
			c-0.352,0.001-0.708,0.009-1.068,0.024c-0.359,0.014-0.627,0.039-0.802,0.072v11.249c0.061,0.014,0.172,0.026,0.324,0.034
			c0.149,0.011,0.313,0.018,0.491,0.026c0.175,0.007,0.344,0.016,0.507,0.023c0.155,0.008,0.275,0.013,0.355,0.013
			c0.928,0,1.699-0.165,2.315-0.494c0.615-0.328,1.103-0.763,1.461-1.308c0.36-0.543,0.615-1.171,0.758-1.882
			c0.144-0.712,0.216-1.441,0.216-2.195c0-0.654-0.065-1.313-0.192-1.976c-0.128-0.664-0.364-1.26-0.707-1.789
			c-0.344-0.526-0.813-0.957-1.404-1.293C485.777,283.795,485.026,283.627,484.115,283.627z"/>
	</g>
	<polygon style="fill:#D3D3D3;" points="524.085,278.204 526.849,286.707 535.792,286.707 528.557,291.962 531.32,300.468 
		524.085,295.21 516.852,300.468 519.615,291.962 512.381,286.707 521.322,286.708 	"/>
</g>
<g>
	<rect x="200.371" y="600.123" style="fill:#005F89;" width="199.877" height="199.877"/>
	<polygon style="fill:#043559;" points="400.249,718.301 338.507,656.56 300.309,648.094 262.571,664.171 245.346,704.243 
		241.036,710.062 226.277,748.516 277.761,800 400.249,800 	"/>
	<path style="fill:#FFEB99;" d="M218.862,732.048c0,12.143,9.927,21.984,22.172,21.984l0.001-43.971
		C228.789,710.062,218.862,719.904,218.862,732.048z"/>
	<polygon style="fill:#FFEB99;" points="263.201,732.048 263.201,704.243 252.118,704.243 252.118,759.857 263.201,759.861 	"/>
	<path style="fill:#F2CB4E;" d="M381.753,732.048c0,12.143-9.923,21.984-22.171,21.984l0.002-43.971
		C371.829,710.062,381.753,719.908,381.753,732.048z"/>
	<polygon style="fill:#F2CB4E;" points="337.413,732.048 337.413,704.243 348.499,704.243 348.499,759.861 337.414,759.861 	"/>
	<path style="fill:#FFFFFF;" d="M245.346,704.243h13.542c0-39.816,26.036-50.435,41.421-50.435v-13.541
		C273.84,640.268,245.344,660.281,245.346,704.243z"/>
	<path style="fill:#D3D3D3;" d="M341.728,704.243h13.54c0-43.957-28.489-63.976-54.959-63.976v13.541
		C315.691,653.806,341.728,664.428,341.728,704.243z"/>
</g>
<g>
	<rect x="600.123" y="600.123" style="fill:#DB5252;" width="199.876" height="199.877"/>
	<polygon style="fill:#C60619;" points="799.999,719.687 721.066,640.753 708.163,676.65 705.59,708.231 663.271,665.916 
		658.587,695.771 669.28,727.007 702.629,761.114 701.156,762.587 675.311,768.069 707.238,800 799.999,800 	"/>
	<path style="fill:#FFFFFF;" d="M700.061,731.168c-20.285,0-36.79-16.503-36.79-36.786v-28.466h-8.1v28.464
		c0,23.386,17.979,42.628,40.84,44.687v20.568h4.053C700.065,759.635,700.065,731.17,700.061,731.168z"/>
	<path style="fill:#F2CB4E;" d="M704.11,739.066c22.859-2.059,40.84-21.301,40.84-44.687v-28.464l-8.1,0.004v28.462
		c0,20.282-16.5,36.786-36.786,36.788v28.465h4.046V739.066z"/>
	<polygon style="fill:#005F89;" points="696.012,757.273 675.311,761.993 675.311,768.069 700.061,768.069 700.061,757.271 	"/>
	<polygon style="fill:#043559;" points="724.81,761.995 704.11,757.273 700.061,757.271 700.061,768.069 724.81,768.069 	"/>
	<path style="fill:#005F89;" d="M700.061,632.053c-16.404,0-29.7,13.297-29.7,29.703v30.6c0,16.404,13.296,29.699,29.7,29.699
		C700.066,722.055,700.065,632.053,700.061,632.053z"/>
	<path style="fill:#043559;" d="M729.761,692.356v-30.602c0-16.403-13.293-29.699-29.696-29.701l0.002,90.002
		C716.468,722.053,729.761,708.758,729.761,692.356z"/>
</g>
</svg>
